{
.formatVersion = 3;
DisplayStrings = (
"/uni1362.vs17"
);
familyName = "ዋልድባ - ይገዙ ብሥራት ጎፈር";
customParameters = (
{
name = glyphOrder;
value = (
space,
exclam,
quotedbl,
numbersign,
dollar,
percent,
ampersand,
quotesingle,
parenleft,
parenright,
asterisk,
plus,
comma,
hyphen,
period,
slash,
zero,
one,
two,
three,
four,
five,
six,
seven,
eight,
nine,
colon,
semicolon,
less,
equal,
greater,
question,
at,
A,
B,
C,
D,
E,
F,
G,
H,
I,
J,
K,
L,
M,
N,
O,
P,
Q,
R,
S,
T,
U,
V,
W,
X,
Y,
Z,
bracketleft,
backslash,
bracketright,
asciicircum,
underscore,
grave,
a,
b,
c,
d,
e,
f,
g,
h,
i,
j,
k,
l,
m,
n,
o,
p,
q,
r,
s,
t,
u,
v,
w,
x,
y,
z,
braceleft,
bar,
braceright,
asciitilde,
exclamdown,
cent,
sterling,
currency,
yen,
brokenbar,
section,
dieresis,
copyright,
ordfeminine,
guillemotleft,
logicalnot,
registered,
macron,
degree,
plusminus,
twosuperior,
threesuperior,
acute,
mu,
paragraph,
periodcentered,
cedilla,
onesuperior,
ordmasculine,
guillemotright,
onequarter,
onehalf,
threequarters,
questiondown,
Agrave,
Aacute,
Acircumflex,
Atilde,
Adieresis,
Aring,
AE,
Ccedilla,
Egrave,
Eacute,
Ecircumflex,
Edieresis,
Igrave,
Iacute,
Icircumflex,
Idieresis,
Eth,
Ntilde,
Ograve,
Oacute,
Ocircumflex,
Otilde,
Odieresis,
multiply,
Oslash,
Ugrave,
Uacute,
Ucircumflex,
Udieresis,
Yacute,
Thorn,
germandbls,
agrave,
aacute,
acircumflex,
atilde,
adieresis,
aring,
ae,
ccedilla,
egrave,
eacute,
ecircumflex,
edieresis,
igrave,
iacute,
icircumflex,
idieresis,
eth,
ntilde,
ograve,
oacute,
ocircumflex,
otilde,
odieresis,
divide,
oslash,
ugrave,
uacute,
ucircumflex,
udieresis,
yacute,
thorn,
ydieresis,
OE,
oe,
Scaron,
scaron,
Ydieresis,
Zcaron,
zcaron,
florin,
circumflex,
tilde,
uni1200,
uni1201,
uni1202,
uni1203,
uni1204,
uni1205,
uni1206,
uni1208,
uni1209,
uni120A,
uni120B,
uni120C,
uni120D,
uni120E,
uni120F,
uni1210,
uni1211,
uni1212,
uni1213,
uni1214,
uni1215,
uni1216,
uni1217,
uni1218,
uni1219,
uni121A,
uni121B,
uni121C,
uni121D,
uni121E,
uni121F,
uni1220,
uni1221,
uni1222,
uni1223,
uni1224,

glyphs = (
{
glyphname = exclam;
layers = (
{
layerId = "89A090B5-805C-419F-B0F6-264861EF513B";
shapes = (
{
closed = 1;
nodes = (
(637.641,444.277,l),
(596.206,1314.41,l),
(787.268,1314.41,l),
(743.53,444.277,l)
);
},
{
closed = 1;
nodes = (
(759.644,244.007,o),
(849.42,161.137,o),
(849.42,101.286,qs),
(849.42,41.435,o),
(757.342,-39.133,o),
(690.586,-39.133,qs),
(623.829,-39.133,o),
(531.751,43.737,o),
(531.751,103.588,qs),
(531.751,163.439,o),
(623.829,244.007,o),
(690.586,244.007,qs)
);
}
);
width = 1381;
}
);
unicode = 33;
},
{
glyphname = quotedbl;
layers = (
{
layerId = "89A090B5-805C-419F-B0F6-264861EF513B";
shapes = (
{
closed = 1;
nodes = (
(557.072,649.15,l),
(386.728,649.15,l),
(361.406,1296,l),
(580.092,1296,l)
);
},
{
closed = 1;
nodes = (
(994.443,649.15,l),
(824.099,649.15,l),
(801.079,1296,l),
(1019.76,1296,l)
);
}
);
width = 1381;
}
);
unicode = 34;
},
{
glyphname = numbersign;
layers = (
{
layerId = "89A090B5-805C-419F-B0F6-264861EF513B";
shapes = (
{
closed = 1;
nodes = (
(543.261,1045.09,l),
(877.044,1045.09,l),
(904.667,1516.99,l),
(1012.86,1516.99,l),
(985.235,1045.09,l),
(1201.62,1045.09,l),
(1201.62,895.459,l),
(978.33,895.459,l),
(955.31,511.033,l),
(1201.62,511.033,l),
(1201.62,361.406,l),
(948.404,361.406,l),
(920.781,-131.211,l),
(812.589,-131.211,l),
(840.212,361.406,l),
(504.127,361.406,l),
(478.806,-131.211,l),
(370.614,-131.211,l),
(395.936,361.406,l),
(179.552,361.406,l),
(179.552,511.033,l),
(405.144,511.033,l),
(428.163,895.459,l),
(179.552,895.459,l),
(179.552,1045.09,l),
(435.069,1045.09,l),
(462.692,1516.99,l),
(570.884,1516.99,l)
);
},
{
closed = 1;
nodes = (
(513.335,511.033,l),
(847.118,511.033,l),
(870.138,895.459,l),
(536.355,895.459,l)
);
}
);
width = 1381;
}
);
unicode = 35;
},
{
glyphname = dollar;
layers = (
{
layerId = "89A090B5-805C-419F-B0F6-264861EF513B";
shapes = (
{
closed = 1;
nodes = (
(1095.73,1259.17,l),
(1093.43,1236.15,o),
(1091.13,1183.2,o),
(1091.13,1148.67,qs),
(1091.13,1038.18,o),
(1109.54,870.138,o),
(1116.45,812.589,q),
(1010.56,801.079,l),
(994.443,913.875,o),
(929.989,1049.69,o),
(854.024,1123.35,o),
(773.456,1150.98,o),
(741.229,1157.88,q),
(741.229,688.284,l),
(812.589,667.566,o),
(953.008,621.527,o),
(1063.5,550.167,o),
(1130.26,439.673,o),
(1130.26,356.803,qs),
(1130.26,283.14,o),
(1070.41,170.344,o),
(964.518,87.474,o),
(821.797,39.133,o),
(741.229,32.227,q),
(741.229,-313.065,l),
(630.735,-313.065,l),
(630.735,32.227,l),
(612.319,32.227,o),
(582.394,34.529,o),
(540.959,46.039,o),
(483.41,62.153,o),
(439.673,75.964,q),
(414.351,85.172,o),
(393.634,87.474,o),
(389.03,87.474,qs),
(366.01,87.474,o),
(359.105,59.851,o),
(356.803,20.718,q),
(248.611,20.718,l),
(255.517,147.325,o),
(241.705,352.199,o),
(225.591,467.296,q),
(333.783,467.296,l),
(340.689,428.163,o),
(368.312,324.575,o),
(430.465,227.893,o),
(540.959,154.231,o),
(630.735,142.721,q),
(630.735,600.809,l),
(573.186,616.923,o),
(444.277,658.358,o),
(336.085,732.021,o),
(264.724,847.118,o),
(264.724,936.894,qs),
(264.724,1081.92,o),
(464.994,1256.87,o),
(630.735,1270.68,q),
(630.735,1510.08,l),
(741.229,1510.08,l),
(741.229,1270.68,l),
(819.495,1261.47,o),
(900.063,1222.34,qs),
(929.989,1208.52,o),
(946.102,1201.62,o),
(955.31,1201.62,qs),
(973.726,1201.62,o),
(982.934,1224.64,o),
(987.537,1259.17,q)
);
},
{
closed = 1;
nodes = (
(630.735,1160.18,l),
(603.111,1155.58,o),
(520.241,1137.16,o),
(441.975,1088.82,o),
(384.426,1008.25,o),
(384.426,941.498,qs),
(384.426,886.252,o),
(428.163,814.891,o),
(497.222,766.55,o),
(584.696,734.323,o),
(630.735,720.511,q)
);
},
{
closed = 1;
nodes = (
(741.229,142.721,l),
(778.06,145.023,o),
(870.138,165.741,o),
(953.008,214.082,o),
(1010.56,294.65,o),
(1010.56,354.501,qs),
(1010.56,407.446,o),
(962.216,478.806,o),
(886.252,527.147,o),
(789.57,559.374,o),
(741.229,573.186,q)
);
}
);
width = 1381;
}
);
unicode = 36;
},
{
glyphname = percent;
layers = (
{
layerId = "89A090B5-805C-419F-B0F6-264861EF513B";
shapes = (
{
closed = 1;
nodes = (
(1003.65,582.394,o),
(1125.65,527.147,o),
(1208.52,437.371,o),
(1249.96,326.877,o),
(1249.96,273.932,qs),
(1249.96,218.685,o),
(1206.22,110.494,o),
(1123.35,23.02,o),
(1001.35,-32.227,o),
(923.083,-32.227,qs),
(842.514,-32.227,o),
(722.813,23.02,o),
(639.943,112.796,o),
(598.508,220.987,o),
(598.508,273.932,qs),
(598.508,324.575,o),
(639.943,435.069,o),
(720.511,524.845,o),
(842.514,582.394,o),
(923.083,582.394,qs)
);
},
{
closed = 1;
nodes = (
(874.742,474.202,o),
(801.079,439.673,o),
(750.436,384.426,o),
(722.813,313.065,o),
(722.813,276.234,qs),
(722.813,197.968,o),
(826.401,75.964,o),
(923.083,75.964,qs),
(971.424,75.964,o),
(1047.39,110.494,o),
(1100.33,168.042,o),
(1125.65,239.403,o),
(1125.65,276.234,qs),
(1125.65,310.764,o),
(1100.33,382.124,o),
(1049.69,439.673,o),
(973.726,474.202,o),
(923.083,474.202,qs)
);
},
{
closed = 1;
nodes = (
(506.429,1413.4,o),
(628.433,1358.15,o),
(711.303,1268.38,o),
(755.04,1160.18,o),
(755.04,1104.94,qs),
(755.04,1049.69,o),
(711.303,939.196,o),
(628.433,851.722,o),
(506.429,798.777,o),
(428.163,798.777,qs),
(352.199,798.777,o),
(230.195,854.024,o),
(147.325,939.196,o),
(103.588,1049.69,o),
(103.588,1104.94,qs),
(103.588,1157.88,o),
(145.023,1268.38,o),
(227.893,1358.15,o),
(347.595,1413.4,o),
(428.163,1413.4,qs)
);
},
{
closed = 1;
nodes = (
(379.822,1305.21,o),
(303.858,1270.68,o),
(253.215,1213.13,o),
(227.893,1141.77,o),
(227.893,1104.94,qs),
(227.893,1068.11,o),
(255.517,996.745,o),
(306.16,941.498,o),
(382.124,906.969,o),
(430.465,906.969,qs),
(527.147,906.969,o),
(630.735,1026.67,o),
(630.735,1104.94,qs),
(630.735,1180.9,o),
(527.147,1305.21,o),
(430.465,1305.21,qs)
);
},
{
closed = 1;
nodes = (
(246.309,444.277,l),
(200.27,552.468,l),
(1134.86,966.82,l),
(1180.9,858.628,l)
);
}
);
width = 1381;
}
);
unicode = 37;
},
{
glyphname = ampersand;
layers = (
{
layerId = "89A090B5-805C-419F-B0F6-264861EF513B";
shapes = (
{
closed = 1;
nodes = (
(1217.73,536.355,l),
(1079.62,536.355,l),
(1038.18,414.351,o),
(978.33,287.744,o),
(959.914,255.517,q),
(1061.2,108.192,l),
(1233.85,108.192,l),
(1233.85,0,l),
(971.424,0,l),
(877.044,138.117,l),
(856.326,115.098,o),
(801.079,62.153,o),
(722.813,13.812,o),
(621.527,-18.416,o),
(559.374,-18.416,qs),
(478.806,-18.416,o),
(354.501,39.133,o),
(269.328,135.815,o),
(225.591,255.517,o),
(225.591,317.669,qs),
(225.591,435.069,o),
(368.312,642.245,o),
(499.524,690.586,q),
(499.524,697.491,o),
(490.316,706.699,q),
(451.183,764.248,o),
(402.842,837.911,o),
(375.218,897.761,o),
(366.01,948.404,o),
(366.01,980.632,qs),
(366.01,1093.43,o),
(524.845,1243.05,o),
(662.962,1243.05,qs),
(713.605,1243.05,o),
(801.079,1222.34,o),
(844.816,1203.92,q),
(893.157,1185.51,o),
(925.385,1178.6,o),
(939.196,1178.6,qs),
(966.82,1178.6,o),
(1010.56,1192.41,o),
(1024.37,1197.02,q),
(918.479,1031.27,l),
(874.742,1063.5,o),
(750.436,1132.56,o),
(662.962,1132.56,qs),
(614.621,1132.56,o),
(552.468,1104.94,o),
(515.637,1061.2,o),
(501.826,1010.56,o),
(501.826,989.839,qs),
(501.826,948.404,o),
(547.865,867.836,o),
(591.602,803.381,qs),
(890.855,359.105,l),
(911.573,402.842,o),
(936.894,458.088,o),
(957.612,513.335,o),
(980.632,584.696,o),
(999.047,644.547,q),
(1217.73,644.547,l)
);
},
{
closed = 1;
nodes = (
(561.676,607.715,l),
(529.449,593.904,o),
(464.994,547.865,o),
(412.049,483.41,o),
(377.52,398.238,o),
(377.52,345.293,qs),
(377.52,303.858,o),
(400.54,216.383,o),
(453.485,145.023,o),
(531.751,101.286,o),
(586.998,101.286,qs),
(630.735,101.286,o),
(704.397,128.909,o),
(759.644,170.344,o),
(801.079,214.082,o),
(814.891,230.195,q)
);
}
);
width = 1381;
}
);
unicode = 38;
},
{
glyphname = quotesingle;
layers = (
{
layerId = "89A090B5-805C-419F-B0F6-264861EF513B";
shapes = (
{
closed = 1;
nodes = (
(775.758,646.849,l),
(603.111,646.849,l),
(559.374,1296,l),
(821.797,1296,l)
);
}
);
width = 1381;
}
);
unicode = 39;
},
{
glyphname = parenleft;
layers = (
{
layerId = "89A090B5-805C-419F-B0F6-264861EF513B";
shapes = (
{
closed = 1;
nodes = (
(1065.8,1493.97,l),
(1028.97,1422.61,o),
(936.894,1236.15,o),
(854.024,1015.16,o),
(798.777,766.55,o),
(798.777,635.339,qs),
(798.777,504.127,o),
(854.024,255.517,o),
(936.894,34.529,o),
(1028.97,-151.929,o),
(1065.8,-220.987,q),
(948.404,-220.987,l),
(883.95,-124.305,o),
(778.06,96.682,o),
(702.095,322.273,o),
(660.66,540.959,o),
(660.66,635.339,qs),
(660.66,727.417,o),
(699.793,946.102,o),
(775.758,1171.69,o),
(881.648,1394.98,o),
(948.404,1493.97,q)
);
}
);
width = 1381;
}
);
unicode = 40;
},
{
glyphname = parenright;
layers = (
{
layerId = "89A090B5-805C-419F-B0F6-264861EF513B";
shapes = (
{
closed = 1;
nodes = (
(315.367,-220.987,l),
(349.897,-158.835,o),
(441.975,25.322,o),
(527.147,248.611,o),
(584.696,501.826,o),
(584.696,635.339,qs),
(584.696,768.852,o),
(527.147,1019.76,o),
(441.975,1240.75,o),
(349.897,1427.21,o),
(315.367,1493.97,q),
(435.069,1493.97,l),
(577.79,1272.98,o),
(722.813,814.891,o),
(722.813,635.339,qs),
(722.813,540.959,o),
(683.68,326.877,o),
(610.017,103.588,o),
(501.826,-119.702,o),
(435.069,-220.987,q)
);
}
);
width = 1381;
}
);
unicode = 41;
},
{
glyphname = asterisk;
layers = (
{
layerId = "89A090B5-805C-419F-B0F6-264861EF513B";
shapes = (
{
closed = 1;
nodes = (
(755.04,957.612,l),
(1077.31,1075.01,l),
(1125.65,927.687,l),
(794.173,835.609,l),
(1008.25,568.582,l),
(881.648,474.202,l),
(690.586,761.946,l),
(499.524,474.202,l),
(372.916,568.582,l),
(586.998,835.609,l),
(255.517,927.687,l),
(303.858,1075.01,l),
(626.131,957.612,l),
(612.319,1296,l),
(768.852,1296,l)
);
}
);
width = 1381;
}
);
unicode = 42;
},
{
glyphname = plus;
layers = (
{
layerId = "89A090B5-805C-419F-B0F6-264861EF513B";
shapes = (
{
closed = 1;
nodes = (
(748.134,755.04,l),
(1229.24,755.04,l),
(1229.24,639.943,l),
(748.134,639.943,l),
(748.134,168.042,l),
(633.037,168.042,l),
(633.037,639.943,l),
(151.929,639.943,l),
(151.929,755.04,l),
(633.037,755.04,l),
(633.037,1226.94,l),
(748.134,1226.94,l)
);
}
);
width = 1381;
}
);
unicode = 43;
},
{
glyphname = comma;
layers = (
{
layerId = "89A090B5-805C-419F-B0F6-264861EF513B";
shapes = (
{
closed = 1;
nodes = (
(570.884,-250.913,l),
(407.446,-250.913,l),
(582.394,306.16,l),
(821.797,306.16,l)
);
}
);
width = 1381;
}
);
unicode = 44;
},
{
glyphname = hyphen;
layers = (
{
layerId = "89A090B5-805C-419F-B0F6-264861EF513B";
shapes = (
{
closed = 1;
nodes = (
(446.579,729.719,l),
(934.593,729.719,l),
(934.593,603.111,l),
(446.579,603.111,l)
);
}
);
width = 1381;
}
);
unicode = (45,173);
},
{
glyphname = period;
layers = (
{
layerId = "89A090B5-805C-419F-B0F6-264861EF513B";
shapes = (
{
closed = 1;
nodes = (
(725.115,273.932,o),
(787.268,250.913,o),
(837.911,209.478,o),
(867.836,151.929,o),
(867.836,117.4,qs),
(867.836,80.568,o),
(835.609,23.02,o),
(784.966,-18.416,o),
(722.813,-39.133,o),
(690.586,-39.133,qs),
(660.66,-39.133,o),
(598.508,-18.416,o),
(545.563,20.718,o),
(513.335,78.266,o),
(513.335,117.4,qs),
(513.335,154.231,o),
(545.563,211.78,o),
(596.206,253.215,o),
(658.358,273.932,o),
(690.586,273.932,qs)
);
}
);
width = 1381;
}
);
unicode = 46;
},
{
glyphname = slash;
layers = (
{
layerId = "89A090B5-805C-419F-B0F6-264861EF513B";
shapes = (
{
closed = 1;
nodes = (
(308.462,-306.16,l),
(209.478,-260.121,l),
(1072.71,1615.97,l),
(1171.69,1574.54,l)
);
}
);
width = 1381;
}
);
unicode = 47;
},
{
glyphname = zero;
layers = (
{
layerId = "89A090B5-805C-419F-B0F6-264861EF513B";
shapes = (
{
closed = 1;
nodes = (
(831.005,1429.51,o),
(1003.65,1284.49,o),
(1095.73,1065.8,o),
(1127.96,810.287,o),
(1127.96,697.491,qs),
(1127.96,584.696,o),
(1095.73,329.179,o),
(1003.65,110.494,o),
(831.005,-32.227,o),
(690.586,-32.227,qs),
(550.167,-32.227,o),
(377.52,112.796,o),
(285.442,329.179,o),
(253.215,586.998,o),
(253.215,697.491,qs),
(253.215,810.287,o),
(285.442,1065.8,o),
(377.52,1284.49,o),
(550.167,1429.51,o),
(690.586,1429.51,qs)
);
},
{
closed = 1;
nodes = (
(586.998,1325.92,o),
(462.692,1197.02,o),
(395.936,1008.25,o),
(375.218,789.57,o),
(375.218,699.793,qs),
(375.218,607.715,o),
(395.936,389.03,o),
(462.692,197.968,o),
(586.998,71.361,o),
(688.284,71.361,qs),
(791.871,71.361,o),
(916.177,200.27,o),
(985.235,389.03,o),
(1005.95,610.017,o),
(1005.95,699.793,qs),
(1005.95,791.871,o),
(985.235,1010.56,o),
(918.479,1199.32,o),
(794.173,1325.92,o),
(690.586,1325.92,qs)
);
}
);
width = 1381;
}
);
unicode = 48;
},
{
glyphname = one;
layers = (
{
layerId = "89A090B5-805C-419F-B0F6-264861EF513B";
shapes = (
{
closed = 1;
nodes = (
(768.852,1429.51,l),
(768.852,108.192,l),
(1162.49,108.192,l),
(1162.49,0,l),
(253.215,0,l),
(253.215,108.192,l),
(653.754,108.192,l),
(653.754,1296,l),
(285.442,1125.65,l),
(239.403,1226.94,l),
(695.19,1429.51,l)
);
}
);
width = 1381;
}
);
unicode = 49;
},
{
glyphname = two;
layers = (
{
layerId = "89A090B5-805C-419F-B0F6-264861EF513B";
shapes = (
{
closed = 1;
nodes = (
(1086.52,0,l),
(188.76,0,l),
(188.76,122.003,l),
(225.591,154.231,o),
(382.124,292.348,o),
(568.582,460.39,o),
(759.644,637.641,o),
(828.703,709.001,qs),
(911.573,791.871,o),
(964.518,927.687,o),
(964.518,1008.25,qs),
(964.518,1091.13,o),
(897.761,1206.22,o),
(801.079,1279.89,o),
(690.586,1314.41,o),
(646.849,1314.41,qs),
(614.621,1314.41,o),
(511.033,1293.7,o),
(416.653,1238.45,o),
(349.897,1146.37,o),
(354.501,1075.01,q),
(234.799,1075.01,l),
(234.799,1224.64,l),
(299.254,1300.6,o),
(435.069,1385.78,o),
(552.468,1422.61,o),
(637.641,1429.51,o),
(651.452,1429.51,qs),
(732.021,1429.51,o),
(888.553,1369.66,o),
(1012.86,1259.17,o),
(1088.82,1100.33,o),
(1088.82,1003.65,qs),
(1088.82,929.989,o),
(1051.99,814.891,o),
(1010.56,748.134,qs),
(982.934,704.397,o),
(854.024,563.978,o),
(674.472,393.634,o),
(458.088,204.874,o),
(342.991,112.796,q),
(342.991,108.192,l),
(978.33,108.192,l),
(978.33,336.085,l),
(1086.52,336.085,l)
);
}
);
width = 1381;
}
);
unicode = 50;
},
{
glyphname = three;
layers = (
{
layerId = "89A090B5-805C-419F-B0F6-264861EF513B";
shapes = (
{
closed = 1;
nodes = (
(237.101,181.854,l),
(324.575,140.419,o),
(522.543,75.964,o),
(619.225,75.964,qs),
(681.378,75.964,o),
(803.381,115.098,o),
(900.063,195.666,o),
(957.612,313.065,o),
(957.612,389.03,qs),
(957.612,469.598,o),
(902.365,575.488,o),
(835.609,637.641,o),
(773.456,665.264,o),
(766.55,667.566,qs),
(706.699,688.284,o),
(598.508,692.888,o),
(543.261,688.284,q),
(543.261,796.475,l),
(593.904,796.475,o),
(711.303,810.287,o),
(764.248,844.816,qs),
(821.797,883.95,o),
(883.95,1003.65,o),
(883.95,1070.41,qs),
(883.95,1187.81,o),
(727.417,1321.32,o),
(610.017,1321.32,qs),
(520.241,1321.32,o),
(372.916,1245.36,o),
(319.971,1213.13,qs),
(278.536,1187.81,l),
(220.987,1277.58,l),
(317.669,1339.74,o),
(501.826,1429.51,o),
(612.319,1429.51,qs),
(685.982,1429.51,o),
(826.401,1381.17,o),
(936.894,1289.09,o),
(1003.65,1157.88,o),
(1003.65,1072.71,qs),
(1003.65,996.745,o),
(959.914,886.252,o),
(900.063,810.287,o),
(842.514,768.852,o),
(826.401,759.644,q),
(863.232,745.832,o),
(948.404,685.982,o),
(1024.37,596.206,o),
(1075.01,471.9,o),
(1075.01,393.634,qs),
(1075.01,296.952,o),
(1003.65,138.117,o),
(877.044,27.623,o),
(709,-32.227,o),
(612.318,-32.227,qs),
(559.373,-32.227,o),
(469.597,-18.416,o),
(375.217,11.51,o),
(264.723,52.945,o),
(193.363,80.568,q)
);
}
);
width = 1381;
}
);
unicode = 51;
},
{
glyphname = four;
layers = (
{
layerId = "89A090B5-805C-419F-B0F6-264861EF513B";
shapes = (
{
closed = 1;
nodes = (
(1104.94,446.579,l),
(1104.94,336.085,l),
(897.761,336.085,l),
(897.761,108.192,l),
(1104.94,108.192,l),
(1104.94,0,l),
(476.504,0,l),
(476.504,108.192,l),
(787.268,108.192,l),
(787.268,336.085,l),
(170.344,336.085,l),
(170.344,469.598,l),
(741.229,1429.51,l),
(897.761,1429.51,l),
(897.761,446.579,l)
);
},
{
closed = 1;
nodes = (
(787.268,1296,l),
(782.664,1296,l),
(283.14,446.579,l),
(787.268,446.579,l)
);
}
);
width = 1381;
}
);
unicode = 52;
},
{
glyphname = five;
layers = (
{
layerId = "89A090B5-805C-419F-B0F6-264861EF513B";
shapes = (
{
closed = 1;
nodes = (
(1058.9,1284.49,l),
(393.634,1284.49,l),
(393.634,819.495,l),
(446.579,842.514,o),
(580.092,883.95,o),
(672.17,883.95,qs),
(775.758,883.95,o),
(943.8,812.589,o),
(1061.2,690.586,o),
(1125.65,524.845,o),
(1125.65,432.767,qs),
(1125.65,363.708,o),
(1079.62,200.27,o),
(966.82,62.153,o),
(780.362,-32.227,o),
(642.245,-32.227,qs),
(580.092,-32.227,o),
(474.202,-18.416,o),
(370.614,9.208,o),
(267.026,48.341,o),
(209.478,71.361,q),
(250.913,174.948,l),
(278.536,163.439,o),
(359.105,131.211,o),
(458.088,103.588,o),
(573.186,82.87,o),
(633.037,82.87,qs),
(727.417,82.87,o),
(865.534,135.815,o),
(957.612,230.195,o),
(1001.35,354.501,o),
(1001.35,428.163,qs),
(1001.35,497.222,o),
(955.31,623.829,o),
(865.534,720.511,o),
(736.625,775.758,o),
(653.754,775.758,qs),
(566.28,775.758,o),
(418.955,718.209,o),
(347.595,665.264,q),
(290.046,697.491,l),
(290.046,1394.98,l),
(1058.9,1394.98,l)
);
}
);
width = 1381;
}
);
unicode = 53;
},
{
glyphname = six;
layers = (
{
layerId = "89A090B5-805C-419F-B0F6-264861EF513B";
shapes = (
{
closed = 1;
nodes = (
(1118.75,1314.41,l),
(989.839,1321.32,o),
(741.229,1302.9,o),
(534.053,1183.2,o),
(389.03,920.781,o),
(363.708,683.68,q),
(368.312,679.076,l),
(382.124,695.19,o),
(435.069,755.04,o),
(517.939,810.287,o),
(628.433,851.722,o),
(702.095,851.722,qs),
(791.871,851.722,o),
(941.498,778.06,o),
(1047.39,653.754,o),
(1104.94,492.618,o),
(1104.94,405.144,qs),
(1104.94,317.669,o),
(1045.09,158.835,o),
(936.894,39.133,o),
(787.268,-32.227,o),
(697.491,-32.227,qs),
(628.433,-32.227,o),
(464.994,27.623,o),
(326.877,172.646,o),
(234.799,414.351,o),
(234.799,598.508,qs),
(234.799,653.754,o),
(257.819,870.138,o),
(342.991,1111.84,o),
(517.939,1330.53,o),
(669.868,1385.78,qs),
(695.19,1394.98,o),
(766.55,1413.4,o),
(870.138,1427.21,o),
(1017.46,1434.12,o),
(1118.75,1429.51,q)
);
},
{
closed = 1;
nodes = (
(370.614,368.312,o),
(444.277,211.78,o),
(543.261,119.702,o),
(653.754,82.87,o),
(697.491,82.87,qs),
(752.738,82.87,o),
(854.024,126.607,o),
(934.593,209.478,o),
(980.632,329.179,o),
(980.632,405.144,qs),
(980.632,469.598,o),
(939.196,591.602,o),
(867.836,681.378,o),
(764.248,736.625,o),
(702.095,736.625,qs),
(683.68,736.625,o),
(600.809,725.115,o),
(501.826,676.774,o),
(400.54,577.79,o),
(363.708,488.014,q)
);
}
);
width = 1381;
}
);
unicode = 54;
},
{
glyphname = seven;
layers = (
{
layerId = "89A090B5-805C-419F-B0F6-264861EF513B";
shapes = (
{
closed = 1;
nodes = (
(1123.35,1286.79,l),
(676.774,0,l),
(543.261,0,l),
(1008.25,1286.79,l),
(331.481,1286.79,l),
(331.481,1075.01,l),
(218.685,1075.01,l),
(218.685,1394.98,l),
(1123.35,1394.98,l)
);
}
);
width = 1381;
}
);
unicode = 55;
},
{
glyphname = eight;
layers = (
{
layerId = "89A090B5-805C-419F-B0F6-264861EF513B";
shapes = (
{
closed = 1;
nodes = (
(455.786,722.813,o),
(384.426,778.06,o),
(319.971,863.232,o),
(271.63,978.33,o),
(271.63,1051.99,qs),
(271.63,1130.26,o),
(336.085,1266.07,o),
(448.881,1369.66,o),
(600.809,1429.51,o),
(690.586,1429.51,qs),
(780.362,1429.51,o),
(932.291,1369.66,o),
(1045.09,1266.07,o),
(1109.54,1130.26,o),
(1109.54,1051.99,qs),
(1109.54,959.914,o),
(1010.56,771.154,o),
(902.365,711.303,q),
(964.518,683.68,o),
(1051.99,600.809,o),
(1109.54,506.429,o),
(1134.86,407.446,o),
(1134.86,363.708,qs),
(1134.86,299.254,o),
(1081.92,158.835,o),
(971.424,43.737,o),
(803.381,-32.227,o),
(690.586,-32.227,qs),
(575.488,-32.227,o),
(409.747,43.737,o),
(299.254,158.835,o),
(246.309,299.254,o),
(246.309,363.708,qs),
(246.309,471.9,o),
(375.218,665.264,o),
(478.806,711.303,q)
);
},
{
closed = 1;
nodes = (
(610.017,1321.32,o),
(497.222,1268.38,o),
(428.163,1185.51,o),
(395.936,1091.13,o),
(395.936,1049.69,qs),
(395.936,996.745,o),
(437.371,895.459,o),
(513.335,814.891,o),
(623.829,764.248,o),
(690.586,764.248,qs),
(745.832,764.248,o),
(851.722,803.381,o),
(934.593,879.346,o),
(985.235,982.934,o),
(985.235,1049.69,qs),
(985.235,1118.75,o),
(932.291,1220.03,o),
(849.42,1286.79,o),
(743.53,1321.32,o),
(690.586,1321.32,qs)
);
},
{
closed = 1;
nodes = (
(610.017,656.056,o),
(490.316,603.111,o),
(409.747,517.939,o),
(370.614,414.351,o),
(370.614,363.708,qs),
(370.614,306.16,o),
(418.955,202.572,o),
(506.429,122.003,o),
(621.527,75.964,o),
(690.586,75.964,qs),
(759.644,75.964,o),
(874.742,122.003,o),
(962.216,202.572,o),
(1010.56,306.16,o),
(1010.56,363.708,qs),
(1010.56,414.351,o),
(969.122,520.241,o),
(888.553,603.111,o),
(768.852,656.056,o),
(690.586,656.056,qs)
);
}
);
width = 1381;
}
);
unicode = 56;
},
{
glyphname = nine;
layers = (
{
layerId = "89A090B5-805C-419F-B0F6-264861EF513B";
shapes = (
{
closed = 1;
nodes = (
(186.458,82.87,l),
(317.669,75.964,o),
(563.978,94.38,o),
(768.852,214.082,o),
(913.875,476.504,o),
(941.498,713.605,q),
(936.894,718.209,l),
(923.083,699.793,o),
(870.138,642.245,o),
(787.268,586.998,o),
(674.472,545.563,o),
(603.111,545.563,qs),
(513.335,545.563,o),
(363.708,619.225,o),
(257.819,743.53,o),
(200.27,904.667,o),
(200.27,992.141,qs),
(200.27,1079.62,o),
(260.121,1238.45,o),
(368.312,1358.15,o),
(517.939,1429.51,o),
(607.715,1429.51,qs),
(676.774,1429.51,o),
(840.212,1369.66,o),
(978.33,1224.64,o),
(1070.41,980.632,o),
(1070.41,798.777,qs),
(1070.41,743.53,o),
(1047.39,527.147,o),
(962.216,285.442,o),
(787.268,66.757,o),
(635.339,11.51,qs),
(610.017,2.302,o),
(538.657,-18.416,o),
(435.069,-32.227,o),
(287.744,-36.831,o),
(186.458,-32.227,q)
);
},
{
closed = 1;
nodes = (
(934.593,1028.97,o),
(860.93,1185.51,o),
(761.946,1277.58,o),
(651.452,1314.41,o),
(607.715,1314.41,qs),
(552.468,1314.41,o),
(451.183,1270.68,o),
(370.614,1187.81,o),
(324.575,1068.11,o),
(324.575,992.141,qs),
(324.575,925.385,o),
(366.01,805.683,o),
(437.371,715.907,o),
(540.959,660.66,o),
(603.111,660.66,qs),
(619.225,660.66,o),
(702.095,669.868,o),
(803.381,718.209,o),
(904.667,819.495,o),
(941.498,909.271,q)
);
}
);
width = 1381;
}
);
unicode = 57;
},
{
glyphname = colon;
layers = (
{
layerId = "89A090B5-805C-419F-B0F6-264861EF513B";
shapes = (
{
closed = 1;
nodes = (
(722.813,897.761,o),
(784.966,877.044,o),
(835.609,835.609,o),
(867.836,778.06,o),
(867.836,741.229,qs),
(867.836,704.397,o),
(835.609,646.849,o),
(784.966,605.413,o),
(720.511,584.696,o),
(690.586,584.696,qs),
(660.66,584.696,o),
(598.508,605.413,o),
(545.563,644.547,o),
(513.335,702.095,o),
(513.335,741.229,qs),
(513.335,778.06,o),
(545.563,835.609,o),
(596.206,877.044,o),
(658.358,897.761,o),
(690.586,897.761,qs)
);
},
{
closed = 1;
nodes = (
(722.813,273.932,o),
(784.966,253.215,o),
(835.609,211.78,o),
(867.836,154.231,o),
(867.836,117.4,qs),
(867.836,80.568,o),
(835.609,23.02,o),
(784.966,-18.416,o),
(720.511,-39.133,o),
(690.586,-39.133,qs),
(660.66,-39.133,o),
(598.508,-18.416,o),
(545.563,20.718,o),
(513.335,78.266,o),
(513.335,117.4,qs),
(513.335,154.231,o),
(545.563,211.78,o),
(596.206,253.215,o),
(658.358,273.932,o),
(690.586,273.932,qs)
);
}
);
width = 1381;
}
);
unicode = 58;
},
{
glyphname = semicolon;
layers = (
{
layerId = "89A090B5-805C-419F-B0F6-264861EF513B";
shapes = (
{
closed = 1;
nodes = (
(580.092,-248.611,l),
(416.653,-248.611,l),
(593.904,308.462,l),
(831.005,308.462,l)
);
},
{
closed = 1;
nodes = (
(722.813,897.761,o),
(784.966,877.044,o),
(835.609,835.609,o),
(867.836,778.06,o),
(867.836,741.229,qs),
(867.836,704.397,o),
(835.609,646.849,o),
(784.966,605.413,o),
(720.511,584.696,o),
(690.586,584.696,qs),
(660.66,584.696,o),
(598.508,605.413,o),
(545.563,644.547,o),
(513.335,702.095,o),
(513.335,741.229,qs),
(513.335,778.06,o),
(545.563,835.609,o),
(596.206,877.044,o),
(658.358,897.761,o),
(690.586,897.761,qs)
);
}
);
width = 1381;
}
);
unicode = 59;
},
{
glyphname = less;
layers = (
{
layerId = "89A090B5-805C-419F-B0F6-264861EF513B";
shapes = (
{
closed = 1;
nodes = (
(1210.83,1224.64,l),
(1256.87,1121.05,l),
(379.822,709.001,l),
(1256.87,306.16,l),
(1210.83,204.874,l),
(124.305,709.001,l)
);
}
);
width = 1381;
}
);
unicode = 60;
},
{
glyphname = equal;
layers = (
{
layerId = "89A090B5-805C-419F-B0F6-264861EF513B";
shapes = (
{
closed = 1;
nodes = (
(1233.85,849.42,l),
(147.325,849.42,l),
(147.325,964.518,l),
(1233.85,964.518,l)
);
},
{
closed = 1;
nodes = (
(1233.85,432.767,l),
(147.325,432.767,l),
(147.325,547.865,l),
(1233.85,547.865,l)
);
}
);
width = 1381;
}
);
unicode = 61;
},
{
glyphname = greater;
layers = (
{
layerId = "89A090B5-805C-419F-B0F6-264861EF513B";
shapes = (
{
closed = 1;
nodes = (
(170.344,193.364,l),
(124.305,296.952,l),
(1001.35,709.001,l),
(124.305,1111.84,l),
(170.344,1213.13,l),
(1256.87,709,l)
);
}
);
width = 1381;
}
);
unicode = 62;
},
{
glyphname = question;
layers = (
{
layerId = "89A090B5-805C-419F-B0F6-264861EF513B";
shapes = (
{
closed = 1;
nodes = (
(276.234,1236.15,l),
(336.085,1256.87,o),
(430.465,1286.79,o),
(515.637,1307.51,o),
(600.809,1316.72,o),
(649.15,1316.72,qs),
(759.644,1316.72,o),
(925.385,1252.26,o),
(1035.88,1148.67,o),
(1091.13,1010.56,o),
(1091.13,939.196,qs),
(1091.13,837.911,o),
(1003.65,702.095,o),
(877.044,614.621,o),
(732.021,563.978,o),
(674.472,547.865,q),
(674.472,409.747,l),
(561.676,409.747,l),
(561.676,633.037,l),
(566.28,635.339,o),
(596.206,642.245,o),
(607.715,644.547,q),
(665.264,658.358,o),
(794.173,697.491,o),
(900.063,764.248,o),
(971.424,867.836,o),
(971.424,946.102,qs),
(971.424,980.632,o),
(943.8,1070.41,o),
(872.44,1150.98,o),
(748.134,1203.92,o),
(651.452,1203.92,qs),
(566.28,1203.92,o),
(448.881,1171.69,o),
(391.332,1148.67,q),
(391.332,1001.35,l),
(276.234,1001.35,l)
);
},
{
closed = 1;
nodes = (
(679.076,244.007,o),
(771.154,163.439,o),
(771.154,103.588,qs),
(771.154,41.435,o),
(676.774,-39.133,o),
(612.319,-39.133,qs),
(547.865,-39.133,o),
(453.485,41.435,o),
(453.485,103.588,qs),
(453.485,163.439,o),
(545.563,244.007,o),
(612.319,244.007,qs)
);
}
);
width = 1381;
}
);
unicode = 63;
},
{
glyphname = at;
layers = (
{
layerId = "89A090B5-805C-419F-B0F6-264861EF513B";
shapes = (
{
closed = 1;
nodes = (
(1226.94,131.211,l),
(1224.64,131.211,o),
(1215.43,124.305,o),
(1213.13,124.305,q),
(1095.73,57.549,o),
(814.891,-32.227,o),
(662.962,-32.227,qs),
(511.033,-32.227,o),
(290.046,73.662,o),
(145.023,248.611,o),
(73.662,476.504,o),
(73.662,598.508,qs),
(73.662,736.625,o),
(158.835,976.028,o),
(319.971,1153.28,o),
(559.374,1256.87,o),
(711.303,1256.87,qs),
(837.911,1256.87,o),
(1054.29,1180.9,o),
(1213.13,1033.58,o),
(1305.21,819.495,o),
(1305.21,683.68,qs),
(1305.21,586.998,o),
(1256.87,423.559,o),
(1167.09,308.462,o),
(1045.09,244.007,o),
(971.424,244.007,qs),
(946.102,244.007,o),
(916.177,248.611,o),
(886.252,264.724,o),
(847.118,292.348,o),
(814.891,315.367,qs),
(796.475,329.179,o),
(789.57,349.897,o),
(789.57,361.406,q),
(775.758,345.293,o),
(736.625,303.858,o),
(681.378,264.724,o),
(612.319,239.403,o),
(570.884,239.403,qs),
(550.167,239.403,o),
(488.014,260.121,o),
(430.465,310.764,o),
(391.332,402.842,o),
(391.332,471.9,qs),
(391.332,547.865,o),
(444.277,711.303,o),
(536.355,844.816,o),
(658.358,929.989,o),
(729.719,929.989,qs),
(787.268,929.989,o),
(844.816,863.232,o),
(860.93,837.911,q),
(881.648,918.479,l),
(1001.35,918.479,l),
(902.365,559.374,l),
(902.365,550.167,o),
(879.346,471.9,o),
(879.346,444.277,qs),
(879.346,418.955,o),
(932.291,352.199,o),
(985.235,352.199,qs),
(1028.97,352.199,o),
(1104.94,407.446,o),
(1162.49,501.826,o),
(1194.71,626.131,o),
(1194.71,697.491,qs),
(1194.71,810.287,o),
(1118.75,980.632,o),
(985.235,1093.43,o),
(807.985,1148.67,o),
(706.699,1148.67,qs),
(568.582,1148.67,o),
(375.218,1051.99,o),
(250.913,897.761,o),
(193.364,699.793,o),
(193.364,596.206,qs),
(193.364,504.127,o),
(244.007,319.971,o),
(356.803,170.344,o),
(538.657,75.964,o),
(669.868,75.964,qs),
(814.891,75.964,o),
(1047.39,158.835,o),
(1127.96,202.572,qs),
(1162.49,220.987,l),
(1164.79,220.987,o),
(1176.3,227.893,o),
(1178.6,227.893,q)
);
},
{
closed = 1;
nodes = (
(626.131,352.199,o),
(704.397,423.559,o),
(764.248,527.147,o),
(798.777,649.15,o),
(798.777,699.793,qs),
(798.777,752.738,o),
(748.134,814.891,o),
(715.907,814.891,qs),
(676.774,814.891,o),
(600.809,743.53,o),
(543.261,637.641,o),
(508.731,513.335,o),
(508.731,462.692,qs),
(508.731,446.579,o),
(515.637,409.747,o),
(534.053,375.218,o),
(561.676,352.199,o),
(582.394,352.199,qs)
);
}
);
width = 1381;
}
);
unicode = 64;
},
{
glyphname = A;
layers = (
{
layerId = "89A090B5-805C-419F-B0F6-264861EF513B";
shapes = (
{
closed = 1;
nodes = (
(1241,108,l),
(1358,108,l),
(1358,0,l),
(886,0,l),
(886,108,l),
(1121,108,l),
(990,428,l),
(389,428,l),
(260,108,l),
(495,108,l),
(495,0,l),
(23,0,l),
(23,108,l),
(145,108,l),
(589,1188,l),
(260,1188,l),
(260,1296,l),
(755,1296,l)
);
},
{
closed = 1;
nodes = (
(430,529,l),
(951,529,l),
(691,1160,l)
);
}
);
width = 1381;
}
);
unicode = 65;
},
{
glyphname = B;
layers = (
{
layerId = "89A090B5-805C-419F-B0F6-264861EF513B";
shapes = (
{
closed = 1;
nodes = (
(732.021,1296,ls),
(867.836,1296,o),
(1015.16,1243.05,o),
(1111.84,1155.58,o),
(1171.69,1035.88,o),
(1171.69,962.216,qs),
(1171.69,900.063,o),
(1132.56,803.381,o),
(1075.01,734.323,o),
(1012.86,688.284,o),
(989.839,676.774,q),
(1114.14,639.943,o),
(1252.26,478.806,o),
(1252.26,354.501,qs),
(1252.26,257.819,o),
(1162.49,103.588,o),
(1088.82,64.455,qs),
(1051.99,43.737,o),
(982.934,18.416,o),
(897.761,4.604,o),
(789.57,0,o),
(711.303,0,qs),
(103.588,0,l),
(103.588,108.192,l),
(294.65,108.192,l),
(294.65,1187.81,l),
(103.588,1187.81,l),
(103.588,1296,l)
);
},
{
closed = 1;
nodes = (
(409.747,727.417,l),
(715.907,727.417,ls),
(828.703,727.417,o),
(962.216,782.664,o),
(1031.27,858.628,o),
(1051.99,939.196,o),
(1051.99,966.82,qs),
(1051.99,1049.69,o),
(964.518,1139.47,o),
(851.722,1180.9,o),
(745.832,1187.81,o),
(727.417,1187.81,qs),
(409.747,1187.81,l)
);
},
{
closed = 1;
nodes = (
(409.747,108.192,l),
(706.699,108.192,ls),
(768.852,108.192,o),
(916.177,115.098,o),
(1045.09,161.137,o),
(1132.56,260.121,o),
(1132.56,354.501,qs),
(1132.56,425.861,o),
(1065.8,527.147,o),
(950.706,589.3,o),
(789.57,619.225,o),
(697.491,619.225,qs),
(409.747,619.225,l)
);
}
);
width = 1381;
}
);
unicode = 66;
},
{
glyphname = C;
layers = (
{
layerId = "89A090B5-805C-419F-B0F6-264861EF513B";
shapes = (
{
closed = 1;
nodes = (
(1367,228,l),
(1271,136,o),
(1087,30,o),
(928,-25,o),
(803,-39,o),
(769,-39,qs),
(617,-39,o),
(384,74,o),
(228,267,o),
(147,520,o),
(147,663,qs),
(147,813,o),
(242,1061,o),
(407,1238,o),
(633,1335,o),
(764,1335,qs),
(833,1335,o),
(937,1310,o),
(1011,1275,o),
(1052,1243,o),
(1059,1236,q),
(1082,1218,o),
(1093,1211,o),
(1098,1211,qs),
(1105,1211,o),
(1116,1234,o),
(1123,1268,o),
(1130,1305,o),
(1133,1321,q),
(1218,1321,l),
(1213,1176,o),
(1229,974,o),
(1241,882,q),
(1133,863,l),
(1126,902,o),
(1096,1024,o),
(1057,1084,qs),
(1024,1133,o),
(886,1220,o),
(760,1220,qs),
(645,1220,o),
(465,1133,o),
(338,981,o),
(272,778,o),
(272,665,qs),
(272,578,o),
(315,373,o),
(428,196,o),
(619,76,o),
(769,76,qs),
(925,76,o),
(1179,212,o),
(1291,311,q)
);
}
);
width = 1381;
}
);
unicode = 67;
},
{
glyphname = D;
layers = (
{
layerId = "89A090B5-805C-419F-B0F6-264861EF513B";
shapes = (
{
closed = 1;
nodes = (
(653.754,1296,ls),
(729.719,1296,o),
(860.93,1284.49,o),
(973.726,1249.96,o),
(1077.31,1180.9,o),
(1125.65,1123.35,qs),
(1176.3,1061.2,o),
(1233.85,927.687,o),
(1261.47,803.381,o),
(1268.38,702.095,o),
(1268.38,672.17,qs),
(1268.38,464.994,o),
(1150.98,204.874,o),
(1077.31,133.513,qs),
(1024.37,82.87,o),
(900.063,29.925,o),
(780.362,4.604,o),
(676.774,0,o),
(644.547,0,qs),
(78.266,0,l),
(78.266,108.192,l),
(260.121,108.192,l),
(260.121,1187.81,l),
(78.266,1187.81,l),
(78.266,1296,l)
);
},
{
closed = 1;
nodes = (
(375.218,108.192,l),
(644.547,108.192,ls),
(674.472,108.192,o),
(757.342,110.494,o),
(851.722,131.211,o),
(948.404,174.948,o),
(989.839,216.383,qs),
(1051.99,278.536,o),
(1144.07,506.429,o),
(1144.07,665.264,q),
(1141.77,773.456,o),
(1102.64,925.385,o),
(1047.39,1028.97,o),
(985.235,1095.73,o),
(959.914,1116.45,q),
(900.063,1162.49,o),
(755.04,1187.81,o),
(656.056,1187.81,qs),
(375.218,1187.81,l)
);
}
);
width = 1381;
}
);
unicode = 68;
},
{
glyphname = E;
layers = (
{
layerId = "89A090B5-805C-419F-B0F6-264861EF513B";
shapes = (
{
closed = 1;
nodes = (
(1234,872,l),
(1128,872,l),
(1105,1188,l),
(442,1188,l),
(442,739,l),
(815,739,l),
(815,907,l),
(921,907,l),
(921,465,l),
(815,465,l),
(815,631,l),
(442,631,l),
(442,108,l),
(1128,108,l),
(1139,424,l),
(1245,424,l),
(1245,0,l),
(131,0,l),
(131,108,l),
(327,108,l),
(327,1188,l),
(131,1188,l),
(131,1296,l),
(1225,1296,l)
);
}
);
width = 1381;
}
);
unicode = 69;
},
{
glyphname = F;
layers = (
{
layerId = "89A090B5-805C-419F-B0F6-264861EF513B";
shapes = (
{
closed = 1;
nodes = (
(1256.87,881.648,l),
(1153.28,881.648,l),
(1125.65,1187.81,l),
(467.296,1187.81,l),
(467.296,738.927,l),
(840.212,738.927,l),
(840.212,906.969,l),
(946.102,906.969,l),
(946.102,464.994,l),
(840.212,464.994,l),
(840.212,630.735,l),
(467.296,630.735,l),
(467.296,108.192,l),
(766.55,108.192,l),
(766.55,0,l),
(165.741,0,l),
(165.741,108.192,l),
(352.199,108.192,l),
(352.199,1187.81,l),
(165.741,1187.81,l),
(165.741,1296,l),
(1245.36,1296,l)
);
}
);
width = 1381;
}
);
unicode = 70;
},
{
glyphname = G;
layers = (
{
layerId = "89A090B5-805C-419F-B0F6-264861EF513B";
shapes = (
{
closed = 1;
nodes = (
(1202,1321,l),
(1199,1314,o),
(1197,1282,o),
(1197,1278,qs),
(1197,1268,o),
(1195,1225,o),
(1190,1169,o),
(1188,1114,o),
(1188,1091,qs),
(1188,1034,o),
(1197,923,o),
(1202,882,q),
(1103,863,l),
(1096,902,o),
(1066,1024,o),
(985,1137,o),
(840,1220,o),
(718,1220,qs),
(617,1220,o),
(442,1135,o),
(311,983,o),
(235,771,o),
(235,645,qs),
(235,527,o),
(297,320,o),
(426,166,o),
(619,76,o),
(750,76,qs),
(808,76,o),
(967,104,o),
(1103,150,q),
(1103,460,l),
(762,460,l),
(762,569,l),
(1331,569,l),
(1331,460,l),
(1220,460,l),
(1220,74,l),
(958,-39,o),
(748,-39,qs),
(571,-39,o),
(327,87,o),
(177,288,o),
(110,527,o),
(110,642,qs),
(110,776,o),
(191,1024,o),
(348,1218,o),
(575,1335,o),
(723,1335,qs),
(806,1335,o),
(944,1289,o),
(1011,1236,q),
(1029,1218,o),
(1047,1209,o),
(1057,1209,qs),
(1075,1209,o),
(1082,1245,o),
(1091,1321,q)
);
}
);
width = 1381;
}
);
unicode = 71;
},
{
glyphname = H;
layers = (
{
layerId = "89A090B5-805C-419F-B0F6-264861EF513B";
shapes = (
{
closed = 1;
nodes = (
(550,1188,l),
(378,1188,l),
(378,723,l),
(1004,723,l),
(1004,1188,l),
(831,1188,l),
(831,1296,l),
(1294,1296,l),
(1294,1188,l),
(1119,1188,l),
(1119,108,l),
(1294,108,l),
(1294,0,l),
(831,0,l),
(831,108,l),
(1004,108,l),
(1004,615,l),
(378,615,l),
(378,108,l),
(550,108,l),
(550,0,l),
(90,0,l),
(90,108,l),
(262,108,l),
(262,1188,l),
(90,1188,l),
(90,1296,l),
(550,1296,l)
);
}
);
width = 1381;
}
);
unicode = 72;
},
{
glyphname = I;
layers = (
{
layerId = "89A090B5-805C-419F-B0F6-264861EF513B";
shapes = (
{
closed = 1;
nodes = (
(1151,1188,l),
(748,1188,l),
(748,108,l),
(1151,108,l),
(1151,0,l),
(230,0,l),
(230,108,l),
(633,108,l),
(633,1188,l),
(230,1188,l),
(230,1296,l),
(1151,1296,l)
);
}
);
width = 1381;
}
);
unicode = 73;
},
{
glyphname = J;
layers = (
{
layerId = "89A090B5-805C-419F-B0F6-264861EF513B";
shapes = (
{
closed = 1;
nodes = (
(1332.83,1187.81,l),
(1040.48,1187.81,l),
(1040.48,469.598,ls),
(1040.48,372.916,o),
(1019.76,179.552,o),
(973.726,108.192,q),
(946.102,69.059,o),
(867.836,11.51,o),
(784.966,-23.02,o),
(699.793,-39.133,o),
(662.962,-39.133,qs),
(524.845,-39.133,o),
(296.952,46.039,o),
(200.27,89.776,q),
(156.533,108.192,l),
(135.815,605.413,l),
(248.611,605.413,l),
(257.819,382.124,ls),
(260.121,294.65,o),
(296.952,188.76,o),
(366.01,147.325,qs),
(432.767,105.89,o),
(577.79,75.964,o),
(637.641,75.964,qs),
(743.53,75.964,o),
(860.93,147.325,o),
(916.177,260.121,o),
(925.385,400.54,o),
(925.385,469.598,qs),
(925.385,1187.81,l),
(471.9,1187.81,l),
(471.9,1296,l),
(1332.83,1296,l)
);
}
);
width = 1381;
}
);
unicode = 74;
},
{
glyphname = K;
layers = (
{
layerId = "89A090B5-805C-419F-B0F6-264861EF513B";
shapes = (
{
closed = 1;
nodes = (
(642,1188,l),
(447,1188,l),
(447,624,l),
(1027,1188,l),
(838,1188,l),
(838,1296,l),
(1287,1296,l),
(1287,1188,l),
(1183,1188,l),
(684,702,l),
(727,679,o),
(831,605,o),
(946,472,o),
(1073,265,o),
(1142,108,q),
(1354,108,l),
(1354,0,l),
(1059,0,l),
(1022,97,o),
(935,269,o),
(909,311,q),
(843,426,o),
(707,573,o),
(605,624,q),
(447,472,l),
(447,108,l),
(642,108,l),
(642,0,l),
(138,0,l),
(138,108,l),
(331,108,l),
(331,1188,l),
(138,1188,l),
(138,1296,l),
(642,1296,l)
);
}
);
width = 1381;
}
);
unicode = 75;
},
{
glyphname = L;
layers = (
{
layerId = "89A090B5-805C-419F-B0F6-264861EF513B";
shapes = (
{
closed = 1;
nodes = (
(764,1188,l),
(481,1188,l),
(481,108,l),
(1133,108,l),
(1165,573,l),
(1273,573,l),
(1248,0,l),
(136,0,l),
(136,108,l),
(366,108,l),
(366,1188,l),
(136,1188,l),
(136,1296,l),
(764,1296,l)
);
}
);
width = 1381;
}
);
unicode = 76;
},
{
glyphname = M;
layers = (
{
layerId = "89A090B5-805C-419F-B0F6-264861EF513B";
shapes = (
{
closed = 1;
nodes = (
(665.264,515.637,l),
(706.699,515.637,l),
(992.141,1296,l),
(1362.76,1296,l),
(1362.76,1187.81,l),
(1199.32,1187.81,l),
(1238.45,108.192,l),
(1378.87,108.192,l),
(1378.87,0,l),
(890.855,0,l),
(890.855,108.192,l),
(1137.16,108.192,l),
(1102.64,1187.81,l),
(1061.2,1187.81,l),
(738.927,331.481,l),
(619.225,331.481,l),
(319.971,1187.81,l),
(278.536,1187.81,l),
(244.007,108.192,l),
(490.316,108.192,l),
(490.316,0,l),
(2.302,0,l),
(2.302,108.192,l),
(142.721,108.192,l),
(181.854,1187.81,l),
(18.416,1187.81,l),
(18.416,1296,l),
(402.842,1296,l)
);
}
);
width = 1381;
}
);
unicode = 77;
},
{
glyphname = N;
layers = (
{
layerId = "89A090B5-805C-419F-B0F6-264861EF513B";
shapes = (
{
closed = 1;
nodes = (
(1064,97,l),
(1105,97,l),
(1105,1188,l),
(847,1188,l),
(847,1296,l),
(1360,1296,l),
(1360,1188,l),
(1211,1188,l),
(1211,-30,l),
(1006,-30,l),
(389,1188,l),
(350,1188,l),
(350,108,l),
(610,108,l),
(610,0,l),
(64,0,l),
(64,108,l),
(244,108,l),
(244,1188,l),
(64,1188,l),
(64,1296,l),
(458,1296,l)
);
}
);
width = 1381;
}
);
unicode = 78;
},
{
glyphname = O;
layers = (
{
layerId = "89A090B5-805C-419F-B0F6-264861EF513B";
shapes = (
{
closed = 1;
nodes = (
(99,790,o),
(182,1040,o),
(336,1227,o),
(555,1335,o),
(691,1335,qs),
(829,1335,o),
(1047,1225,o),
(1202,1036,o),
(1282,787,o),
(1282,647,qs),
(1282,509,o),
(1199,258,o),
(1047,71,o),
(829,-39,o),
(691,-39,qs),
(555,-39,o),
(336,69,o),
(182,256,o),
(99,504,o),
(99,647,qs)
);
},
{
closed = 1;
nodes = (
(223,546,o),
(283,341,o),
(401,177,o),
(575,76,o),
(691,76,qs),
(803,76,o),
(978,175,o),
(1098,336,o),
(1158,541,o),
(1158,649,qs),
(1158,757,o),
(1096,965,o),
(976,1123,o),
(803,1220,o),
(691,1220,qs),
(571,1220,o),
(396,1116,o),
(281,953,o),
(223,748,o),
(223,649,qs)
);
}
);
width = 1381;
}
);
unicode = 79;
},
{
glyphname = P;
layers = (
{
layerId = "89A090B5-805C-419F-B0F6-264861EF513B";
shapes = (
{
closed = 1;
nodes = (
(690.586,1296,ls),
(814.891,1296,o),
(969.122,1270.68,o),
(1031.27,1236.15,qs),
(1118.75,1187.81,o),
(1229.24,999.047,o),
(1229.24,893.157,qs),
(1229.24,844.816,o),
(1203.92,750.436,o),
(1160.18,667.566,o),
(1098.03,598.508,o),
(1061.2,577.79,q),
(1019.76,552.468,o),
(939.196,524.845,o),
(837.911,511.033,o),
(697.491,508.731,o),
(593.904,508.731,qs),
(464.994,508.731,l),
(464.994,108.192,l),
(803.381,108.192,l),
(803.381,0,l),
(163.439,0,l),
(163.439,108.192,l),
(349.897,108.192,l),
(349.897,1187.81,l),
(163.439,1187.81,l),
(163.439,1296,l)
);
},
{
closed = 1;
nodes = (
(464.994,616.923,l),
(596.206,616.923,ls),
(736.625,616.923,o),
(948.404,630.735,o),
(1008.25,679.076,qs),
(1040.48,704.397,o),
(1104.94,814.891,o),
(1104.94,897.761,qs),
(1104.94,992.141,o),
(1012.86,1118.75,o),
(966.82,1141.77,q),
(946.102,1153.28,o),
(900.063,1169.39,o),
(837.911,1180.9,o),
(752.738,1187.81,o),
(690.586,1187.81,qs),
(464.994,1187.81,l)
);
}
);
width = 1381;
}
);
unicode = 80;
},
{
glyphname = Q;
layers = (
{
layerId = "89A090B5-805C-419F-B0F6-264861EF513B";
shapes = (
{
closed = 1;
nodes = (
(1259.17,-202.572,l),
(1220.03,-230.195,o),
(1107.24,-294.65,o),
(1026.67,-294.65,qs),
(973.726,-294.65,o),
(890.855,-264.724,o),
(771.154,-214.082,o),
(695.19,-193.364,o),
(651.452,-193.364,qs),
(575.488,-193.364,o),
(460.39,-241.705,o),
(379.822,-287.744,q),
(326.877,-202.572,l),
(368.312,-174.948,o),
(437.371,-112.796,o),
(488.014,-59.851,o),
(517.939,-20.718,o),
(522.543,-16.114,q),
(425.861,13.812,o),
(269.328,140.419,o),
(158.835,313.065,o),
(98.984,527.147,o),
(98.984,646.849,qs),
(98.984,810.287,o),
(195.666,1065.8,o),
(359.105,1243.05,o),
(573.186,1335.13,o),
(688.284,1335.13,qs),
(812.589,1335.13,o),
(1028.97,1236.15,o),
(1190.11,1054.29,o),
(1282.19,796.475,o),
(1282.19,637.641,qs),
(1282.19,520.241,o),
(1220.03,278.536,o),
(1072.71,80.568,o),
(831.005,-41.435,o),
(651.452,-39.133,q),
(642.245,-50.643,o),
(633.037,-59.851,o),
(614.621,-78.266,q),
(612.319,-82.87,o),
(607.715,-87.474,o),
(610.017,-82.87,q),
(605.413,-82.87,l),
(605.413,-87.474,l),
(616.923,-87.474,o),
(637.641,-85.172,o),
(656.056,-85.172,qs),
(697.491,-85.172,o),
(798.777,-105.89,o),
(858.628,-131.211,q),
(900.063,-147.325,o),
(948.404,-165.741,o),
(980.632,-177.25,o),
(1003.65,-179.552,o),
(1017.46,-179.552,qs),
(1075.01,-179.552,o),
(1155.58,-140.419,o),
(1187.81,-119.702,q)
);
},
{
closed = 1;
nodes = (
(223.289,545.563,o),
(283.14,340.689,o),
(400.54,177.25,o),
(575.488,75.964,o),
(690.586,75.964,qs),
(803.381,75.964,o),
(978.33,174.948,o),
(1098.03,336.085,o),
(1157.88,540.959,o),
(1157.88,649.15,qs),
(1157.88,757.342,o),
(1095.73,964.518,o),
(976.028,1123.35,o),
(803.381,1220.03,o),
(690.586,1220.03,qs),
(570.884,1220.03,o),
(395.936,1116.45,o),
(280.838,953.008,o),
(223.289,748.134,o),
(223.289,649.15,qs)
);
}
);
width = 1381;
}
);
unicode = 81;
},
{
glyphname = R;
layers = (
{
layerId = "89A090B5-805C-419F-B0F6-264861EF513B";
shapes = (
{
closed = 1;
nodes = (
(695.19,1296,ls),
(805.683,1296,o),
(948.404,1275.28,o),
(1068.11,1192.41,o),
(1148.67,1033.58,o),
(1148.67,948.404,qs),
(1148.67,897.761,o),
(1114.14,782.664,o),
(1031.27,681.378,o),
(895.459,605.413,o),
(796.475,596.206,q),
(826.401,563.978,o),
(911.573,446.579,o),
(1001.35,308.462,o),
(1091.13,163.439,o),
(1125.65,108.192,q),
(1328.23,108.192,l),
(1328.23,0,l),
(1040.48,0,l),
(1012.86,57.549,o),
(946.102,181.854,o),
(883.95,290.046,o),
(831.005,375.218,o),
(819.495,393.634,qs),
(784.966,446.579,o),
(734.323,522.543,o),
(681.378,570.884,o),
(619.225,593.904,o),
(573.186,593.904,qs),
(407.446,593.904,l),
(407.446,108.192,l),
(612.319,108.192,l),
(612.319,0,l),
(103.588,0,l),
(103.588,108.192,l),
(292.348,108.192,l),
(292.348,1187.81,l),
(103.588,1187.81,l),
(103.588,1296,l)
);
},
{
closed = 1;
nodes = (
(407.446,702.095,l),
(621.527,702.095,ls),
(667.566,702.095,o),
(805.683,709,o),
(932.291,755.039,o),
(1024.37,858.627,o),
(1024.37,955.309,qs),
(1024.37,1012.859,o),
(973.726,1116.449,o),
(927.687,1148.669,qs),
(913.875,1157.879,o),
(883.95,1171.689,o),
(833.307,1180.899,o),
(752.738,1187.809,o),
(690.586,1187.809,qs),
(407.446,1187.809,l)
);
}
);
width = 1381;
}
);
unicode = 82;
},
{
glyphname = S;
layers = (
{
layerId = "89A090B5-805C-419F-B0F6-264861EF513B";
shapes = (
{
closed = 1;
nodes = (
(1167.09,1321.32,l),
(1155.58,1268.38,o),
(1146.37,1199.32,o),
(1146.37,1155.58,qs),
(1146.37,1116.45,o),
(1155.58,980.632,o),
(1167.09,881.648,q),
(1063.5,863.232,l),
(1058.9,900.063,o),
(1031.27,1019.76,o),
(992.141,1079.62,qs),
(978.33,1100.33,o),
(934.593,1148.67,o),
(865.534,1190.11,o),
(768.852,1220.03,o),
(699.793,1220.03,qs),
(610.017,1220.03,o),
(478.806,1167.09,o),
(393.634,1086.52,o),
(352.199,992.141,o),
(352.199,948.404,qs),
(352.199,867.836,o),
(430.465,775.758,o),
(540.959,725.115,o),
(660.66,706.699,o),
(702.095,702.095,qs),
(831.005,688.284,o),
(978.33,658.358,o),
(1098.03,580.092,o),
(1180.9,451.183,o),
(1180.9,352.199,qs),
(1180.9,250.913,o),
(1095.73,103.588,o),
(962.216,6.906,o),
(794.173,-39.133,o),
(709,-39.133,qs),
(639.942,-39.133,o),
(536.354,-16.114,o),
(460.389,18.416,o),
(409.746,52.945,o),
(393.633,66.757,q),
(391.331,69.059,o),
(379.821,75.964,o),
(375.217,75.964,qs),
(368.311,75.964,o),
(356.802,62.153,o),
(352.198,57.549,q),
(347.594,41.435,o),
(340.688,11.51,o),
(331.48,-46.039,q),
(227.892,-46.039,l),
(239.402,9.208,o),
(248.61,110.494,o),
(248.61,135.815,qs),
(248.61,158.835,ls),
(248.61,177.25,o),
(244.006,239.403,o),
(237.1,310.764,o),
(230.194,377.52,o),
(227.892,402.842,q),
(331.48,402.842,l),
(340.688,359.105,o),
(370.613,248.611,o),
(409.746,197.968,qs),
(441.974,156.533,o),
(568.581,75.964,o),
(692.887,75.964,qs),
(798.776,75.964,o),
(939.195,126.607,o),
(1022.069,204.874,o),
(1056.599,299.254,o),
(1056.599,342.991,qs),
(1056.599,418.955,o),
(989.838,508.731,o),
(893.156,557.072,o),
(780.361,575.488,o),
(736.624,580.092,qs),
(669.867,586.998,o),
(492.617,614.621,o),
(336.084,688.284,o),
(227.892,824.099,o),
(227.892,939.196,qs),
(227.892,1017.46,o),
(296.951,1160.18,o),
(418.954,1270.68,o),
(586.997,1335.13,o),
(685.981,1335.13,qs),
(748.133,1335.13,o),
(844.815,1312.11,o),
(913.874,1282.19,o),
(959.913,1249.96,o),
(971.423,1240.75,q),
(999.046,1220.03,o),
(1017.459,1208.52,o),
(1024.369,1208.52,qs),
(1040.479,1208.52,o),
(1047.389,1236.15,o),
(1058.899,1291.4,qs),
(1063.499,1314.41,o),
(1063.499,1321.32,q)
);
}
);
width = 1381;
}
);
unicode = 83;
},
{
glyphname = T;
layers = (
{
layerId = "89A090B5-805C-419F-B0F6-264861EF513B";
shapes = (
{
closed = 1;
nodes = (
(1282.19,752.738,l),
(1171.69,738.927,l),
(1139.47,1187.81,l),
(748.134,1187.81,l),
(748.134,108.192,l),
(1026.67,108.192,l),
(1026.67,0,l),
(354.501,0,l),
(354.501,108.192,l),
(633.037,108.192,l),
(633.037,1187.81,l),
(241.705,1187.81,l),
(209.478,738.927,l),
(98.984,752.738,l),
(138.117,1296,l),
(1243.05,1296,l)
);
}
);
width = 1381;
}
);
unicode = 84;
},
{
glyphname = U;
layers = (
{
layerId = "89A090B5-805C-419F-B0F6-264861EF513B";
shapes = (
{
closed = 1;
nodes = (
(571,1188,l),
(336,1188,l),
(336,539,ls),
(336,467,o),
(348,306,o),
(380,239,qs),
(412,170,o),
(555,76,o),
(688,76,qs),
(824,76,o),
(969,157,o),
(1001,221,q),
(1036,283,o),
(1047,437,o),
(1047,516,qs),
(1047,1188,l),
(813,1188,l),
(813,1296,l),
(1328,1296,l),
(1328,1188,l),
(1162,1188,l),
(1162,516,ls),
(1162,428,o),
(1151,306,o),
(1128,216,o),
(1098,154,o),
(1080,129,q),
(1061,101,o),
(992,44,o),
(893,-7,o),
(767,-39,o),
(691,-39,qs),
(649,-39,o),
(546,-25,o),
(440,16,o),
(338,85,o),
(299,140,qs),
(269,182,o),
(237,288,o),
(223,396,o),
(221,500,o),
(221,539,qs),
(221,1188,l),
(55,1188,l),
(55,1296,l),
(571,1296,l)
);
}
);
width = 1381;
}
);
unicode = 85;
},
{
glyphname = V;
layers = (
{
layerId = "89A090B5-805C-419F-B0F6-264861EF513B";
shapes = (
{
closed = 1;
nodes = (
(506,1188,l),
(290,1188,l),
(697,129,l),
(1112,1188,l),
(877,1188,l),
(877,1296,l),
(1367,1296,l),
(1367,1188,l),
(1222,1188,l),
(767,0,l),
(624,0,l),
(173,1188,l),
(14,1188,l),
(14,1296,l),
(506,1296,l)
);
}
);
width = 1381;
}
);
unicode = 86;
},
{
glyphname = W;
layers = (
{
layerId = "89A090B5-805C-419F-B0F6-264861EF513B";
shapes = (
{
closed = 1;
nodes = (
(458.088,1187.81,l),
(225.591,1187.81,l),
(354.501,220.987,l),
(359.105,220.987,l),
(656.056,1058.9,l),
(734.323,1058.9,l),
(1024.37,220.987,l),
(1028.97,220.987,l),
(1162.49,1187.81,l),
(927.687,1187.81,l),
(927.687,1296,l),
(1376.57,1296,l),
(1376.57,1187.81,l),
(1270.68,1187.81,l),
(1098.03,0,l),
(982.934,0,l),
(690.586,837.911,l),
(685.982,837.911,l),
(389.03,0,l),
(273.932,0,l),
(112.796,1187.81,l),
(4.604,1187.81,l),
(4.604,1296,l),
(458.088,1296,l)
);
}
);
width = 1381;
}
);
unicode = 87;
},
{
glyphname = X;
layers = (
{
layerId = "89A090B5-805C-419F-B0F6-264861EF513B";
shapes = (
{
closed = 1;
nodes = (
(566.28,1187.81,l),
(377.52,1187.81,l),
(692.888,766.55,l),
(1015.16,1187.81,l),
(840.212,1187.81,l),
(840.212,1296,l),
(1261.47,1296,l),
(1261.47,1187.81,l),
(1144.07,1187.81,l),
(757.342,681.378,l),
(1185.51,108.192,l),
(1305.21,108.192,l),
(1305.21,0,l),
(840.212,0,l),
(840.212,108.192,l),
(1047.39,108.192,l),
(692.888,596.206,l),
(322.273,108.192,l),
(566.28,108.192,l),
(566.28,0,l),
(75.964,0,l),
(75.964,108.192,l),
(193.364,108.192,l),
(628.433,681.378,l),
(241.705,1187.81,l),
(119.702,1187.81,l),
(119.702,1296,l),
(566.28,1296,l)
);
}
);
width = 1381;
}
);
unicode = 88;
},
{
glyphname = Y;
layers = (
{
layerId = "89A090B5-805C-419F-B0F6-264861EF513B";
shapes = (
{
closed = 1;
nodes = (
(525,1188,l),
(350,1188,l),
(697,617,l),
(1040,1188,l),
(861,1188,l),
(861,1296,l),
(1308,1296,l),
(1308,1188,l),
(1162,1188,l),
(750,502,l),
(750,108,l),
(1022,108,l),
(1022,0,l),
(361,0,l),
(361,108,l),
(635,108,l),
(635,502,l),
(219,1188,l),
(74,1188,l),
(74,1296,l),
(525,1296,l)
);
}
);
width = 1381;
}
);
unicode = 89;
},
{
glyphname = Z;
layers = (
{
layerId = "89A090B5-805C-419F-B0F6-264861EF513B";
shapes = (
{
closed = 1;
nodes = (
(1134.86,1201.62,l),
(331.481,108.192,l),
(1079.62,108.192,l),
(1079.62,481.108,l),
(1187.81,481.108,l),
(1187.81,0,l),
(193.364,0,l),
(193.364,108.192,l),
(987.537,1187.81,l),
(317.669,1187.81,l),
(317.669,851.722,l),
(209.478,851.722,l),
(209.478,1296,l),
(1134.86,1296,l)
);
}
);
width = 1381;
}
);
unicode = 90;
},
{
glyphname = bracketleft;
layers = (
{
layerId = "89A090B5-805C-419F-B0F6-264861EF513B";
shapes = (
{
closed = 1;
nodes = (
(1116.45,1390.38,l),
(826.401,1390.38,l),
(826.401,-101.286,l),
(1116.45,-101.286,l),
(1116.45,-216.383,l),
(711.303,-216.383,l),
(711.303,1505.48,l),
(1116.45,1505.48,l)
);
}
);
width = 1381;
}
);
unicode = 91;
},
{
glyphname = backslash;
layers = (
{
layerId = "89A090B5-805C-419F-B0F6-264861EF513B";
shapes = (
{
closed = 1;
nodes = (
(1077.31,-319.971,l),
(214.082,1579.14,l),
(313.065,1622.88,l),
(1176.3,-273.932,l)
);
}
);
width = 1381;
}
);
unicode = 92;
},
{
glyphname = bracketright;
layers = (
{
layerId = "89A090B5-805C-419F-B0F6-264861EF513B";
shapes = (
{
closed = 1;
nodes = (
(264.724,-101.286,l),
(554.77,-101.286,l),
(554.77,1390.38,l),
(264.724,1390.38,l),
(264.724,1505.48,l),
(669.868,1505.48,l),
(669.868,-216.383,l),
(264.724,-216.383,l)
);
}
);
width = 1381;
}
);
unicode = 93;
},
{
glyphname = asciicircum;
layers = (
{
layerId = "89A090B5-805C-419F-B0F6-264861EF513B";
shapes = (
{
closed = 1;
nodes = (
(168.042,354.501,l),
(605.413,1296,l),
(775.758,1296,l),
(1213.13,354.501,l),
(1065.8,354.501,l),
(690.586,1157.88,l),
(315.367,354.501,l)
);
}
);
width = 1381;
}
);
unicode = 94;
},
{
glyphname = underscore;
layers = (
{
layerId = "89A090B5-805C-419F-B0F6-264861EF513B";
shapes = (
{
closed = 1;
nodes = (
(1491.66,-287.744,l),
(-110.494,-287.744,l),
(-110.494,-172.646,l),
(1491.66,-172.646,l)
);
}
);
width = 1381;
}
);
unicode = 95;
},
{
glyphname = grave;
layers = (
{
layerId = "89A090B5-805C-419F-B0F6-264861EF513B";
shapes = (
{
closed = 1;
nodes = (
(861,1158,l),
(741,1158,l),
(437,1423,l),
(684,1423,l)
);
}
);
width = 1381;
}
);
unicode = 96;
},
{
glyphname = a;
layers = (
{
layerId = "89A090B5-805C-419F-B0F6-264861EF513B";
shapes = (
{
closed = 1;
nodes = (
(1266,108,l),
(1266,0,l),
(946,0,l),
(946,166,l),
(912,134,o),
(817,62,o),
(707,5,o),
(578,-32,o),
(506,-32,qs),
(419,-32,o),
(283,25,o),
(186,117,o),
(136,232,o),
(136,292,qs),
(136,338,o),
(182,458,o),
(292,566,o),
(481,640,o),
(624,640,qs),
(631,640,o),
(695,638,o),
(785,631,o),
(893,619,o),
(946,610,q),
(946,681,ls),
(946,709,o),
(937,792,o),
(886,870,o),
(771,925,o),
(668,925,qs),
(605,925,o),
(412,889,o),
(274,829,q),
(230,932,l),
(304,965,o),
(532,1036,o),
(670,1036,qs),
(817,1036,o),
(976,951,o),
(1050,833,o),
(1061,716,o),
(1061,681,qs),
(1061,108,l)
);
},
{
closed = 1;
nodes = (
(946,504,l),
(907,511,o),
(744,529,o),
(647,529,qs),
(504,529,o),
(348,463,o),
(274,378,o),
(260,299,o),
(260,290,qs),
(260,246,o),
(299,170,o),
(368,113,o),
(456,78,o),
(504,78,qs),
(532,78,o),
(622,92,o),
(737,140,o),
(872,237,o),
(946,320,q)
);
}
);
width = 1381;
}
);
unicode = 97;
},
{
glyphname = b;
layers = (
{
layerId = "89A090B5-805C-419F-B0F6-264861EF513B";
shapes = (
{
closed = 1;
nodes = (
(338.387,796.475,l),
(342.991,796.475,l),
(414.351,893.157,o),
(610.017,999.047,o),
(736.625,999.047,qs),
(842.514,999.047,o),
(1031.27,918.479,o),
(1171.69,780.362,o),
(1252.26,591.602,o),
(1252.26,485.712,qs),
(1252.26,389.03,o),
(1178.6,207.176,o),
(1045.09,64.455,o),
(858.628,-23.02,o),
(745.832,-23.02,qs),
(651.452,-23.02,o),
(517.939,23.02,o),
(421.257,85.172,o),
(359.105,154.231,o),
(338.387,177.25,q),
(338.387,0,l),
(39.133,0,l),
(39.133,108.192,l),
(223.289,108.192,l),
(223.289,1330.53,l),
(11.51,1319.02,l),
(11.51,1427.21,l),
(338.387,1447.93,l)
);
},
{
closed = 1;
nodes = (
(340.689,409.747,o),
(402.842,264.724,o),
(508.731,156.533,o),
(656.056,92.078,o),
(743.53,92.078,qs),
(828.703,92.078,o),
(971.424,156.533,o),
(1072.71,267.026,o),
(1127.96,409.747,o),
(1127.96,488.014,qs),
(1127.96,566.28,o),
(1070.41,711.303,o),
(966.82,819.495,o),
(824.099,883.95,o),
(741.229,883.95,qs),
(656.056,883.95,o),
(511.033,819.495,o),
(402.842,711.303,o),
(340.689,568.582,o),
(340.689,490.316,qs)
);
}
);
width = 1381;
}
);
unicode = 98;
},
{
glyphname = c;
layers = (
{
layerId = "89A090B5-805C-419F-B0F6-264861EF513B";
shapes = (
{
closed = 1;
nodes = (
(1204,1008,l),
(1199,974,o),
(1183,856,o),
(1183,796,qs),
(1183,734,o),
(1190,645,q),
(1084,628,l),
(1075,668,l),
(1068,691,o),
(1040,773,o),
(969,852,o),
(836,909,o),
(725,909,qs),
(615,909,o),
(449,838,o),
(341,721,o),
(288,573,o),
(288,500,qs),
(288,428,o),
(336,281,o),
(440,159,o),
(601,83,o),
(716,83,qs),
(840,83,o),
(1077,191,o),
(1204,279,q),
(1264,191,l),
(1227,163,o),
(1114,87,o),
(971,16,o),
(801,-32,o),
(704,-32,qs),
(582,-32,o),
(384,51,o),
(242,196,o),
(163,387,o),
(163,497,qs),
(163,589,o),
(230,778,o),
(366,930,o),
(573,1024,o),
(714,1024,qs),
(780,1024,o),
(948,985,o),
(1052,902,q),
(1059,895,o),
(1061,895,q),
(1070,895,o),
(1082,935,o),
(1084,946,q),
(1087,974,o),
(1098,1020,q)
);
}
);
width = 1381;
}
);
unicode = 99;
},
{
glyphname = d;
layers = (
{
layerId = "89A090B5-805C-419F-B0F6-264861EF513B";
shapes = (
{
closed = 1;
nodes = (
(1141.77,108.192,l),
(1337.43,108.192,l),
(1337.43,0,l),
(1026.67,0,l),
(1026.67,170.344,l),
(1022.07,170.344,l),
(969.122,96.682,o),
(847.118,18.416,o),
(734.323,-18.416,o),
(649.15,-23.02,o),
(633.037,-23.02,qs),
(524.845,-23.02,o),
(338.387,59.851,o),
(200.27,197.968,o),
(122.003,384.426,o),
(122.003,488.014,qs),
(122.003,605.413,o),
(209.478,794.173,o),
(354.501,927.687,o),
(534.053,999.047,o),
(628.433,999.047,qs),
(736.625,999.047,o),
(957.612,897.761,o),
(1022.07,801.079,q),
(1026.67,801.079,l),
(1026.67,1319.02,l),
(656.056,1296,l),
(649.15,1399.59,l),
(1141.77,1443.32,l)
);
},
{
closed = 1;
nodes = (
(1022.07,552.468,o),
(971.424,692.888,o),
(874.742,810.287,o),
(729.719,883.95,o),
(633.037,883.95,qs),
(557.072,883.95,o),
(416.653,828.703,o),
(310.764,725.115,o),
(246.309,580.092,o),
(246.309,490.316,qs),
(246.309,402.842,o),
(308.462,255.517,o),
(414.351,149.627,o),
(554.77,92.078,o),
(633.037,92.078,qs),
(711.303,92.078,o),
(851.722,151.929,o),
(959.914,255.517,o),
(1022.07,398.238,o),
(1022.07,483.41,qs)
);
}
);
width = 1381;
}
);
unicode = 100;
},
{
glyphname = e;
layers = (
{
layerId = "89A090B5-805C-419F-B0F6-264861EF513B";
shapes = (
{
closed = 1;
nodes = (
(1287,131,l),
(1241,106,o),
(1116,48,o),
(971,0,o),
(810,-32,o),
(730,-32,qs),
(589,-32,o),
(380,55,o),
(239,200,o),
(170,391,o),
(170,493,qs),
(170,599,o),
(246,792,o),
(387,939,o),
(589,1024,o),
(716,1024,qs),
(847,1024,o),
(1043,941,o),
(1174,808,o),
(1238,645,o),
(1238,566,qs),
(1238,539,o),
(1234,474,o),
(1234,463,q),
(295,463,l),
(297,417,o),
(334,285,o),
(430,166,o),
(599,78,o),
(732,78,qs),
(803,78,o),
(953,113,o),
(1087,161,o),
(1197,214,o),
(1234,232,q)
);
},
{
closed = 1;
nodes = (
(1114,571,l),
(1114,626,o),
(1066,748,o),
(969,849,o),
(819,914,o),
(716,914,qs),
(601,914,o),
(447,836,o),
(350,727,o),
(302,610,o),
(295,571,q)
);
}
);
width = 1381;
}
);
unicode = 101;
},
{
glyphname = f;
layers = (
{
layerId = "89A090B5-805C-419F-B0F6-264861EF513B";
shapes = (
{
closed = 1;
nodes = (
(462.692,1091.13,ls),
(462.692,1162.49,o),
(483.41,1289.09,o),
(554.77,1383.47,o),
(699.793,1438.72,o),
(824.099,1438.72,qs),
(920.781,1438.72,o),
(1091.13,1415.7,o),
(1164.79,1401.89,q),
(1116.45,1286.79,l),
(1040.48,1305.21,o),
(867.836,1323.62,o),
(794.173,1323.62,qs),
(713.605,1323.62,o),
(626.131,1284.49,o),
(584.696,1217.73,o),
(577.79,1130.26,o),
(577.79,1084.22,qs),
(577.79,962.216,l),
(1068.11,962.216,l),
(1068.11,854.024,l),
(577.79,854.024,l),
(577.79,108.192,l),
(1068.11,108.192,l),
(1068.11,0,l),
(223.289,0,l),
(223.289,108.192,l),
(462.692,108.192,l),
(462.692,854.024,l),
(223.289,854.024,l),
(223.289,962.216,l),
(462.692,962.216,l)
);
}
);
width = 1381;
}
);
unicode = 102;
},
{
glyphname = g;
layers = (
{
layerId = "89A090B5-805C-419F-B0F6-264861EF513B";
shapes = (
{
closed = 1;
nodes = (
(1273,882,l),
(1087,882,l),
(1087,69,ls),
(1087,-37,o),
(1038,-198,o),
(916,-306,o),
(714,-361,o),
(559,-361,qs),
(414,-361,l),
(414,-253,l),
(559,-253,o),
(769,-242,o),
(905,-180,o),
(971,-48,o),
(971,69,qs),
(971,203,l),
(967,203,l),
(955,184,o),
(895,124,o),
(803,64,o),
(677,23,o),
(601,23,qs),
(495,23,o),
(315,101,o),
(184,237,o),
(108,414,o),
(108,511,qs),
(108,617,o),
(191,796,o),
(327,925,o),
(504,999,o),
(601,999,qs),
(610,999,o),
(691,994,o),
(799,960,o),
(918,889,o),
(967,822,q),
(971,822,l),
(971,990,l),
(1273,990,l)
);
},
{
closed = 1;
nodes = (
(971,592,o),
(912,732,o),
(810,831,o),
(677,884,o),
(605,884,qs),
(532,884,o),
(398,829,o),
(295,732,o),
(232,596,o),
(232,513,qs),
(232,433,o),
(292,297,o),
(394,196,o),
(529,138,o),
(605,138,qs),
(686,138,o),
(822,200,o),
(918,302,o),
(971,435,o),
(971,506,qs)
);
}
);
width = 1381;
}
);
unicode = 103;
},
{
glyphname = h;
layers = (
{
layerId = "89A090B5-805C-419F-B0F6-264861EF513B";
shapes = (
{
closed = 1;
nodes = (
(395.936,860.93,l),
(432.767,888.553,o),
(520.241,946.102,o),
(616.923,994.443,o),
(727.417,1024.37,o),
(789.57,1024.37,qs),
(867.836,1024.37,o),
(994.443,969.122,o),
(1084.22,867.836,o),
(1130.26,727.417,o),
(1130.26,644.547,qs),
(1130.26,108.192,l),
(1323.62,108.192,l),
(1323.62,0,l),
(819.495,0,l),
(819.495,108.192,l),
(1015.16,108.192,l),
(1015.16,635.339,ls),
(1015.16,759.644,o),
(897.761,909.271,o),
(794.173,909.271,qs),
(738.927,909.271,o),
(633.037,877.044,o),
(529.449,824.099,o),
(437.371,759.644,o),
(395.936,725.115,q),
(395.936,108.192,l),
(577.79,108.192,l),
(577.79,0,l),
(87.474,0,l),
(87.474,108.192,l),
(280.838,108.192,l),
(280.838,1330.53,l),
(66.757,1312.11,l),
(57.549,1420.3,l),
(395.936,1447.93,l)
);
}
);
width = 1381;
}
);
unicode = 104;
},
{
glyphname = i;
layers = (
{
layerId = "89A090B5-805C-419F-B0F6-264861EF513B";
shapes = (
{
closed = 1;
nodes = (
(753,108,l),
(1151,108,l),
(1151,0,l),
(232,0,l),
(232,108,l),
(638,108,l),
(638,882,l),
(299,882,l),
(299,990,l),
(753,990,l)
);
},
{
closed = 1;
nodes = (
(753,1510,l),
(753,1236,l),
(587,1236,l),
(587,1510,l)
);
}
);
width = 1381;
}
);
unicode = 105;
},
{
glyphname = j;
layers = (
{
layerId = "89A090B5-805C-419F-B0F6-264861EF513B";
shapes = (
{
closed = 1;
nodes = (
(897.761,92.078,ls),
(897.761,46.039,o),
(883.95,-103.588,o),
(803.381,-244.007,o),
(628.433,-347.595,o),
(467.296,-347.595,qs),
(375.218,-347.595,o),
(223.289,-322.273,o),
(156.533,-308.462,q),
(181.854,-197.968,l),
(227.893,-209.478,o),
(386.728,-232.497,o),
(474.202,-232.497,qs),
(589.3,-232.497,o),
(715.907,-163.439,o),
(773.456,-59.851,o),
(782.664,59.851,o),
(782.664,108.192,qs),
(782.664,881.648,l),
(195.666,881.648,l),
(195.666,989.839,l),
(897.761,989.839,l)
);
},
{
closed = 1;
nodes = (
(851.722,1510.08,l),
(851.722,1236.15,l),
(685.982,1236.15,l),
(685.982,1510.08,l)
);
}
);
width = 1381;
}
);
unicode = 106;
},
{
glyphname = k;
layers = (
{
layerId = "89A090B5-805C-419F-B0F6-264861EF513B";
shapes = (
{
closed = 1;
nodes = (
(425.861,550.167,l),
(856.326,877.044,l),
(856.326,881.648,l),
(727.417,881.648,l),
(727.417,989.839,l),
(1208.52,989.839,l),
(1208.52,881.648,l),
(1028.97,881.648,l),
(642.245,584.696,l),
(711.303,522.543,o),
(849.42,386.728,o),
(971.424,260.121,o),
(1070.41,147.325,o),
(1102.64,108.192,q),
(1296,108.192,l),
(1296,0,l),
(817.193,0,l),
(817.193,108.192,l),
(964.518,108.192,l),
(929.989,149.627,o),
(854.024,230.195,o),
(759.644,324.575,o),
(637.641,441.975,o),
(554.77,520.241,q),
(425.861,421.257,l),
(425.861,0,l),
(119.702,0,l),
(119.702,108.192,l),
(310.764,108.192,l),
(310.764,1328.23,l),
(92.078,1309.81,l),
(82.87,1418,l),
(425.861,1447.93,l)
);
}
);
width = 1381;
}
);
unicode = 107;
},
{
glyphname = l;
layers = (
{
layerId = "89A090B5-805C-419F-B0F6-264861EF513B";
shapes = (
{
closed = 1;
nodes = (
(748.134,108.192,l),
(1148.67,108.192,l),
(1148.67,0,l),
(232.497,0,l),
(232.497,108.192,l),
(633.037,108.192,l),
(633.037,1296,l),
(257.819,1268.38,l),
(246.309,1374.27,l),
(748.134,1406.49,l)
);
}
);
width = 1381;
}
);
unicode = 108;
},
{
glyphname = m;
layers = (
{
layerId = "89A090B5-805C-419F-B0F6-264861EF513B";
shapes = (
{
closed = 1;
nodes = (
(262.423,909.271,l),
(292.348,934.593,l),
(294.65,936.894,o),
(326.877,962.216,o),
(377.52,992.141,o),
(448.881,1015.16,o),
(490.316,1015.16,qs),
(563.978,1015.16,o),
(688.284,939.196,o),
(720.511,870.138,q),
(771.154,929.989,o),
(902.365,1015.16,o),
(982.934,1015.16,qs),
(1042.78,1015.16,o),
(1157.88,962.216,o),
(1187.81,916.177,qs),
(1203.92,890.855,o),
(1226.94,842.514,o),
(1240.75,780.362,o),
(1247.66,690.586,o),
(1247.66,626.131,qs),
(1247.66,108.192,l),
(1378.87,108.192,l),
(1378.87,0,l),
(1132.56,0,l),
(1132.56,626.131,ls),
(1132.56,674.472,o),
(1127.96,771.154,o),
(1100.33,851.722,o),
(1040.48,900.063,o),
(985.235,900.063,qs),
(936.894,900.063,o),
(824.099,837.911,o),
(759.644,748.134,q),
(759.644,108.192,l),
(902.365,108.192,l),
(902.365,0,l),
(644.547,0,l),
(644.547,635.339,ls),
(644.547,672.17,o),
(639.943,766.55,o),
(612.319,844.816,o),
(550.167,900.063,o),
(492.618,900.063,qs),
(451.183,900.063,o),
(382.124,872.44,o),
(326.877,833.307,o),
(285.442,789.57,o),
(271.63,771.154,q),
(271.63,108.192,l),
(428.163,108.192,l),
(428.163,0,l),
(0,0,l),
(0,108.192,l),
(156.533,108.192,l),
(156.533,881.648,l),
(0,881.648,l),
(0,989.839,l),
(262.423,989.839,l)
);
}
);
width = 1381;
}
);
unicode = 109;
},
{
glyphname = n;
layers = (
{
layerId = "89A090B5-805C-419F-B0F6-264861EF513B";
shapes = (
{
closed = 1;
nodes = (
(382,861,l),
(419,889,o),
(506,946,o),
(605,994,o),
(716,1024,o),
(778,1024,qs),
(856,1024,o),
(983,969,o),
(1073,868,o),
(1121,727,o),
(1121,645,qs),
(1121,108,l),
(1305,108,l),
(1305,0,l),
(808,0,l),
(808,108,l),
(1006,108,l),
(1006,635,ls),
(1006,762,o),
(884,909,o),
(780,909,qs),
(753,909,o),
(679,898,o),
(582,859,o),
(460,787,o),
(382,725,q),
(382,108,l),
(575,108,l),
(575,0,l),
(78,0,l),
(78,108,l),
(267,108,l),
(267,882,l),
(78,882,l),
(78,990,l),
(382,990,l)
);
}
);
width = 1381;
}
);
unicode = 110;
},
{
glyphname = o;
layers = (
{
layerId = "89A090B5-805C-419F-B0F6-264861EF513B";
shapes = (
{
closed = 1;
nodes = (
(120,605,o),
(193,799,o),
(336,946,o),
(550,1036,o),
(691,1036,qs),
(836,1036,o),
(1050,944,o),
(1190,792,o),
(1261,601,o),
(1261,502,qs),
(1261,403,o),
(1190,212,o),
(1050,60,o),
(836,-32,o),
(691,-32,qs),
(550,-32,o),
(336,58,o),
(193,207,o),
(120,398,o),
(120,502,qs)
);
},
{
closed = 1;
nodes = (
(244,421,o),
(302,269,o),
(414,152,o),
(582,83,o),
(691,83,qs),
(801,83,o),
(969,154,o),
(1080,272,o),
(1137,421,o),
(1137,502,qs),
(1137,580,o),
(1080,732,o),
(969,849,o),
(801,921,o),
(691,921,qs),
(582,921,o),
(417,852,o),
(302,734,o),
(244,585,o),
(244,502,qs)
);
}
);
width = 1381;
}
);
unicode = 111;
},
{
glyphname = p;
layers = (
{
layerId = "89A090B5-805C-419F-B0F6-264861EF513B";
shapes = (
{
closed = 1;
nodes = (
(348,826,l),
(352,826,l),
(366,847,o),
(424,912,o),
(520,974,o),
(656,1020,o),
(748,1020,qs),
(866,1020,o),
(1054,932,o),
(1190,787,o),
(1261,603,o),
(1261,504,qs),
(1261,389,o),
(1172,198,o),
(1029,60,o),
(845,-16,o),
(753,-16,qs),
(739,-16,o),
(656,-9,o),
(541,28,o),
(412,108,o),
(352,182,q),
(348,182,l),
(348,-253,l),
(691,-253,l),
(691,-361,l),
(44,-361,l),
(44,-253,l),
(232,-253,l),
(232,882,l),
(44,882,l),
(44,990,l),
(348,990,l)
);
},
{
closed = 1;
nodes = (
(338,410,o),
(417,256,o),
(536,152,o),
(681,99,o),
(748,99,qs),
(826,99,o),
(967,161,o),
(1073,269,o),
(1137,419,o),
(1137,506,qs),
(1137,578,o),
(1089,721,o),
(992,833,o),
(847,905,o),
(750,905,qs),
(661,905,o),
(509,840,o),
(401,734,o),
(338,589,o),
(338,511,qs)
);
}
);
width = 1381;
}
);
unicode = 112;
},
{
glyphname = q;
layers = (
{
layerId = "89A090B5-805C-419F-B0F6-264861EF513B";
shapes = (
{
closed = 1;
nodes = (
(1149,882,l),
(1149,-253,l),
(1337,-253,l),
(1337,-361,l),
(691,-361,l),
(691,-253,l),
(1034,-253,l),
(1034,182,l),
(1029,182,l),
(969,108,o),
(840,28,o),
(725,-9,o),
(642,-16,o),
(628,-16,qs),
(534,-16,o),
(352,60,o),
(209,198,o),
(120,389,o),
(120,504,qs),
(120,603,o),
(191,787,o),
(327,932,o),
(516,1020,o),
(633,1020,qs),
(725,1020,o),
(861,974,o),
(958,912,o),
(1015,847,o),
(1029,826,q),
(1034,826,l),
(1034,990,l),
(1337,990,l),
(1337,882,l)
);
},
{
closed = 1;
nodes = (
(1043,589,o),
(981,734,o),
(872,840,o),
(721,905,o),
(631,905,qs),
(534,905,o),
(389,833,o),
(292,721,o),
(244,578,o),
(244,506,qs),
(244,419,o),
(306,269,o),
(414,161,o),
(555,99,o),
(633,99,qs),
(700,99,o),
(845,152,o),
(965,256,o),
(1043,410,o),
(1043,511,qs)
);
}
);
width = 1381;
}
);
unicode = 113;
},
{
glyphname = r;
layers = (
{
layerId = "89A090B5-805C-419F-B0F6-264861EF513B";
shapes = (
{
closed = 1;
nodes = (
(573.186,759.644,l),
(612.319,798.777,o),
(709,890.855,o),
(826.4,969.122,o),
(966.819,1022.07,o),
(1049.689,1022.07,qs),
(1102.639,1022.07,o),
(1183.199,999.047,o),
(1245.359,962.216,o),
(1289.089,918.479,o),
(1307.509,895.459,q),
(1185.509,805.683,l),
(1183.199,807.985,o),
(1176.299,817.193,o),
(1176.299,821.797,q),
(1167.089,835.609,o),
(1146.369,865.534,o),
(1114.139,890.855,o),
(1065.799,906.969,o),
(1031.269,906.969,qs),
(955.309,906.969,o),
(817.192,840.212,o),
(697.49,745.832,o),
(603.11,644.547,o),
(573.185,612.319,q),
(573.185,108.192,l),
(1010.559,108.192,l),
(1010.559,0,l),
(172.645,0,l),
(172.645,108.192,l),
(458.087,108.192,l),
(458.087,881.648,l),
(191.061,881.648,l),
(191.061,989.839,l),
(573.185,989.839,l)
);
}
);
width = 1381;
}
);
unicode = 114;
},
{
glyphname = s;
layers = (
{
layerId = "89A090B5-805C-419F-B0F6-264861EF513B";
shapes = (
{
closed = 1;
nodes = (
(1109.54,1019.76,l),
(1102.64,982.934,o),
(1088.82,888.553,o),
(1088.82,821.797,qs),
(1088.82,773.456,o),
(1095.73,706.699,o),
(1100.33,676.774,q),
(999.047,665.264,l),
(992.141,699.793,o),
(966.82,782.664,o),
(895.459,854.024,o),
(757.342,904.667,o),
(637.641,904.667,qs),
(499.524,904.667,o),
(352.199,805.683,o),
(352.199,734.323,qs),
(352.199,672.17,o),
(423.559,600.809,o),
(552.468,561.676,o),
(725.115,547.865,o),
(826.401,543.261,q),
(847.118,543.261,o),
(955.31,529.449,o),
(1070.41,478.806,o),
(1160.18,375.218,o),
(1160.18,285.442,qs),
(1160.18,202.572,o),
(1079.62,80.568,o),
(950.706,2.302,o),
(796.475,-34.529,o),
(720.511,-34.529,qs),
(658.358,-34.529,o),
(552.468,-13.812,o),
(464.994,18.416,o),
(402.842,50.643,o),
(382.124,62.153,q),
(382.124,62.153,o),
(377.52,64.455,q),
(375.218,66.757,o),
(370.614,66.757,qs),
(354.501,66.757,o),
(336.085,9.208,o),
(324.575,-29.925,q),
(223.289,-29.925,l),
(227.893,0,o),
(237.101,57.549,o),
(237.101,115.098,qs),
(237.101,188.76,o),
(227.893,303.858,o),
(223.289,342.991,q),
(324.575,354.501,l),
(329.179,324.575,o),
(356.803,232.497,o),
(432.767,145.023,o),
(575.488,80.568,o),
(695.19,80.568,qs),
(729.719,80.568,o),
(844.816,94.38,o),
(955.31,135.815,o),
(1035.88,214.082,o),
(1035.88,280.838,qs),
(1035.88,331.481,o),
(987.537,391.332,o),
(900.063,421.257,o),
(778.06,430.465,o),
(706.699,432.767,qs),
(660.66,435.069,o),
(499.524,451.183,o),
(342.991,508.731,o),
(227.893,626.131,o),
(227.893,729.719,qs),
(227.893,791.871,o),
(287.744,897.761,o),
(393.634,976.028,o),
(545.563,1019.76,o),
(635.339,1019.76,qs),
(738.927,1019.76,o),
(867.836,971.424,o),
(900.063,953.008,q),
(904.667,948.404,o),
(936.894,932.291,o),
(950.706,932.291,qs),
(969.122,932.291,o),
(987.537,976.028,o),
(992.141,987.537,q),
(996.745,1010.56,o),
(1001.35,1024.37,o),
(1005.95,1035.88,q)
);
}
);
width = 1381;
}
);
unicode = 115;
},
{
glyphname = t;
layers = (
{
layerId = "89A090B5-805C-419F-B0F6-264861EF513B";
shapes = (
{
closed = 1;
nodes = (
(513,958,l),
(1070,958,l),
(1070,849,l),
(513,849,l),
(513,414,ls),
(513,350,o),
(520,230,o),
(564,138,o),
(663,83,o),
(753,83,qs),
(780,83,o),
(852,90,o),
(953,113,o),
(1096,161,o),
(1197,203,q),
(1238,99,l),
(1128,48,o),
(877,-32,o),
(764,-32,qs),
(654,-32,o),
(516,35,o),
(479,71,qs),
(419,131,o),
(398,299,o),
(398,414,qs),
(398,849,l),
(242,849,l),
(242,958,l),
(398,958,l),
(398,1296,l),
(513,1296,l)
);
}
);
width = 1381;
}
);
unicode = 116;
},
{
glyphname = u;
layers = (
{
layerId = "89A090B5-805C-419F-B0F6-264861EF513B";
shapes = (
{
closed = 1;
nodes = (
(378,380,ls),
(378,357,o),
(384,258,o),
(428,159,o),
(520,83,o),
(608,83,qs),
(704,83,o),
(882,180,o),
(978,283,q),
(978,882,l),
(780,882,l),
(780,990,l),
(1093,990,l),
(1093,108,l),
(1280,108,l),
(1280,0,l),
(978,0,l),
(978,127,l),
(953,106,o),
(884,51,o),
(794,2,o),
(684,-32,o),
(617,-32,qs),
(509,-32,o),
(371,46,o),
(292,166,o),
(262,311,o),
(262,380,qs),
(262,882,l),
(74,882,l),
(74,990,l),
(378,990,l)
);
}
);
width = 1381;
}
);
unicode = 117;
},
{
glyphname = v;
layers = (
{
layerId = "89A090B5-805C-419F-B0F6-264861EF513B";
shapes = (
{
closed = 1;
nodes = (
(539,882,l),
(352,882,l),
(697,134,l),
(1047,882,l),
(866,882,l),
(866,990,l),
(1333,990,l),
(1333,882,l),
(1162,882,l),
(746,0,l),
(638,0,l),
(219,882,l),
(48,882,l),
(48,990,l),
(539,990,l)
);
}
);
width = 1381;
}
);
unicode = 118;
},
{
glyphname = w;
layers = (
{
layerId = "89A090B5-805C-419F-B0F6-264861EF513B";
shapes = (
{
closed = 1;
nodes = (
(417,882,l),
(226,882,l),
(428,184,l),
(433,184,l),
(658,810,l),
(739,810,l),
(967,175,l),
(971,175,l),
(1179,882,l),
(985,882,l),
(985,990,l),
(1377,990,l),
(1377,882,l),
(1287,882,l),
(1029,0,l),
(909,0,l),
(691,594,l),
(477,0,l),
(364,0,l),
(104,882,l),
(5,882,l),
(5,990,l),
(417,990,l)
);
}
);
width = 1381;
}
);
unicode = 119;
},
{
glyphname = x;
layers = (
{
layerId = "89A090B5-805C-419F-B0F6-264861EF513B";
shapes = (
{
closed = 1;
nodes = (
(539,882,l),
(398,882,l),
(686,594,l),
(974,882,l),
(840,882,l),
(840,990,l),
(1264,990,l),
(1264,882,l),
(1123,882,l),
(762,518,l),
(1176,108,l),
(1321,108,l),
(1321,0,l),
(854,0,l),
(854,108,l),
(1017,108,l),
(686,444,l),
(352,108,l),
(513,108,l),
(513,0,l),
(60,0,l),
(60,108,l),
(203,108,l),
(608,518,l),
(242,882,l),
(94,882,l),
(94,990,l),
(539,990,l)
);
}
);
width = 1381;
}
);
unicode = 120;
},
{
glyphname = y;
layers = (
{
layerId = "89A090B5-805C-419F-B0F6-264861EF513B";
shapes = (
{
closed = 1;
nodes = (
(486,882,l),
(327,882,l),
(691,182,l),
(1091,882,l),
(935,882,l),
(935,990,l),
(1356,990,l),
(1356,882,l),
(1222,882,l),
(578,-244,l),
(783,-244,l),
(783,-352,l),
(92,-352,l),
(92,-244,l),
(447,-244,l),
(624,62,l),
(196,882,l),
(55,882,l),
(55,990,l),
(486,990,l)
);
}
);
width = 1381;
}
);
unicode = 121;
},
{
glyphname = z;
layers = (
{
layerId = "89A090B5-805C-419F-B0F6-264861EF513B";
shapes = (
{
closed = 1;
nodes = (
(1141.77,890.855,l),
(395.936,108.192,l),
(1033.58,108.192,l),
(1033.58,319.971,l),
(1141.77,319.971,l),
(1141.77,0,l),
(239.403,0,l),
(239.403,108.192,l),
(978.33,881.648,l),
(370.614,881.648,l),
(370.614,676.774,l),
(262.423,676.774,l),
(262.423,989.839,l),
(1141.77,989.839,l)
);
}
);
width = 1381;
}
);
unicode = 122;
},
{
glyphname = braceleft;
layers = (
{
layerId = "89A090B5-805C-419F-B0F6-264861EF513B";
shapes = (
{
closed = 1;
nodes = (
(1061.2,1390.38,l),
(1019.76,1390.38,o),
(927.687,1383.47,o),
(851.722,1348.94,o),
(801.079,1279.89,o),
(801.079,1217.73,qs),
(801.079,1180.9,o),
(810.287,1104.94,o),
(828.703,1031.27,qs),
(847.118,950.706,l),
(849.42,939.196,o),
(858.628,877.044,o),
(858.628,849.42,qs),
(858.628,807.985,o),
(835.609,743.53,o),
(798.777,695.19,o),
(752.738,656.056,o),
(732.021,639.943,q),
(752.738,623.829,o),
(796.475,586.998,o),
(835.609,538.657,o),
(858.628,474.202,o),
(858.628,432.767,qs),
(858.628,405.144,o),
(849.42,342.991,o),
(847.118,331.481,q),
(828.703,250.913,ls),
(810.287,177.25,o),
(801.079,101.286,o),
(801.079,62.153,qs),
(801.079,0,o),
(854.024,-69.059,o),
(934.593,-101.286,o),
(1024.37,-108.192,o),
(1061.2,-108.192,q),
(1061.2,-218.685,l),
(969.122,-218.685,ls),
(927.687,-218.685,o),
(872.44,-200.27,qs),
(780.362,-170.344,o),
(681.378,-25.322,o),
(681.378,66.757,qs),
(681.378,82.87,o),
(685.982,142.721,o),
(695.19,181.854,q),
(695.19,188.76,o),
(699.793,214.082,o),
(706.699,244.007,o),
(713.605,269.328,o),
(715.907,276.234,q),
(722.813,313.065,o),
(736.625,398.238,o),
(736.625,437.371,qs),
(736.625,483.41,o),
(688.284,538.657,o),
(623.829,568.582,o),
(557.072,580.092,o),
(540.959,582.394,q),
(540.959,699.793,l),
(628.433,709.001,o),
(736.625,778.06,o),
(736.625,849.42,qs),
(736.625,870.138,o),
(732.021,916.177,o),
(725.115,962.216,o),
(718.209,996.745,o),
(715.907,1005.95,q),
(706.699,1054.29,o),
(692.888,1114.14,o),
(685.982,1155.58,o),
(681.378,1187.81,o),
(681.378,1208.52,qs),
(681.378,1323.62,o),
(782.664,1443.32,o),
(913.875,1496.27,o),
(1038.18,1500.87,o),
(1061.2,1500.87,q)
);
}
);
width = 1381;
}
);
unicode = 123;
},
{
glyphname = bar;
layers = (
{
layerId = "89A090B5-805C-419F-B0F6-264861EF513B";
shapes = (
{
closed = 1;
nodes = (
(630.735,-425.861,l),
(630.735,1549.21,l),
(752.738,1549.21,l),
(752.738,-425.861,l)
);
}
);
width = 1381;
}
);
unicode = 124;
},
{
glyphname = braceright;
layers = (
{
layerId = "89A090B5-805C-419F-B0F6-264861EF513B";
shapes = (
{
closed = 1;
nodes = (
(319.971,-108.192,l),
(361.406,-108.192,o),
(453.485,-101.286,o),
(529.449,-66.757,o),
(580.092,2.302,o),
(580.092,64.455,qs),
(580.092,101.286,o),
(570.884,177.25,o),
(552.468,250.913,qs),
(534.053,331.481,l),
(531.751,342.991,o),
(522.543,405.144,o),
(522.543,432.767,qs),
(522.543,474.202,o),
(545.563,538.657,o),
(582.394,586.998,o),
(628.433,626.131,o),
(649.15,642.245,q),
(607.715,672.17,o),
(522.543,766.55,o),
(522.543,849.42,qs),
(522.543,877.044,o),
(531.751,939.196,o),
(534.053,950.706,q),
(552.468,1031.27,ls),
(570.884,1104.94,o),
(580.092,1180.9,o),
(580.092,1220.03,qs),
(580.092,1282.19,o),
(524.845,1351.25,o),
(446.579,1383.47,o),
(356.803,1390.38,o),
(319.971,1390.38,q),
(319.971,1500.87,l),
(409.747,1500.87,ls),
(453.485,1500.87,o),
(508.731,1482.46,qs),
(600.809,1452.53,o),
(699.793,1307.51,o),
(699.793,1215.43,qs),
(699.793,1199.32,o),
(695.19,1139.47,o),
(685.982,1100.33,q),
(685.982,1093.43,o),
(681.378,1068.11,o),
(674.472,1038.18,o),
(667.566,1012.86,o),
(665.264,1005.95,q),
(658.358,969.122,o),
(644.547,883.95,o),
(644.547,844.816,qs),
(644.547,798.777,o),
(692.888,743.53,o),
(757.342,713.605,o),
(821.797,702.095,o),
(840.212,699.793,q),
(840.212,582.394,l),
(752.738,573.186,o),
(644.547,504.127,o),
(644.547,432.767,qs),
(644.547,412.049,o),
(649.15,366.01,o),
(656.056,319.971,o),
(662.962,285.442,o),
(665.264,276.234,q),
(674.472,227.893,o),
(688.284,168.042,o),
(695.19,126.607,o),
(699.793,94.38,o),
(699.793,73.662,qs),
(699.793,-41.435,o),
(598.508,-163.439,o),
(467.296,-214.082,o),
(342.991,-218.685,o),
(319.971,-218.685,q)
);
}
);
width = 1381;
}
);
unicode = 125;
},
{
glyphname = asciitilde;
layers = (
{
layerId = "89A090B5-805C-419F-B0F6-264861EF513B";
shapes = (
{
closed = 1;
nodes = (
(1185.51,803.381,l),
(1171.69,778.06,o),
(1123.35,704.397,o),
(1051.99,635.339,o),
(959.914,584.696,o),
(902.365,584.696,qs),
(893.157,584.696,o),
(867.836,586.998,o),
(821.797,598.508,o),
(745.832,623.829,o),
(685.982,649.15,qs),
(630.735,672.17,o),
(566.28,699.793,o),
(524.845,713.605,o),
(494.92,718.209,o),
(478.806,718.209,qs),
(409.747,718.209,o),
(322.273,610.017,o),
(273.932,527.147,q),
(197.968,616.923,l),
(220.987,656.056,o),
(273.932,738.927,o),
(340.689,805.683,o),
(423.559,849.42,o),
(478.806,849.42,qs),
(529.449,849.42,o),
(630.735,814.891,o),
(720.511,775.758,q),
(766.55,757.342,o),
(826.401,734.323,o),
(863.232,720.511,o),
(888.553,715.907,o),
(900.063,715.907,qs),
(913.875,715.907,o),
(955.31,725.115,o),
(1008.25,757.342,o),
(1065.8,817.193,o),
(1095.73,870.138,q),
(1095.73,874.742,o),
(1104.94,888.553,o),
(1107.24,890.855,q)
);
}
);
width = 1381;
}
);
unicode = 126;
},
{
glyphname = exclamdown;
layers = (
{
layerId = "89A090B5-805C-419F-B0F6-264861EF513B";
shapes = (
{
closed = 1;
nodes = (
(743.53,552.468,l),
(784.966,-317.669,l),
(593.904,-317.669,l),
(637.641,552.468,l)
);
},
{
closed = 1;
nodes = (
(621.527,752.738,o),
(531.751,835.609,o),
(531.751,895.459,qs),
(531.751,955.31,o),
(623.829,1035.88,o),
(690.586,1035.88,qs),
(757.342,1035.88,o),
(849.42,953.008,o),
(849.42,893.157,qs),
(849.42,833.307,o),
(757.342,752.738,o),
(690.586,752.738,qs)
);
}
);
width = 1381;
}
);
unicode = 161;
},
{
glyphname = cent;
layers = (
{
layerId = "89A090B5-805C-419F-B0F6-264861EF513B";
shapes = (
{
closed = 1;
nodes = (
(764.248,313.065,l),
(814.891,322.273,o),
(890.855,340.689,o),
(966.82,368.312,o),
(1054.29,414.351,o),
(1116.45,453.485,q),
(1171.69,359.105,l),
(1169.39,359.105,o),
(1160.18,352.199,o),
(1157.88,352.199,q),
(1102.64,315.367,o),
(1017.46,267.026,o),
(932.291,234.799,o),
(833.307,211.78,o),
(764.248,200.27,q),
(764.248,-131.211,l),
(651.452,-131.211,l),
(651.452,200.27,l),
(586.998,214.082,o),
(492.618,244.007,o),
(421.257,285.442,o),
(363.708,342.991,o),
(336.085,382.124,q),
(301.556,435.069,o),
(255.517,563.978,o),
(255.517,646.849,qs),
(255.517,727.417,o),
(308.462,877.044,o),
(407.446,996.745,o),
(554.77,1079.62,o),
(651.452,1095.73,q),
(651.452,1408.79,l),
(764.248,1408.79,l),
(764.248,1095.73,l),
(819.495,1091.13,o),
(904.667,1063.5,o),
(962.216,1033.58,o),
(996.745,1003.65,o),
(1001.35,999.047,q),
(1005.95,996.745,o),
(1010.56,989.839,o),
(1015.16,989.839,qs),
(1022.07,989.839,o),
(1028.97,1005.95,o),
(1035.88,1024.37,o),
(1035.88,1033.58,q),
(1038.18,1040.48,o),
(1038.18,1042.78,q),
(1042.78,1065.8,o),
(1042.78,1070.41,q),
(1150.98,1058.9,l),
(1144.07,1017.46,o),
(1130.26,918.479,o),
(1130.26,872.44,qs),
(1130.26,849.42,o),
(1132.56,787.268,o),
(1137.16,734.323,q),
(1028.97,720.511,l),
(1028.97,741.229,o),
(1024.37,796.475,o),
(1005.95,854.024,o),
(971.424,911.573,o),
(941.498,932.291,qs),
(895.459,964.518,o),
(794.173,989.839,o),
(764.248,989.839,q)
);
},
{
closed = 1;
nodes = (
(651.452,982.934,l),
(547.865,959.914,o),
(435.069,856.326,o),
(384.426,745.832,o),
(375.218,656.056,o),
(375.218,649.15,qs),
(375.218,598.508,o),
(412.049,478.806,o),
(453.485,425.861,qs),
(499.524,366.01,o),
(600.809,326.877,o),
(651.452,315.367,q)
);
}
);
width = 1381;
}
);
unicode = 162;
},
{
glyphname = sterling;
layers = (
{
layerId = "89A090B5-805C-419F-B0F6-264861EF513B";
shapes = (
{
closed = 1;
nodes = (
(430.465,780.362,l),
(395.936,872.44,o),
(370.614,978.33,o),
(370.614,1031.27,qs),
(370.614,1111.84,o),
(437.371,1249.96,o),
(552.468,1351.25,o),
(699.793,1408.79,o),
(782.664,1408.79,qs),
(870.138,1408.79,o),
(996.745,1371.96,o),
(1045.09,1353.55,q),
(1049.69,1351.25,o),
(1065.8,1346.64,o),
(1070.41,1346.64,qs),
(1075.01,1346.64,o),
(1081.92,1353.55,o),
(1088.82,1369.66,q),
(1192.41,1369.66,l),
(1174,1305.21,o),
(1153.28,1194.71,o),
(1148.67,1111.84,q),
(1045.09,1100.33,l),
(1047.39,1127.96,o),
(1049.69,1167.09,o),
(1049.69,1176.3,qs),
(1049.69,1190.11,o),
(1038.18,1229.24,o),
(1019.76,1240.75,q),
(994.443,1254.56,o),
(860.93,1296,o),
(787.268,1296,qs),
(713.605,1296,o),
(598.508,1249.96,o),
(522.543,1174,o),
(483.41,1079.62,o),
(483.41,1033.58,qs),
(483.41,1008.25,o),
(490.316,964.518,o),
(504.127,906.969,o),
(527.147,833.307,o),
(545.563,780.362,q),
(1104.94,780.362,l),
(1104.94,672.17,l),
(577.79,672.17,l),
(589.3,626.131,o),
(598.508,552.468,o),
(598.508,504.127,qs),
(598.508,428.163,o),
(575.488,308.462,o),
(538.657,214.082,o),
(497.222,140.419,o),
(476.504,112.796,q),
(481.108,108.192,l),
(513.335,124.305,o),
(591.602,151.929,o),
(644.547,151.929,qs),
(685.982,151.929,o),
(759.644,135.815,o),
(821.797,110.494,q),
(872.44,92.078,o),
(927.687,75.964,o),
(953.008,75.964,qs),
(1008.25,75.964,o),
(1093.43,124.305,o),
(1148.67,170.344,q),
(1215.43,87.474,l),
(1199.32,71.361,o),
(1150.98,29.925,o),
(1088.82,-6.906,o),
(1008.25,-32.227,o),
(959.914,-32.227,qs),
(927.687,-32.227,o),
(854.024,-18.416,o),
(798.777,2.302,qs),
(734.323,25.322,o),
(669.868,43.737,o),
(633.037,43.737,qs),
(586.998,43.737,o),
(469.598,9.208,o),
(372.916,-46.039,q),
(296.952,52.945,l),
(363.708,122.003,o),
(441.975,257.819,o),
(481.108,375.218,o),
(490.316,467.296,o),
(490.316,494.92,qs),
(490.316,584.696,o),
(462.692,672.17,q),
(220.987,672.17,l),
(220.987,780.362,l)
);
}
);
width = 1381;
}
);
unicode = 163;
},
{
glyphname = currency;
layers = (
{
layerId = "89A090B5-805C-419F-B0F6-264861EF513B";
shapes = (
{
closed = 1;
nodes = (
(1127.96,140.419,l),
(941.498,324.575,l),
(870.138,267.026,o),
(727.417,239.403,o),
(690.586,239.403,qs),
(676.774,239.403,o),
(623.829,244.007,o),
(557.072,260.121,o),
(478.806,294.65,o),
(439.673,324.575,q),
(253.215,140.419,l),
(172.646,218.685,l),
(361.406,402.842,l),
(301.556,490.316,o),
(280.838,614.621,o),
(280.838,633.037,qs),
(280.838,743.53,o),
(336.085,863.232,o),
(361.406,897.761,q),
(172.646,1084.22,l),
(253.215,1160.18,l),
(439.673,976.028,l),
(511.033,1031.27,o),
(644.547,1061.2,o),
(690.586,1061.2,qs),
(741.229,1061.2,o),
(821.797,1042.78,o),
(883.95,1015.16,o),
(927.687,985.235,o),
(941.498,976.028,q),
(1127.96,1160.18,l),
(1208.52,1084.22,l),
(1019.76,897.761,l),
(1077.31,817.193,o),
(1102.64,692.888,o),
(1102.64,667.566,qs),
(1102.64,612.319,o),
(1084.22,527.147,o),
(1058.9,464.994,o),
(1031.27,418.955,o),
(1019.76,402.842,q),
(1208.52,218.685,l)
);
},
{
closed = 1;
nodes = (
(994.443,709,o),
(953.008,817.192,o),
(872.44,902.364,o),
(759.644,953.007,o),
(690.586,953.007,qs),
(619.225,953.007,o),
(508.731,900.062,o),
(430.465,814.89,o),
(389.03,706.698,o),
(389.03,651.451,qs),
(389.03,591.601,o),
(430.465,483.409,o),
(506.429,398.237,o),
(619.225,347.594,o),
(688.284,347.594,qs),
(757.342,347.594,o),
(872.44,398.237,o),
(950.706,483.409,o),
(994.443,591.601,o),
(994.443,651.451,qs)
);
}
);
width = 1381;
}
);
unicode = 164;
},
{
glyphname = yen;
layers = (
{
layerId = "89A090B5-805C-419F-B0F6-264861EF513B";
shapes = (
{
closed = 1;
nodes = (
(1026.67,108.192,l),
(1026.67,0,l),
(368.312,0,l),
(368.312,108.192,l),
(642.245,108.192,l),
(642.245,319.971,l),
(303.858,319.971,l),
(303.858,428.163,l),
(642.245,428.163,l),
(642.245,561.676,l),
(303.858,561.676,l),
(303.858,669.868,l),
(642.245,669.868,l),
(642.245,699.793,l),
(214.082,1256.87,l),
(73.662,1256.87,l),
(73.662,1365.06,l),
(527.147,1365.06,l),
(527.147,1256.87,l),
(352.199,1256.87,l),
(697.491,807.985,l),
(1035.88,1256.87,l),
(860.93,1256.87,l),
(860.93,1365.06,l),
(1307.51,1365.06,l),
(1307.51,1256.87,l),
(1169.39,1256.87,l),
(752.738,699.793,l),
(752.738,669.868,l),
(1084.22,669.868,l),
(1084.22,561.676,l),
(752.738,561.676,l),
(752.738,428.163,l),
(1084.22,428.163,l),
(1084.22,319.971,l),
(752.738,319.971,l),
(752.738,108.192,l)
);
}
);
width = 1381;
}
);
unicode = 165;
},
{
glyphname = brokenbar;
layers = (
{
layerId = "89A090B5-805C-419F-B0F6-264861EF513B";
shapes = (
{
closed = 1;
nodes = (
(630.735,690.586,l),
(630.735,1549.21,l),
(752.738,1549.21,l),
(752.738,690.586,l)
);
},
{
closed = 1;
nodes = (
(630.735,-425.861,l),
(630.735,432.767,l),
(752.738,432.767,l),
(752.738,-425.861,l)
);
}
);
width = 1381;
}
);
unicode = 166;
},
{
glyphname = section;
layers = (
{
layerId = "89A090B5-805C-419F-B0F6-264861EF513B";
shapes = (
{
closed = 1;
nodes = (
(971.424,989.839,l),
(971.424,1187.81,l),
(706.699,1187.81,ls),
(688.284,1187.81,o),
(630.735,1183.2,o),
(575.488,1157.88,o),
(536.355,1104.94,o),
(536.355,1054.29,qs),
(536.355,1008.25,o),
(586.998,941.498,o),
(619.225,916.177,qs),
(936.894,672.17,ls),
(978.33,639.943,o),
(1049.69,580.092,o),
(1100.33,517.939,o),
(1127.96,446.579,o),
(1127.96,402.842,qs),
(1127.96,375.218,o),
(1109.54,306.16,o),
(1065.8,241.705,o),
(992.141,191.062,o),
(936.894,179.552,q),
(948.404,161.137,o),
(980.632,96.682,o),
(980.632,41.435,qs),
(980.632,-75.964,o),
(810.287,-209.478,o),
(665.264,-209.478,qs),
(301.556,-209.478,l),
(301.556,122.003,l),
(409.747,122.003,l),
(409.747,-101.286,l),
(679.076,-101.286,ls),
(709.001,-101.286,o),
(775.758,-85.172,o),
(826.401,-52.945,o),
(860.93,0,o),
(860.93,39.133,qs),
(860.93,71.361,o),
(828.703,133.513,o),
(766.55,179.552,qs),
(458.088,416.653,ls),
(384.426,474.202,o),
(285.442,582.394,o),
(285.442,662.962,qs),
(285.442,702.095,o),
(315.367,780.362,o),
(366.01,844.816,o),
(432.767,890.855,o),
(471.9,897.761,q),
(432.767,941.498,o),
(416.653,1038.18,o),
(416.653,1051.99,qs),
(416.653,1125.65,o),
(485.712,1224.64,o),
(522.543,1249.96,q),
(575.488,1282.19,o),
(699.793,1296,o),
(738.927,1296,qs),
(1079.62,1296,l),
(1079.62,989.839,l)
);
},
{
closed = 1;
nodes = (
(570.884,810.287,l),
(508.731,803.381,o),
(441.975,759.644,o),
(409.747,711.303,o),
(405.144,669.868,o),
(405.144,665.264,qs),
(405.144,635.339,o),
(446.579,570.884,o),
(520.241,515.637,qs),
(833.307,273.932,l),
(888.553,276.234,o),
(955.31,306.16,o),
(994.443,345.293,o),
(1008.25,389.03,o),
(1008.25,402.842,qs),
(1008.25,423.559,o),
(996.745,460.39,o),
(964.518,499.524,o),
(909.271,547.865,o),
(865.534,582.394,qs)
);
}
);
width = 1381;
}
);
unicode = 167;
},
{
glyphname = dieresis;
layers = (
{
layerId = "89A090B5-805C-419F-B0F6-264861EF513B";
shapes = (
{
closed = 1;
nodes = (
(624,1430,l),
(624,1181,l),
(458,1181,l),
(458,1430,l)
);
},
{
closed = 1;
nodes = (
(923,1430,l),
(923,1181,l),
(757,1181,l),
(757,1430,l)
);
}
);
width = 1381;
}
);
unicode = 168;
},
{
glyphname = copyright;
layers = (
{
layerId = "89A090B5-805C-419F-B0F6-264861EF513B";
shapes = (
{
closed = 1;
nodes = (
(925.385,787.268,l),
(920.781,837.911,o),
(913.875,906.969,o),
(902.365,925.385,qs),
(883.95,955.31,o),
(787.268,994.443,o),
(727.417,994.443,qs),
(656.056,994.443,o),
(547.865,943.8,o),
(474.202,856.326,o),
(437.371,741.229,o),
(437.371,676.774,qs),
(437.371,610.017,o),
(476.504,488.014,o),
(550.167,395.936,o),
(653.754,342.991,o),
(720.511,342.991,qs),
(775.758,342.991,o),
(854.024,377.52,o),
(906.969,428.163,o),
(941.498,483.41,o),
(953.008,506.429,q),
(1008.25,483.41,l),
(987.537,428.163,o),
(920.781,349.897,o),
(835.609,296.952,o),
(736.625,271.63,o),
(688.284,271.63,qs),
(603.111,271.63,o),
(467.296,336.085,o),
(370.614,444.277,o),
(319.971,586.998,o),
(319.971,667.566,qs),
(319.971,743.53,o),
(370.614,886.252,o),
(469.598,994.443,o),
(619.225,1061.2,o),
(718.209,1061.2,qs),
(775.758,1061.2,o),
(929.989,1031.27,o),
(989.839,1010.56,q),
(989.839,787.268,l)
);
},
{
closed = 1;
nodes = (
(828.703,1335.13,o),
(1072.71,1231.54,o),
(1252.26,1049.69,o),
(1358.15,805.683,o),
(1358.15,667.566,qs),
(1358.15,529.449,o),
(1252.26,285.442,o),
(1072.71,103.588,o),
(828.703,-2.302,o),
(690.586,-2.302,qs),
(552.468,-2.302,o),
(310.764,103.588,o),
(128.909,285.442,o),
(23.02,529.449,o),
(23.02,667.566,qs),
(23.02,807.985,o),
(128.909,1051.99,o),
(310.764,1231.54,o),
(554.77,1335.13,o),
(690.586,1335.13,qs)
);
},
{
closed = 1;
nodes = (
(570.884,1247.66,o),
(361.406,1157.88,o),
(202.572,999.047,o),
(110.494,787.268,o),
(110.494,665.264,qs),
(110.494,545.563,o),
(202.572,333.783,o),
(361.406,177.25,o),
(570.884,85.172,o),
(690.586,85.172,qs),
(810.287,85.172,o),
(1019.76,177.25,o),
(1178.6,333.783,o),
(1270.68,545.563,o),
(1270.68,665.264,qs),
(1270.68,784.966,o),
(1178.6,999.047,o),
(1022.07,1155.58,o),
(810.287,1247.66,o),
(690.586,1247.66,qs)
);
}
);
width = 1381;
}
);
unicode = 169;
},
{
glyphname = ordfeminine;
layers = (
{
layerId = "89A090B5-805C-419F-B0F6-264861EF513B";
shapes = (
{
closed = 1;
nodes = (
(439.673,1277.58,l),
(520.241,1309.81,o),
(621.527,1335.13,o),
(674.472,1335.13,qs),
(883.95,1335.13,o),
(883.95,1150.98,qs),
(883.95,879.346,l),
(982.934,879.346,l),
(982.934,796.475,l),
(796.475,796.475,l),
(796.475,860.93,l),
(736.625,814.891,o),
(646.849,780.362,o),
(593.904,780.362,qs),
(513.335,780.362,o),
(398.238,879.346,o),
(398.238,953.008,qs),
(398.238,1035.88,o),
(536.355,1139.47,o),
(653.754,1139.47,qs),
(688.284,1139.47,o),
(745.832,1134.86,o),
(796.475,1127.96,q),
(796.475,1144.07,ls),
(796.475,1201.62,o),
(738.927,1252.26,o),
(672.17,1252.26,qs),
(628.433,1252.26,o),
(536.355,1226.94,o),
(471.9,1199.32,q)
);
},
{
closed = 1;
nodes = (
(796.475,1045.09,l),
(748.134,1051.99,o),
(692.888,1056.6,o),
(665.264,1056.6,qs),
(584.696,1056.6,o),
(485.712,1001.35,o),
(485.712,953.008,qs),
(485.712,916.177,o),
(550.167,863.232,o),
(593.904,863.232,qs),
(699.793,863.232,o),
(796.475,973.726,q)
);
},
{
closed = 1;
nodes = (
(971.424,612.319,l),
(409.747,612.319,l),
(409.747,695.19,l),
(971.424,695.19,l)
);
}
);
width = 1381;
}
);
unicode = 170;
},
{
glyphname = guillemotleft;
layers = (
{
layerId = "89A090B5-805C-419F-B0F6-264861EF513B";
shapes = (
{
closed = 1;
nodes = (
(863.232,115.098,l),
(552.468,619.225,l),
(863.232,1121.05,l),
(1111.84,1121.05,l),
(801.079,619.225,l),
(1111.84,115.098,l)
);
},
{
closed = 1;
nodes = (
(425.861,115.098,l),
(115.098,619.225,l),
(425.861,1121.05,l),
(676.774,1121.05,l),
(366.01,619.225,l),
(676.774,115.098,l)
);
}
);
width = 1227;
}
);
unicode = 171;
},
{
glyphname = logicalnot;
layers = (
{
layerId = "89A090B5-805C-419F-B0F6-264861EF513B";
shapes = (
{
closed = 1;
nodes = (
(1194.71,389.03,l),
(1079.62,389.03,l),
(1079.62,893.157,l),
(207.176,893.157,l),
(207.176,1008.25,l),
(1194.71,1008.25,l)
);
}
);
width = 1381;
}
);
unicode = 172;
},
{
glyphname = registered;
layers = (
{
layerId = "89A090B5-805C-419F-B0F6-264861EF513B";
shapes = (
{
closed = 1;
nodes = (
(685.982,1072.71,ls),
(704.397,1072.71,o),
(791.871,1065.8,o),
(883.95,1028.97,o),
(953.008,948.404,o),
(953.008,877.044,qs),
(953.008,865.534,o),
(946.102,814.891,o),
(913.875,752.738,o),
(842.514,695.19,o),
(778.06,679.076,q),
(814.891,653.754,o),
(865.534,557.072,o),
(902.365,474.202,qs),
(920.781,432.767,o),
(946.102,389.03,o),
(973.726,368.312,o),
(1010.56,366.01,o),
(1040.48,366.01,q),
(1040.48,310.764,l),
(948.404,310.764,ls),
(881.648,310.764,o),
(819.495,405.144,o),
(789.57,485.712,qs),
(766.55,547.865,o),
(734.323,614.621,o),
(697.491,649.15,o),
(649.15,656.056,o),
(607.715,656.056,qs),
(566.28,656.056,l),
(566.28,425.861,ls),
(566.28,395.936,o),
(570.884,379.822,o),
(582.394,372.916,q),
(586.998,370.614,o),
(642.245,366.01,o),
(660.66,363.708,q),
(660.66,310.764,l),
(368.312,310.764,l),
(368.312,363.708,l),
(372.916,366.01,o),
(384.426,366.01,qs),
(398.238,366.01,o),
(400.54,368.312,q),
(441.975,372.916,o),
(462.692,386.728,o),
(462.692,425.861,qs),
(462.692,962.216,ls),
(462.692,989.839,o),
(460.39,1003.65,o),
(448.881,1008.25,q),
(446.579,1010.56,o),
(432.767,1010.56,qs),
(428.163,1010.56,o),
(393.634,1012.86,o),
(368.312,1015.16,q),
(368.312,1072.71,l)
);
},
{
closed = 1;
nodes = (
(619.225,711.303,ls),
(722.813,711.303,o),
(849.42,780.362,o),
(849.42,870.138,qs),
(849.42,923.083,o),
(807.985,982.934,o),
(748.134,1010.56,o),
(683.68,1017.46,o),
(660.66,1017.46,qs),
(596.206,1017.46,o),
(566.28,1003.65,o),
(566.28,969.122,qs),
(566.28,711.303,l)
);
},
{
closed = 1;
nodes = (
(828.703,1335.13,o),
(1070.41,1231.54,o),
(1252.26,1051.99,o),
(1358.15,807.985,o),
(1358.15,667.566,qs),
(1358.15,529.449,o),
(1252.26,287.744,o),
(1072.71,105.89,o),
(828.703,0,o),
(690.586,0,qs),
(552.468,0,o),
(308.462,105.89,o),
(128.909,287.744,o),
(23.02,529.449,o),
(23.02,667.566,qs),
(23.02,807.985,o),
(128.909,1051.99,o),
(310.764,1231.54,o),
(554.77,1335.13,o),
(690.586,1335.13,qs)
);
},
{
closed = 1;
nodes = (
(570.884,1247.66,o),
(361.406,1157.88,o),
(202.572,999.047,o),
(110.494,787.268,o),
(110.494,667.566,qs),
(110.494,547.865,o),
(200.27,338.387,o),
(359.105,179.552,o),
(568.582,87.474,o),
(690.586,87.474,qs),
(810.287,87.474,o),
(1022.07,179.552,o),
(1180.9,338.387,o),
(1270.68,547.865,o),
(1270.68,667.566,qs),
(1270.68,789.57,o),
(1178.6,1001.35,o),
(1019.76,1157.88,o),
(807.985,1247.66,o),
(690.586,1247.66,qs)
);
}
);
width = 1381;
}
);
unicode = 174;
},
{
glyphname = macron;
layers = (
{
layerId = "89A090B5-805C-419F-B0F6-264861EF513B";
shapes = (
{
closed = 1;
nodes = (
(1081.92,1247.66,l),
(299.254,1247.66,l),
(299.254,1362.76,l),
(1081.92,1362.76,l)
);
}
);
width = 1381;
}
);
unicode = 175;
},
{
glyphname = degree;
layers = (
{
layerId = "89A090B5-805C-419F-B0F6-264861EF513B";
shapes = (
{
closed = 1;
nodes = (
(338.387,1148.67,o),
(393.634,1277.58,o),
(488.014,1374.27,o),
(616.923,1429.51,o),
(690.586,1429.51,qs),
(766.55,1429.51,o),
(895.459,1371.96,o),
(989.839,1275.28,o),
(1042.78,1146.37,o),
(1042.78,1075.01,qs),
(1042.78,1003.65,o),
(987.537,877.044,o),
(893.157,780.362,o),
(764.248,725.115,o),
(690.586,725.115,qs),
(616.923,725.115,o),
(488.014,780.362,o),
(393.634,874.742,o),
(338.387,1001.35,o),
(338.387,1075.01,qs)
);
},
{
closed = 1;
nodes = (
(464.994,980.632,o),
(593.904,851.722,o),
(690.586,851.722,qs),
(738.927,851.722,o),
(821.797,886.252,o),
(881.648,948.404,o),
(916.177,1028.97,o),
(916.177,1077.31,qs),
(916.177,1174,o),
(787.268,1302.9,o),
(690.586,1302.9,qs),
(642.245,1302.9,o),
(561.676,1268.38,o),
(499.524,1208.52,o),
(464.994,1125.65,o),
(464.994,1077.31,qs)
);
}
);
width = 1381;
}
);
unicode = 176;
},
{
glyphname = plusminus;
layers = (
{
layerId = "89A090B5-805C-419F-B0F6-264861EF513B";
shapes = (
{
closed = 1;
nodes = (
(748.134,874.742,l),
(1229.24,874.742,l),
(1229.24,759.644,l),
(748.134,759.644,l),
(748.134,308.462,l),
(633.037,308.462,l),
(633.037,759.644,l),
(151.929,759.644,l),
(151.929,874.742,l),
(633.037,874.742,l),
(633.037,1325.92,l),
(748.134,1325.92,l)
);
},
{
closed = 1;
nodes = (
(1229.24,71.361,l),
(151.929,71.361,l),
(151.929,186.458,l),
(1229.24,186.458,l)
);
}
);
width = 1381;
}
);
unicode = 177;
},
{
glyphname = twosuperior;
layers = (
{
layerId = "89A090B5-805C-419F-B0F6-264861EF513B";
shapes = (
{
closed = 1;
nodes = (
(934.593,570.884,l),
(384.426,570.884,l),
(384.426,660.66,l),
(405.144,679.076,ls),
(428.163,699.793,o),
(497.222,761.946,o),
(570.884,828.703,o),
(639.943,890.855,o),
(662.962,911.573,qs),
(720.511,964.518,o),
(791.871,1035.88,o),
(826.401,1091.13,o),
(837.911,1139.47,o),
(837.911,1171.69,qs),
(837.911,1240.75,o),
(736.625,1337.43,o),
(665.264,1337.43,qs),
(600.809,1337.43,o),
(508.731,1268.38,o),
(506.429,1222.34,q),
(508.731,1194.71,l),
(412.049,1194.71,l),
(412.049,1302.9,l),
(511.033,1429.51,o),
(667.566,1429.51,qs),
(722.813,1429.51,o),
(821.797,1388.08,o),
(895.459,1319.02,o),
(936.894,1224.64,o),
(936.894,1169.39,qs),
(936.894,1125.65,o),
(913.875,1054.29,o),
(858.628,973.726,o),
(759.644,877.044,o),
(683.68,807.985,qs),
(524.845,662.962,l),
(844.816,662.962,l),
(844.816,794.173,l),
(934.593,794.173,l)
);
}
);
width = 1381;
}
);
unicode = 178;
},
{
glyphname = threesuperior;
layers = (
{
layerId = "89A090B5-805C-419F-B0F6-264861EF513B";
shapes = (
{
closed = 1;
nodes = (
(398.238,1332.83,l),
(483.41,1388.08,o),
(586.998,1429.51,o),
(644.547,1429.51,qs),
(748.134,1429.51,o),
(886.252,1305.21,o),
(886.252,1208.52,qs),
(886.252,1102.64,o),
(798.777,1028.97,q),
(927.687,948.404,o),
(927.687,812.589,qs),
(927.687,695.19,o),
(768.852,550.167,o),
(644.547,550.167,qs),
(593.904,550.167,o),
(504.127,573.186,o),
(425.861,605.413,qs),
(382.124,623.829,l),
(418.955,709,l),
(492.618,674.471,o),
(600.809,642.244,o),
(649.15,642.244,qs),
(729.719,642.244,o),
(831.005,738.926,o),
(831.005,812.588,qs),
(831.005,888.552,o),
(734.323,969.121,o),
(644.547,969.121,qs),
(589.3,969.121,l),
(589.3,1061.199,l),
(651.452,1063.499,o),
(706.699,1075.009,o),
(732.021,1093.429,qs),
(789.57,1137.159,o),
(789.57,1206.219,qs),
(789.57,1263.769,o),
(706.699,1337.429,o),
(644.547,1337.429,qs),
(605.413,1337.429,o),
(534.053,1314.409,o),
(481.108,1277.579,qs),
(446.579,1254.559,l)
);
}
);
width = 1381;
}
);
unicode = 179;
},
{
glyphname = acute;
layers = (
{
layerId = "89A090B5-805C-419F-B0F6-264861EF513B";
shapes = (
{
closed = 1;
nodes = (
(495,1158,l),
(700,1423,l),
(946,1423,l),
(617,1158,l)
);
}
);
width = 1381;
}
);
unicode = 180;
},
{
glyphname = mu;
layers = (
{
layerId = "89A090B5-805C-419F-B0F6-264861EF513B";
shapes = (
{
closed = 1;
nodes = (
(386.728,448.881,ls),
(386.728,393.634,o),
(391.332,315.367,o),
(402.842,257.819,o),
(423.559,216.383,o),
(439.673,195.666,qs),
(483.41,138.117,o),
(612.319,82.87,o),
(676.774,82.87,qs),
(741.229,82.87,o),
(883.95,138.117,o),
(923.083,188.76,qs),
(943.8,216.383,o),
(969.122,269.328,o),
(982.934,329.179,o),
(987.537,402.842,o),
(987.537,448.881,qs),
(987.537,893.157,l),
(798.777,893.157,l),
(798.777,989.839,l),
(1102.64,989.839,l),
(1102.64,94.38,l),
(1293.7,94.38,l),
(1293.7,0,l),
(989.839,0,l),
(989.839,122.003,l),
(985.235,122.003,l),
(966.82,94.38,l),
(923.083,34.529,o),
(761.946,-32.227,o),
(681.378,-32.227,qs),
(639.943,-32.227,o),
(561.676,-11.51,o),
(494.92,16.114,o),
(448.881,46.039,o),
(439.673,57.549,q),
(418.955,78.266,o),
(405.144,92.078,o),
(384.426,108.192,q),
(384.426,-342.991,l),
(271.63,-342.991,l),
(271.63,893.157,l),
(82.87,893.157,l),
(82.87,989.839,l),
(386.728,989.839,l)
);
}
);
width = 1381;
}
);
unicode = 181;
},
{
glyphname = paragraph;
layers = (
{
layerId = "89A090B5-805C-419F-B0F6-264861EF513B";
shapes = (
{
closed = 1;
nodes = (
(1141.77,-108.192,l),
(1141.77,-177.25,l),
(874.742,-177.25,l),
(874.742,-108.192,l),
(918.479,-108.192,l),
(918.479,1226.94,l),
(729.719,1226.94,l),
(729.719,-108.192,l),
(773.456,-108.192,l),
(773.456,-177.25,l),
(483.41,-177.25,l),
(483.41,-108.192,l),
(626.131,-108.192,l),
(626.131,600.809,l),
(559.374,596.206,o),
(421.257,623.829,o),
(306.16,702.095,o),
(232.497,842.514,o),
(232.497,953.008,qs),
(232.497,1079.62,o),
(310.764,1220.03,o),
(432.767,1284.49,o),
(582.394,1296,o),
(656.056,1296,qs),
(1132.56,1296,l),
(1132.56,1226.94,l),
(1022.07,1226.94,l),
(1022.07,-108.192,l)
);
},
{
closed = 1;
nodes = (
(626.131,1226.94,l),
(586.998,1226.94,o),
(513.335,1217.73,o),
(455.786,1178.6,o),
(418.955,1095.73,o),
(418.955,1019.76,qs),
(418.955,881.648,ls),
(418.955,867.836,o),
(428.163,794.173,o),
(469.598,718.209,o),
(552.468,662.962,o),
(626.131,669.868,q)
);
}
);
width = 1381;
}
);
unicode = 182;
},
{
glyphname = periodcentered;
layers = (
{
layerId = "89A090B5-805C-419F-B0F6-264861EF513B";
shapes = (
{
closed = 1;
nodes = (
(725.115,854.024,o),
(787.268,831.005,o),
(837.911,789.57,o),
(867.836,732.021,o),
(867.836,697.491,qs),
(867.836,660.66,o),
(835.609,603.111,o),
(784.966,561.676,o),
(722.813,540.959,o),
(690.586,540.959,qs),
(660.66,540.959,o),
(598.508,561.676,o),
(545.563,600.809,o),
(513.335,658.358,o),
(513.335,697.491,qs),
(513.335,734.323,o),
(545.563,791.871,o),
(596.206,833.307,o),
(658.358,854.024,o),
(690.586,854.024,qs)
);
}
);
width = 1381;
}
);
unicode = 183;
},
{
glyphname = cedilla;
layers = (
{
layerId = "89A090B5-805C-419F-B0F6-264861EF513B";
shapes = (
{
closed = 1;
nodes = (
(741.229,-57.549,l),
(798.777,-66.757,o),
(863.232,-108.192,o),
(895.459,-154.231,o),
(902.365,-193.364,o),
(902.365,-200.27,qs),
(902.365,-211.78,o),
(893.157,-255.517,o),
(858.628,-299.254,o),
(782.664,-333.783,o),
(718.209,-333.783,qs),
(633.037,-333.783,o),
(497.222,-306.16,o),
(464.994,-299.254,q),
(481.108,-197.968,l),
(517.939,-207.176,o),
(642.245,-230.195,o),
(715.907,-230.195,qs),
(736.625,-230.195,ls),
(755.04,-230.195,o),
(794.173,-216.383,o),
(794.173,-200.27,qs),
(794.173,-168.042,o),
(695.19,-147.325,o),
(628.433,-142.721,q),
(644.547,-4.604,l),
(748.134,-4.604,l)
);
}
);
width = 1381;
}
);
unicode = 184;
},
{
glyphname = onesuperior;
layers = (
{
layerId = "89A090B5-805C-419F-B0F6-264861EF513B";
shapes = (
{
closed = 1;
nodes = (
(750.436,1429.51,l),
(750.436,662.962,l),
(980.632,662.962,l),
(980.632,570.884,l),
(421.257,570.884,l),
(421.257,662.962,l),
(656.056,662.962,l),
(656.056,1314.41,l),
(446.579,1222.34,l),
(409.747,1305.21,l),
(690.586,1429.51,l)
);
}
);
width = 1381;
}
);
unicode = 185;
},
{
glyphname = ordmasculine;
layers = (
{
layerId = "89A090B5-805C-419F-B0F6-264861EF513B";
shapes = (
{
closed = 1;
nodes = (
(395.936,1180.9,o),
(559.374,1335.13,o),
(690.586,1335.13,qs),
(821.797,1335.13,o),
(985.235,1180.9,o),
(985.235,1056.6,qs),
(985.235,932.291,o),
(821.797,780.362,o),
(690.586,780.362,qs),
(559.374,780.362,o),
(395.936,932.291,o),
(395.936,1056.6,qs)
);
},
{
closed = 1;
nodes = (
(488.014,971.424,o),
(600.809,863.232,o),
(690.586,863.232,qs),
(780.362,863.232,o),
(893.157,971.424,o),
(893.157,1058.9,qs),
(893.157,1144.07,o),
(780.362,1252.26,o),
(690.586,1252.26,qs),
(600.809,1252.26,o),
(488.014,1144.07,o),
(488.014,1058.9,qs)
);
},
{
closed = 1;
nodes = (
(971.424,612.319,l),
(409.747,612.319,l),
(409.747,695.19,l),
(971.424,695.19,l)
);
}
);
width = 1381;
}
);
unicode = 186;
},
{
glyphname = guillemotright;
layers = (
{
layerId = "89A090B5-805C-419F-B0F6-264861EF513B";
shapes = (
{
closed = 1;
nodes = (
(363.708,115.098,l),
(115.098,115.098,l),
(428.163,619.225,l),
(115.098,1121.05,l),
(363.708,1121.05,l),
(676.774,619.225,l)
);
},
{
closed = 1;
nodes = (
(801.079,115.098,l),
(552.468,115.098,l),
(860.93,619.225,l),
(552.468,1121.05,l),
(801.079,1121.05,l),
(1111.84,619.225,l)
);
}
);
width = 1227;
}
);
unicode = 187;
},
{
glyphname = onequarter;
layers = (
{
layerId = "89A090B5-805C-419F-B0F6-264861EF513B";
shapes = (
{
closed = 1;
nodes = (
(1353.55,105.89,l),
(1353.55,20.718,l),
(1231.54,20.718,l),
(1231.54,-94.38,l),
(1353.55,-94.38,l),
(1353.55,-177.25,l),
(989.839,-177.25,l),
(989.839,-94.38,l),
(1144.07,-94.38,l),
(1144.07,20.718,l),
(778.06,20.718,l),
(778.06,112.796,l),
(1121.05,681.378,l),
(1231.54,681.378,l),
(1231.54,105.89,l)
);
},
{
closed = 1;
nodes = (
(1139.47,554.77,l),
(874.742,105.89,l),
(1144.07,105.89,l),
(1144.07,554.77,l)
);
},
{
closed = 1;
nodes = (
(352.199,1431.81,l),
(352.199,660.66,l),
(527.147,660.66,l),
(527.147,573.186,l),
(87.474,573.186,l),
(87.474,660.66,l),
(264.724,660.66,l),
(264.724,1323.62,l),
(96.682,1254.56,l),
(59.851,1332.83,l),
(296.952,1431.81,l)
);
},
{
closed = 1;
nodes = (
(202.572,-207.176,l),
(138.117,-156.533,l),
(1312.11,1457.14,l),
(1376.57,1411.1,l)
);
}
);
width = 1381;
}
);
unicode = 188;
},
{
glyphname = onehalf;
layers = (
{
layerId = "89A090B5-805C-419F-B0F6-264861EF513B";
shapes = (
{
closed = 1;
nodes = (
(336.085,1431.81,l),
(336.085,660.66,l),
(511.033,660.66,l),
(511.033,573.186,l),
(71.361,573.186,l),
(71.361,660.66,l),
(248.611,660.66,l),
(248.611,1323.62,l),
(80.568,1254.56,l),
(43.737,1332.83,l),
(283.14,1431.81,l)
);
},
{
closed = 1;
nodes = (
(172.646,-207.176,l),
(108.192,-156.533,l),
(1279.89,1457.14,l),
(1346.64,1411.1,l)
);
},
{
closed = 1;
nodes = (
(1358.15,-177.25,l),
(831.005,-177.25,l),
(831.005,-87.474,l),
(837.911,-80.568,o),
(840.212,-78.266,o),
(858.628,-64.455,o),
(906.969,-20.718,o),
(962.216,29.925,qs),
(1019.76,85.172,o),
(1102.64,163.439,o),
(1160.18,218.685,o),
(1199.32,257.819,o),
(1217.73,278.536,q),
(1249.96,317.669,o),
(1270.68,382.124,o),
(1270.68,421.257,qs),
(1270.68,494.92,o),
(1171.69,591.602,o),
(1095.73,591.602,qs),
(1035.88,591.602,o),
(941.498,524.845,o),
(941.498,478.806,qs),
(941.498,474.202,o),
(943.8,462.692,o),
(943.8,451.183,q),
(856.326,451.183,l),
(856.326,554.77,l),
(955.31,679.076,o),
(1100.33,679.076,qs),
(1155.58,679.076,o),
(1252.26,639.943,o),
(1321.32,570.884,o),
(1360.45,476.504,o),
(1360.45,421.257,qs),
(1360.45,340.689,o),
(1266.07,188.76,o),
(1141.77,78.266,qs),
(999.047,-48.341,l),
(955.31,-89.776,l),
(1279.89,-89.776,l),
(1279.89,41.435,l),
(1358.15,41.435,l)
);
}
);
width = 1381;
}
);
unicode = 189;
},
{
glyphname = threequarters;
layers = (
{
layerId = "89A090B5-805C-419F-B0F6-264861EF513B";
shapes = (
{
closed = 1;
nodes = (
(1155.58,554.77,l),
(890.855,105.89,l),
(1160.18,105.89,l),
(1160.18,554.77,l)
);
},
{
closed = 1;
nodes = (
(1369.66,105.89,l),
(1369.66,20.718,l),
(1247.66,20.718,l),
(1247.66,-94.38,l),
(1369.66,-94.38,l),
(1369.66,-177.25,l),
(1005.95,-177.25,l),
(1005.95,-94.38,l),
(1160.18,-94.38,l),
(1160.18,20.718,l),
(794.173,20.718,l),
(794.173,112.796,l),
(1137.16,681.378,l),
(1247.66,681.378,l),
(1247.66,105.89,l)
);
},
{
closed = 1;
nodes = (
(66.757,1337.43,l),
(149.627,1390.38,o),
(255.517,1431.81,o),
(313.065,1431.81,qs),
(363.708,1431.81,o),
(453.485,1397.28,o),
(520.241,1339.74,o),
(557.072,1259.17,o),
(557.072,1213.13,qs),
(557.072,1155.58,o),
(513.335,1070.41,o),
(464.994,1031.27,q),
(598.508,955.31,o),
(598.508,814.891,qs),
(598.508,699.793,o),
(437.371,554.77,o),
(313.065,554.77,qs),
(287.744,554.77,o),
(244.007,559.374,o),
(193.364,573.186,o),
(133.513,593.904,o),
(92.078,610.017,qs),
(50.643,626.131,l),
(85.172,706.699,l),
(163.439,669.868,o),
(267.026,642.245,o),
(317.669,642.245,qs),
(400.54,642.245,o),
(506.429,736.625,o),
(506.429,814.891,qs),
(506.429,893.157,o),
(409.747,982.934,o),
(313.065,978.33,qs),
(262.423,976.028,l),
(262.423,1061.2,l),
(322.273,1063.5,o),
(379.822,1075.01,o),
(405.144,1093.43,qs),
(464.994,1134.86,o),
(464.994,1210.83,qs),
(464.994,1270.68,o),
(379.822,1344.34,o),
(313.065,1344.34,qs),
(273.932,1344.34,o),
(200.27,1316.72,o),
(145.023,1284.49,qs),
(110.494,1263.77,l)
);
},
{
closed = 1;
nodes = (
(218.685,-207.176,l),
(154.231,-156.533,l),
(1328.23,1457.14,l),
(1392.68,1411.1,l)
);
}
);
width = 1381;
}
);
unicode = 190;
},
{
glyphname = questiondown;
layers = (
{
layerId = "89A090B5-805C-419F-B0F6-264861EF513B";
shapes = (
{
closed = 1;
nodes = (
(1091.13,-241.705,l),
(1031.27,-262.423,o),
(936.894,-292.348,o),
(851.722,-313.065,o),
(766.55,-322.273,o),
(718.209,-322.273,qs),
(607.715,-322.273,o),
(441.975,-257.819,o),
(331.481,-154.231,o),
(276.234,-18.416,o),
(276.234,55.247,qs),
(276.234,156.533,o),
(363.708,292.348,o),
(490.316,379.822,o),
(635.339,430.465,o),
(692.888,446.579,q),
(692.888,584.696,l),
(805.683,584.696,l),
(805.683,361.406,l),
(801.079,359.105,o),
(771.154,352.199,o),
(759.644,349.897,q),
(702.095,336.085,o),
(573.186,296.952,o),
(467.296,230.195,o),
(395.936,126.607,o),
(395.936,48.341,qs),
(395.936,13.812,o),
(423.559,-75.964,o),
(494.92,-156.533,o),
(619.225,-209.478,o),
(715.907,-209.478,qs),
(801.079,-209.478,o),
(918.479,-177.25,o),
(976.028,-154.231,q),
(976.028,-6.906,l),
(1091.13,-6.906,l)
);
},
{
closed = 1;
nodes = (
(690.586,752.738,o),
(598.508,833.307,o),
(598.508,893.157,qs),
(598.508,955.31,o),
(692.888,1035.88,o),
(757.342,1035.88,qs),
(821.797,1035.88,o),
(916.177,955.31,o),
(916.177,893.157,qs),
(916.177,833.307,o),
(824.099,752.738,o),
(757.342,752.738,qs)
);
}
);
width = 1381;
}
);
unicode = 191;
},
{
glyphname = Agrave;
layers = (
{
layerId = "89A090B5-805C-419F-B0F6-264861EF513B";
shapes = (
{
closed = 1;
nodes = (
(1394.884,121.392,l),
(1526.392,121.392,l),
(1526.392,0,l),
(995.864,0,l),
(995.864,121.392,l),
(1260.004,121.392,l),
(1112.76,481.072,l),
(437.236,481.072,l),
(292.24,121.392,l),
(556.38,121.392,l),
(556.38,0,l),
(25.852,0,l),
(25.852,121.392,l),
(162.98,121.392,l),
(662.036,1335.312,l),
(292.24,1335.312,l),
(292.24,1456.704,l),
(848.62,1456.704,l)
);
},
{
closed = 1;
nodes = (
(483.32,594.596,l),
(1068.924,594.596,l),
(776.684,1303.84,l)
);
},
{
closed = 1;
nodes = (
(967.764,1607.592,l),
(832.884,1607.592,l),
(491.188,1905.452,l),
(768.816,1905.452,l)
);
}
);
width = 1381;
}
);
unicode = 192;
},
{
glyphname = Aacute;
layers = (
{
layerId = "89A090B5-805C-419F-B0F6-264861EF513B";
shapes = (
{
closed = 1;
nodes = (
(1394.884,121.392,l),
(1526.392,121.392,l),
(1526.392,0,l),
(995.864,0,l),
(995.864,121.392,l),
(1260.004,121.392,l),
(1112.76,481.072,l),
(437.236,481.072,l),
(292.24,121.392,l),
(556.38,121.392,l),
(556.38,0,l),
(25.852,0,l),
(25.852,121.392,l),
(162.98,121.392,l),
(662.036,1335.312,l),
(292.24,1335.312,l),
(292.24,1456.704,l),
(848.62,1456.704,l)
);
},
{
closed = 1;
nodes = (
(483.32,594.596,l),
(1068.924,594.596,l),
(776.684,1303.84,l)
);
},
{
closed = 1;
nodes = (
(556.38,1607.592,l),
(786.8,1905.452,l),
(1063.304,1905.452,l),
(693.508,1607.592,l)
);
}
);
width = 1381;
}
);
unicode = 193;
},
{
glyphname = Acircumflex;
layers = (
{
layerId = "89A090B5-805C-419F-B0F6-264861EF513B";
shapes = (
{
closed = 1;
nodes = (
(1394.884,121.392,l),
(1526.392,121.392,l),
(1526.392,0,l),
(995.864,0,l),
(995.864,121.392,l),
(1260.004,121.392,l),
(1112.76,481.072,l),
(437.236,481.072,l),
(292.24,121.392,l),
(556.38,121.392,l),
(556.38,0,l),
(25.852,0,l),
(25.852,121.392,l),
(162.98,121.392,l),
(662.036,1335.312,l),
(292.24,1335.312,l),
(292.24,1456.704,l),
(848.62,1456.704,l)
);
},
{
closed = 1;
nodes = (
(483.32,594.596,l),
(1068.924,594.596,l),
(776.684,1303.84,l)
);
},
{
closed = 1;
nodes = (
(1107.14,1669.412,l),
(1025.088,1605.344,l),
(763.196,1776.192,l),
(528.28,1605.344,l),
(442.856,1667.164,l),
(669.904,1913.32,l),
(868.852,1913.32,l)
);
}
);
width = 1381;
}
);
unicode = 194;
},
{
glyphname = Atilde;
layers = (
{
layerId = "89A090B5-805C-419F-B0F6-264861EF513B";
shapes = (
{
closed = 1;
nodes = (
(1394.884,121.392,l),
(1526.392,121.392,l),
(1526.392,0,l),
(995.864,0,l),
(995.864,121.392,l),
(1260.004,121.392,l),
(1112.76,481.072,l),
(437.236,481.072,l),
(292.24,121.392,l),
(556.38,121.392,l),
(556.38,0,l),
(25.852,0,l),
(25.852,121.392,l),
(162.98,121.392,l),
(662.036,1335.312,l),
(292.24,1335.312,l),
(292.24,1456.704,l),
(848.62,1456.704,l)
);
},
{
closed = 1;
nodes = (
(483.32,594.596,l),
(1068.924,594.596,l),
(776.684,1303.84,l)
);
},
{
closed = 1;
nodes = (
(1190.316,1873.98,l),
(1184.696,1868.36,o),
(1184.696,1855.996,q),
(1154.348,1746.968,o),
(1013.848,1635.692,o),
(931.796,1635.692,qs),
(887.96,1635.692,o),
(807.032,1671.66,o),
(747.46,1718.868,q),
(685.64,1764.952,o),
(633.936,1794.176,o),
(605.836,1794.176,qs),
(554.132,1794.176,o),
(491.188,1711,o),
(470.956,1659.296,q),
(470.956,1657.048,o),
(468.708,1651.428,q),
(465.336,1643.56,l),
(361.928,1679.528,l),
(399.02,1778.44,o),
(509.172,1909.948,o),
(605.836,1909.948,qs),
(667.656,1909.948,o),
(755.328,1858.244,o),
(796.916,1822.276,q),
(846.372,1786.308,o),
(910.44,1752.588,o),
(939.664,1752.588,qs),
(973.384,1752.588,o),
(1021.716,1786.308,o),
(1057.684,1834.64,o),
(1079.04,1886.344,o),
(1086.908,1907.7,q)
);
}
);
width = 1381;
}
);
unicode = 195;
},
{
glyphname = Adieresis;
layers = (
{
layerId = "89A090B5-805C-419F-B0F6-264861EF513B";
shapes = (
{
closed = 1;
nodes = (
(1394.884,121.392,l),
(1526.392,121.392,l),
(1526.392,0,l),
(995.864,0,l),
(995.864,121.392,l),
(1260.004,121.392,l),
(1112.76,481.072,l),
(437.236,481.072,l),
(292.24,121.392,l),
(556.38,121.392,l),
(556.38,0,l),
(25.852,0,l),
(25.852,121.392,l),
(162.98,121.392,l),
(662.036,1335.312,l),
(292.24,1335.312,l),
(292.24,1456.704,l),
(848.62,1456.704,l)
);
},
{
closed = 1;
nodes = (
(483.32,594.596,l),
(1068.924,594.596,l),
(776.684,1303.84,l)
);
},
{
closed = 1;
nodes = (
(701.376,1913.32,l),
(701.376,1633.444,l),
(514.792,1633.444,l),
(514.792,1913.32,l)
);
},
{
closed = 1;
nodes = (
(1037.452,1913.32,l),
(1037.452,1633.444,l),
(850.868,1633.444,l),
(850.868,1913.32,l)
);
}
);
width = 1381;
}
);
unicode = 196;
},
{
glyphname = Aring;
layers = (
{
layerId = "89A090B5-805C-419F-B0F6-264861EF513B";
shapes = (
{
closed = 1;
nodes = (
(1240.75,108.192,l),
(1358.15,108.192,l),
(1358.15,0,l),
(886.252,0,l),
(886.252,108.192,l),
(1121.05,108.192,l),
(989.839,428.163,l),
(389.03,428.163,l),
(260.121,108.192,l),
(494.92,108.192,l),
(494.92,0,l),
(23.02,0,l),
(23.02,108.192,l),
(145.023,108.192,l),
(589.3,1187.81,l),
(260.121,1187.81,l),
(260.121,1296,l),
(755.04,1296,l)
);
},
{
closed = 1;
nodes = (
(430.465,529.449,l),
(950.706,529.449,l),
(690.586,1160.18,l)
);
},
{
closed = 1;
nodes = (
(764.248,1784.01,o),
(865.534,1682.73,o),
(865.534,1609.06,qs),
(865.534,1535.4,o),
(764.248,1434.12,o),
(690.586,1434.12,qs),
(616.923,1434.12,o),
(515.637,1535.4,o),
(515.637,1609.06,qs),
(515.637,1682.73,o),
(616.923,1784.01,o),
(690.586,1784.01,qs)
);
},
{
closed = 1;
nodes = (
(656.056,1696.54,o),
(603.111,1650.5,o),
(603.111,1609.06,qs),
(603.111,1572.23,o),
(656.056,1521.59,o),
(692.888,1521.59,qs),
(729.719,1521.59,o),
(778.06,1572.23,o),
(778.06,1609.06,qs),
(778.06,1645.9,o),
(729.719,1696.54,o),
(692.888,1696.54,qs)
);
}
);
width = 1381;
}
);
unicode = 197;
},
{
glyphname = AE;
layers = (
{
layerId = "89A090B5-805C-419F-B0F6-264861EF513B";
shapes = (
{
closed = 1;
nodes = (
(1263.77,881.648,l),
(1160.18,881.648,l),
(1139.47,1187.81,l),
(810.287,1187.81,l),
(810.287,741.229,l),
(959.914,741.229,l),
(959.914,909.271,l),
(1065.8,909.271,l),
(1065.8,464.994,l),
(959.914,464.994,l),
(959.914,633.037,l),
(810.287,633.037,l),
(810.287,108.192,l),
(1160.18,108.192,l),
(1174,428.163,l),
(1279.89,428.163,l),
(1279.89,0,l),
(695.19,0,l),
(695.19,423.559,l),
(412.049,423.559,l),
(280.838,108.192,l),
(485.712,108.192,l),
(485.712,0,l),
(43.737,0,l),
(43.737,108.192,l),
(165.741,108.192,l),
(600.809,1187.81,l),
(363.708,1187.81,l),
(363.708,1296,l),
(1263.77,1296,l)
);
},
{
closed = 1;
nodes = (
(690.586,1160.18,l),
(451.183,531.751,l),
(695.19,531.751,l),
(695.19,1160.18,l)
);
}
);
width = 1381;
}
);
unicode = 198;
},
{
glyphname = Ccedilla;
layers = (
{
layerId = "89A090B5-805C-419F-B0F6-264861EF513B";
shapes = (
{
closed = 1;
nodes = (
(814.891,-57.549,l),
(837.911,-57.549,o),
(893.157,-75.964,o),
(941.498,-112.796,o),
(976.028,-165.741,o),
(976.028,-200.27,qs),
(976.028,-209.478,o),
(966.82,-253.215,o),
(932.291,-299.254,o),
(856.326,-333.783,o),
(791.871,-333.783,qs),
(706.699,-333.783,o),
(570.884,-306.16,o),
(538.657,-299.254,q),
(554.77,-197.968,l),
(600.809,-209.478,o),
(715.907,-230.195,o),
(794.173,-230.195,qs),
(810.287,-230.195,ls),
(828.703,-230.195,o),
(867.836,-216.383,o),
(867.836,-200.27,qs),
(867.836,-168.042,o),
(768.852,-147.325,o),
(702.095,-142.721,q),
(715.907,-39.133,l),
(552.468,-23.02,o),
(333.783,124.305,o),
(202.572,329.179,o),
(147.325,561.676,o),
(147.325,662.962,qs),
(147.325,812.589,o),
(241.705,1061.2,o),
(407.446,1238.45,o),
(633.037,1335.13,o),
(764.248,1335.13,qs),
(801.079,1335.13,o),
(943.8,1314.41,o),
(1017.46,1268.38,q),
(1022.07,1263.77,o),
(1045.09,1245.36,o),
(1070.41,1224.64,o),
(1093.43,1210.83,o),
(1098.03,1210.83,qs),
(1104.94,1210.83,o),
(1116.45,1233.85,o),
(1123.35,1268.38,o),
(1130.26,1305.21,o),
(1132.56,1321.32,q),
(1217.73,1321.32,l),
(1213.13,1176.3,o),
(1229.24,973.726,o),
(1240.75,881.648,q),
(1132.56,863.232,l),
(1125.65,902.365,o),
(1095.73,1024.37,o),
(1019.76,1137.16,o),
(879.346,1220.03,o),
(759.644,1220.03,qs),
(672.17,1220.03,o),
(499.524,1153.28,o),
(359.105,1017.46,o),
(271.63,807.985,o),
(271.63,665.264,qs),
(271.63,554.77,o),
(326.877,342.991,o),
(448.881,177.25,o),
(637.641,75.964,o),
(768.852,75.964,qs),
(865.534,75.964,o),
(1031.27,128.909,o),
(1162.49,204.874,o),
(1261.47,285.442,o),
(1291.4,310.764,q),
(1367.36,227.893,l),
(1249.96,117.4,o),
(973.726,-25.322,o),
(814.891,-39.133,q)
);
}
);
width = 1381;
}
);
unicode = 199;
},
{
glyphname = Egrave;
layers = (
{
layerId = "89A090B5-805C-419F-B0F6-264861EF513B";
shapes = (
{
closed = 1;
nodes = (
(1387.016,980.128,l),
(1267.872,980.128,l),
(1242.02,1335.312,l),
(496.808,1335.312,l),
(496.808,830.636,l),
(916.06,830.636,l),
(916.06,1019.468,l),
(1035.204,1019.468,l),
(1035.204,522.66,l),
(916.06,522.66,l),
(916.06,709.244,l),
(496.808,709.244,l),
(496.808,121.392,l),
(1267.872,121.392,l),
(1280.236,476.576,l),
(1399.38,476.576,l),
(1399.38,0,l),
(147.244,0,l),
(147.244,121.392,l),
(367.548,121.392,l),
(367.548,1335.312,l),
(147.244,1335.312,l),
(147.244,1456.704,l),
(1376.9,1456.704,l)
);
},
{
closed = 1;
nodes = (
(967.764,1607.592,l),
(832.884,1607.592,l),
(491.188,1905.452,l),
(768.816,1905.452,l)
);
}
);
width = 1381;
}
);
unicode = 200;
},
{
glyphname = Eacute;
layers = (
{
layerId = "89A090B5-805C-419F-B0F6-264861EF513B";
shapes = (
{
closed = 1;
nodes = (
(1387.016,980.128,l),
(1267.872,980.128,l),
(1242.02,1335.312,l),
(496.808,1335.312,l),
(496.808,830.636,l),
(916.06,830.636,l),
(916.06,1019.468,l),
(1035.204,1019.468,l),
(1035.204,522.66,l),
(916.06,522.66,l),
(916.06,709.244,l),
(496.808,709.244,l),
(496.808,121.392,l),
(1267.872,121.392,l),
(1280.236,476.576,l),
(1399.38,476.576,l),
(1399.38,0,l),
(147.244,0,l),
(147.244,121.392,l),
(367.548,121.392,l),
(367.548,1335.312,l),
(147.244,1335.312,l),
(147.244,1456.704,l),
(1376.9,1456.704,l)
);
},
{
closed = 1;
nodes = (
(556.38,1607.592,l),
(786.8,1905.452,l),
(1063.304,1905.452,l),
(693.508,1607.592,l)
);
}
);
width = 1381;
}
);
unicode = 201;
},
{
glyphname = Ecircumflex;
layers = (
{
layerId = "89A090B5-805C-419F-B0F6-264861EF513B";
shapes = (
{
closed = 1;
nodes = (
(1387.016,980.128,l),
(1267.872,980.128,l),
(1242.02,1335.312,l),
(496.808,1335.312,l),
(496.808,830.636,l),
(916.06,830.636,l),
(916.06,1019.468,l),
(1035.204,1019.468,l),
(1035.204,522.66,l),
(916.06,522.66,l),
(916.06,709.244,l),
(496.808,709.244,l),
(496.808,121.392,l),
(1267.872,121.392,l),
(1280.236,476.576,l),
(1399.38,476.576,l),
(1399.38,0,l),
(147.244,0,l),
(147.244,121.392,l),
(367.548,121.392,l),
(367.548,1335.312,l),
(147.244,1335.312,l),
(147.244,1456.704,l),
(1376.9,1456.704,l)
);
},
{
closed = 1;
nodes = (
(1107.14,1669.412,l),
(1025.088,1605.344,l),
(763.196,1776.192,l),
(528.28,1605.344,l),
(442.856,1667.164,l),
(669.904,1913.32,l),
(868.852,1913.32,l)
);
}
);
width = 1381;
}
);
unicode = 202;
},
{
glyphname = Edieresis;
layers = (
{
layerId = "89A090B5-805C-419F-B0F6-264861EF513B";
shapes = (
{
closed = 1;
nodes = (
(1387.016,980.128,l),
(1267.872,980.128,l),
(1242.02,1335.312,l),
(496.808,1335.312,l),
(496.808,830.636,l),
(916.06,830.636,l),
(916.06,1019.468,l),
(1035.204,1019.468,l),
(1035.204,522.66,l),
(916.06,522.66,l),
(916.06,709.244,l),
(496.808,709.244,l),
(496.808,121.392,l),
(1267.872,121.392,l),
(1280.236,476.576,l),
(1399.38,476.576,l),
(1399.38,0,l),
(147.244,0,l),
(147.244,121.392,l),
(367.548,121.392,l),
(367.548,1335.312,l),
(147.244,1335.312,l),
(147.244,1456.704,l),
(1376.9,1456.704,l)
);
},
{
closed = 1;
nodes = (
(701.376,1913.32,l),
(701.376,1633.444,l),
(514.792,1633.444,l),
(514.792,1913.32,l)
);
},
{
closed = 1;
nodes = (
(1037.452,1913.32,l),
(1037.452,1633.444,l),
(850.868,1633.444,l),
(850.868,1913.32,l)
);
}
);
width = 1381;
}
);
unicode = 203;
},
{
glyphname = Igrave;
layers = (
{
layerId = "89A090B5-805C-419F-B0F6-264861EF513B";
shapes = (
{
closed = 1;
nodes = (
(1293.724,1335.312,l),
(840.752,1335.312,l),
(840.752,121.392,l),
(1293.724,121.392,l),
(1293.724,0,l),
(258.52,0,l),
(258.52,121.392,l),
(711.492,121.392,l),
(711.492,1335.312,l),
(258.52,1335.312,l),
(258.52,1456.704,l),
(1293.724,1456.704,l)
);
},
{
closed = 1;
nodes = (
(967.764,1607.592,l),
(832.884,1607.592,l),
(491.188,1905.452,l),
(768.816,1905.452,l)
);
}
);
width = 1381;
}
);
unicode = 204;
},
{
glyphname = Iacute;
layers = (
{
layerId = "89A090B5-805C-419F-B0F6-264861EF513B";
shapes = (
{
closed = 1;
nodes = (
(1293.724,1335.312,l),
(840.752,1335.312,l),
(840.752,121.392,l),
(1293.724,121.392,l),
(1293.724,0,l),
(258.52,0,l),
(258.52,121.392,l),
(711.492,121.392,l),
(711.492,1335.312,l),
(258.52,1335.312,l),
(258.52,1456.704,l),
(1293.724,1456.704,l)
);
},
{
closed = 1;
nodes = (
(556.38,1607.592,l),
(786.8,1905.452,l),
(1063.304,1905.452,l),
(693.508,1607.592,l)
);
}
);
width = 1381;
}
);
unicode = 205;
},
{
glyphname = Icircumflex;
layers = (
{
layerId = "89A090B5-805C-419F-B0F6-264861EF513B";
shapes = (
{
closed = 1;
nodes = (
(1293.724,1335.312,l),
(840.752,1335.312,l),
(840.752,121.392,l),
(1293.724,121.392,l),
(1293.724,0,l),
(258.52,0,l),
(258.52,121.392,l),
(711.492,121.392,l),
(711.492,1335.312,l),
(258.52,1335.312,l),
(258.52,1456.704,l),
(1293.724,1456.704,l)
);
},
{
closed = 1;
nodes = (
(1107.14,1669.412,l),
(1025.088,1605.344,l),
(763.196,1776.192,l),
(528.28,1605.344,l),
(442.856,1667.164,l),
(669.904,1913.32,l),
(868.852,1913.32,l)
);
}
);
width = 1381;
}
);
unicode = 206;
},
{
glyphname = Idieresis;
layers = (
{
layerId = "89A090B5-805C-419F-B0F6-264861EF513B";
shapes = (
{
closed = 1;
nodes = (
(1293.724,1335.312,l),
(840.752,1335.312,l),
(840.752,121.392,l),
(1293.724,121.392,l),
(1293.724,0,l),
(258.52,0,l),
(258.52,121.392,l),
(711.492,121.392,l),
(711.492,1335.312,l),
(258.52,1335.312,l),
(258.52,1456.704,l),
(1293.724,1456.704,l)
);
},
{
closed = 1;
nodes = (
(701.376,1913.32,l),
(701.376,1633.444,l),
(514.792,1633.444,l),
(514.792,1913.32,l)
);
},
{
closed = 1;
nodes = (
(1037.452,1913.32,l),
(1037.452,1633.444,l),
(850.868,1633.444,l),
(850.868,1913.32,l)
);
}
);
width = 1381;
}
);
unicode = 207;
},
{
glyphname = Eth;
layers = (
{
layerId = "89A090B5-805C-419F-B0F6-264861EF513B";
shapes = (
{
closed = 1;
nodes = (
(78.266,738.927,l),
(260.121,738.927,l),
(260.121,1187.81,l),
(78.266,1187.81,l),
(78.266,1296,l),
(653.754,1296,ls),
(729.719,1296,o),
(860.93,1284.49,o),
(973.726,1249.96,o),
(1077.31,1180.9,o),
(1125.65,1123.35,qs),
(1176.3,1061.2,o),
(1233.85,927.687,o),
(1261.47,803.381,o),
(1268.38,702.095,o),
(1268.38,672.17,qs),
(1268.38,464.994,o),
(1150.98,204.874,o),
(1077.31,133.513,qs),
(1024.37,82.87,o),
(900.063,29.925,o),
(780.362,4.604,o),
(676.774,0,o),
(644.547,0,qs),
(78.266,0,l),
(78.266,108.192,l),
(260.121,108.192,l),
(260.121,630.735,l),
(78.266,630.735,l)
);
},
{
closed = 1;
nodes = (
(375.218,108.192,l),
(644.547,108.192,ls),
(674.472,108.192,o),
(757.342,110.494,o),
(851.722,131.211,o),
(948.404,174.948,o),
(989.839,216.383,qs),
(1051.99,278.536,o),
(1144.07,506.429,o),
(1144.07,665.264,q),
(1141.77,773.456,o),
(1102.64,925.385,o),
(1047.39,1028.97,o),
(985.235,1095.73,o),
(959.914,1116.45,q),
(900.063,1162.49,o),
(755.04,1187.81,o),
(656.056,1187.81,qs),
(375.218,1187.81,l),
(375.218,738.927,l),
(757.342,738.927,l),
(757.342,630.735,l),
(375.218,630.735,l)
);
}
);
width = 1381;
}
);
unicode = 208;
},
{
glyphname = Ntilde;
layers = (
{
layerId = "89A090B5-805C-419F-B0F6-264861EF513B";
shapes = (
{
closed = 1;
nodes = (
(1195.936,109.028,l),
(1242.02,109.028,l),
(1242.02,1335.312,l),
(952.028,1335.312,l),
(952.028,1456.704,l),
(1528.64,1456.704,l),
(1528.64,1335.312,l),
(1361.164,1335.312,l),
(1361.164,-33.72,l),
(1130.744,-33.72,l),
(437.236,1335.312,l),
(393.4,1335.312,l),
(393.4,121.392,l),
(685.64,121.392,l),
(685.64,0,l),
(71.936,0,l),
(71.936,121.392,l),
(274.256,121.392,l),
(274.256,1335.312,l),
(71.936,1335.312,l),
(71.936,1456.704,l),
(514.792,1456.704,l)
);
},
{
closed = 1;
nodes = (
(1190.316,1873.98,l),
(1184.696,1868.36,o),
(1184.696,1855.996,q),
(1154.348,1746.968,o),
(1013.848,1635.692,o),
(931.796,1635.692,qs),
(887.96,1635.692,o),
(807.032,1671.66,o),
(747.46,1718.868,q),
(685.64,1764.952,o),
(633.936,1794.176,o),
(605.836,1794.176,qs),
(554.132,1794.176,o),
(491.188,1711,o),
(470.956,1659.296,q),
(470.956,1657.048,o),
(468.708,1651.428,q),
(465.336,1643.56,l),
(361.928,1679.528,l),
(399.02,1778.44,o),
(509.172,1909.948,o),
(605.836,1909.948,qs),
(667.656,1909.948,o),
(755.328,1858.244,o),
(796.916,1822.276,q),
(846.372,1786.308,o),
(910.44,1752.588,o),
(939.664,1752.588,qs),
(973.384,1752.588,o),
(1021.716,1786.308,o),
(1057.684,1834.64,o),
(1079.04,1886.344,o),
(1086.908,1907.7,q)
);
}
);
width = 1381;
}
);
unicode = 209;
},
{
glyphname = Ograve;
layers = (
{
layerId = "89A090B5-805C-419F-B0F6-264861EF513B";
shapes = (
{
closed = 1;
nodes = (
(111.276,887.96,o),
(204.568,1168.96,o),
(377.664,1379.148,o),
(623.82,1500.54,o),
(776.684,1500.54,qs),
(931.796,1500.54,o),
(1176.828,1376.9,o),
(1351.048,1164.464,o),
(1440.968,884.588,o),
(1440.968,727.228,qs),
(1440.968,572.116,o),
(1347.676,289.992,o),
(1176.828,79.804,o),
(931.796,-43.836,o),
(776.684,-43.836,qs),
(623.82,-43.836,o),
(377.664,77.556,o),
(204.568,287.744,o),
(111.276,566.496,o),
(111.276,727.228,qs)
);
},
{
closed = 1;
nodes = (
(250.652,613.704,o),
(318.092,383.284,o),
(450.724,198.948,o),
(646.3,85.424,o),
(776.684,85.424,qs),
(902.572,85.424,o),
(1099.272,196.7,o),
(1234.152,377.664,o),
(1301.592,608.084,o),
(1301.592,729.476,qs),
(1301.592,850.868,o),
(1231.904,1084.66,o),
(1097.024,1262.252,o),
(902.572,1371.28,o),
(776.684,1371.28,qs),
(641.804,1371.28,o),
(445.104,1254.384,o),
(315.844,1071.172,o),
(250.652,840.752,o),
(250.652,729.476,qs)
);
},
{
closed = 1;
nodes = (
(967.764,1607.592,l),
(832.884,1607.592,l),
(491.188,1905.452,l),
(768.816,1905.452,l)
);
}
);
width = 1381;
}
);
unicode = 210;
},
{
glyphname = Oacute;
layers = (
{
layerId = "89A090B5-805C-419F-B0F6-264861EF513B";
shapes = (
{
closed = 1;
nodes = (
(111.276,887.96,o),
(204.568,1168.96,o),
(377.664,1379.148,o),
(623.82,1500.54,o),
(776.684,1500.54,qs),
(931.796,1500.54,o),
(1176.828,1376.9,o),
(1351.048,1164.464,o),
(1440.968,884.588,o),
(1440.968,727.228,qs),
(1440.968,572.116,o),
(1347.676,289.992,o),
(1176.828,79.804,o),
(931.796,-43.836,o),
(776.684,-43.836,qs),
(623.82,-43.836,o),
(377.664,77.556,o),
(204.568,287.744,o),
(111.276,566.496,o),
(111.276,727.228,qs)
);
},
{
closed = 1;
nodes = (
(250.652,613.704,o),
(318.092,383.284,o),
(450.724,198.948,o),
(646.3,85.424,o),
(776.684,85.424,qs),
(902.572,85.424,o),
(1099.272,196.7,o),
(1234.152,377.664,o),
(1301.592,608.084,o),
(1301.592,729.476,qs),
(1301.592,850.868,o),
(1231.904,1084.66,o),
(1097.024,1262.252,o),
(902.572,1371.28,o),
(776.684,1371.28,qs),
(641.804,1371.28,o),
(445.104,1254.384,o),
(315.844,1071.172,o),
(250.652,840.752,o),
(250.652,729.476,qs)
);
},
{
closed = 1;
nodes = (
(556.38,1607.592,l),
(786.8,1905.452,l),
(1063.304,1905.452,l),
(693.508,1607.592,l)
);
}
);
width = 1381;
}
);
unicode = 211;
},
{
glyphname = Ocircumflex;
layers = (
{
layerId = "89A090B5-805C-419F-B0F6-264861EF513B";
shapes = (
{
closed = 1;
nodes = (
(111.276,887.96,o),
(204.568,1168.96,o),
(377.664,1379.148,o),
(623.82,1500.54,o),
(776.684,1500.54,qs),
(931.796,1500.54,o),
(1176.828,1376.9,o),
(1351.048,1164.464,o),
(1440.968,884.588,o),
(1440.968,727.228,qs),
(1440.968,572.116,o),
(1347.676,289.992,o),
(1176.828,79.804,o),
(931.796,-43.836,o),
(776.684,-43.836,qs),
(623.82,-43.836,o),
(377.664,77.556,o),
(204.568,287.744,o),
(111.276,566.496,o),
(111.276,727.228,qs)
);
},
{
closed = 1;
nodes = (
(250.652,613.704,o),
(318.092,383.284,o),
(450.724,198.948,o),
(646.3,85.424,o),
(776.684,85.424,qs),
(902.572,85.424,o),
(1099.272,196.7,o),
(1234.152,377.664,o),
(1301.592,608.084,o),
(1301.592,729.476,qs),
(1301.592,850.868,o),
(1231.904,1084.66,o),
(1097.024,1262.252,o),
(902.572,1371.28,o),
(776.684,1371.28,qs),
(641.804,1371.28,o),
(445.104,1254.384,o),
(315.844,1071.172,o),
(250.652,840.752,o),
(250.652,729.476,qs)
);
},
{
closed = 1;
nodes = (
(1107.14,1669.412,l),
(1025.088,1605.344,l),
(763.196,1776.192,l),
(528.28,1605.344,l),
(442.856,1667.164,l),
(669.904,1913.32,l),
(868.852,1913.32,l)
);
}
);
width = 1381;
}
);
unicode = 212;
},
{
glyphname = Otilde;
layers = (
{
layerId = "89A090B5-805C-419F-B0F6-264861EF513B";
shapes = (
{
closed = 1;
nodes = (
(111.276,887.96,o),
(204.568,1168.96,o),
(377.664,1379.148,o),
(623.82,1500.54,o),
(776.684,1500.54,qs),
(931.796,1500.54,o),
(1176.828,1376.9,o),
(1351.048,1164.464,o),
(1440.968,884.588,o),
(1440.968,727.228,qs),
(1440.968,572.116,o),
(1347.676,289.992,o),
(1176.828,79.804,o),
(931.796,-43.836,o),
(776.684,-43.836,qs),
(623.82,-43.836,o),
(377.664,77.556,o),
(204.568,287.744,o),
(111.276,566.496,o),
(111.276,727.228,qs)
);
},
{
closed = 1;
nodes = (
(250.652,613.704,o),
(318.092,383.284,o),
(450.724,198.948,o),
(646.3,85.424,o),
(776.684,85.424,qs),
(902.572,85.424,o),
(1099.272,196.7,o),
(1234.152,377.664,o),
(1301.592,608.084,o),
(1301.592,729.476,qs),
(1301.592,850.868,o),
(1231.904,1084.66,o),
(1097.024,1262.252,o),
(902.572,1371.28,o),
(776.684,1371.28,qs),
(641.804,1371.28,o),
(445.104,1254.384,o),
(315.844,1071.172,o),
(250.652,840.752,o),
(250.652,729.476,qs)
);
},
{
closed = 1;
nodes = (
(1190.316,1873.98,l),
(1184.696,1868.36,o),
(1184.696,1855.996,q),
(1154.348,1746.968,o),
(1013.848,1635.692,o),
(931.796,1635.692,qs),
(887.96,1635.692,o),
(807.032,1671.66,o),
(747.46,1718.868,q),
(685.64,1764.952,o),
(633.936,1794.176,o),
(605.836,1794.176,qs),
(554.132,1794.176,o),
(491.188,1711,o),
(470.956,1659.296,q),
(470.956,1657.048,o),
(468.708,1651.428,q),
(465.336,1643.56,l),
(361.928,1679.528,l),
(399.02,1778.44,o),
(509.172,1909.948,o),
(605.836,1909.948,qs),
(667.656,1909.948,o),
(755.328,1858.244,o),
(796.916,1822.276,q),
(846.372,1786.308,o),
(910.44,1752.588,o),
(939.664,1752.588,qs),
(973.384,1752.588,o),
(1021.716,1786.308,o),
(1057.684,1834.64,o),
(1079.04,1886.344,o),
(1086.908,1907.7,q)
);
}
);
width = 1381;
}
);
unicode = 213;
},
{
glyphname = Odieresis;
layers = (
{
layerId = "89A090B5-805C-419F-B0F6-264861EF513B";
shapes = (
{
closed = 1;
nodes = (
(111.276,887.96,o),
(204.568,1168.96,o),
(377.664,1379.148,o),
(623.82,1500.54,o),
(776.684,1500.54,qs),
(931.796,1500.54,o),
(1176.828,1376.9,o),
(1351.048,1164.464,o),
(1440.968,884.588,o),
(1440.968,727.228,qs),
(1440.968,572.116,o),
(1347.676,289.992,o),
(1176.828,79.804,o),
(931.796,-43.836,o),
(776.684,-43.836,qs),
(623.82,-43.836,o),
(377.664,77.556,o),
(204.568,287.744,o),
(111.276,566.496,o),
(111.276,727.228,qs)
);
},
{
closed = 1;
nodes = (
(250.652,613.704,o),
(318.092,383.284,o),
(450.724,198.948,o),
(646.3,85.424,o),
(776.684,85.424,qs),
(902.572,85.424,o),
(1099.272,196.7,o),
(1234.152,377.664,o),
(1301.592,608.084,o),
(1301.592,729.476,qs),
(1301.592,850.868,o),
(1231.904,1084.66,o),
(1097.024,1262.252,o),
(902.572,1371.28,o),
(776.684,1371.28,qs),
(641.804,1371.28,o),
(445.104,1254.384,o),
(315.844,1071.172,o),
(250.652,840.752,o),
(250.652,729.476,qs)
);
},
{
closed = 1;
nodes = (
(701.376,1913.32,l),
(701.376,1633.444,l),
(514.792,1633.444,l),
(514.792,1913.32,l)
);
},
{
closed = 1;
nodes = (
(1037.452,1913.32,l),
(1037.452,1633.444,l),
(850.868,1633.444,l),
(850.868,1913.32,l)
);
}
);
width = 1381;
}
);
unicode = 214;
},
{
glyphname = multiply;
layers = (
{
layerId = "89A090B5-805C-419F-B0F6-264861EF513B";
shapes = (
{
closed = 1;
nodes = (
(354.501,1123.35,l),
(690.586,787.268,l),
(1026.67,1123.35,l),
(1109.54,1042.78,l),
(771.154,704.397,l),
(1109.54,368.312,l),
(1026.67,285.442,l),
(690.586,623.829,l),
(354.501,285.442,l),
(271.63,368.312,l),
(610.017,704.397,l),
(271.63,1042.78,l)
);
}
);
width = 1381;
}
);
unicode = 215;
},
{
glyphname = Oslash;
layers = (
{
layerId = "89A090B5-805C-419F-B0F6-264861EF513B";
shapes = (
{
closed = 1;
nodes = (
(147.325,9.208,l),
(262.423,158.835,l),
(232.497,197.968,o),
(172.646,292.348,o),
(126.607,409.747,o),
(98.984,554.77,o),
(98.984,644.547,qs),
(98.984,787.268,o),
(181.854,1038.18,o),
(336.085,1226.94,o),
(554.77,1335.13,o),
(692.888,1335.13,qs),
(771.154,1335.13,o),
(888.553,1305.21,o),
(978.33,1261.47,o),
(1040.48,1210.83,o),
(1065.8,1192.41,q),
(1155.58,1305.21,l),
(1236.15,1245.36,l),
(1134.86,1116.45,l),
(1190.11,1049.69,o),
(1249.96,897.761,o),
(1277.58,759.644,o),
(1282.19,658.358,o),
(1282.19,642.245,qs),
(1282.19,506.429,o),
(1201.62,257.819,o),
(1049.69,71.361,o),
(833.307,-39.133,o),
(699.793,-39.133,qs),
(630.735,-39.133,o),
(444.277,2.302,o),
(340.689,85.172,q),
(225.591,-52.945,l)
);
},
{
closed = 1;
nodes = (
(407.446,179.552,l),
(423.559,165.741,o),
(471.9,131.211,o),
(540.959,98.984,o),
(630.735,75.964,o),
(690.586,75.964,qs),
(796.475,75.964,o),
(969.122,165.741,o),
(1091.13,319.971,o),
(1157.88,527.147,o),
(1157.88,644.547,qs),
(1157.88,847.118,o),
(1056.6,1015.16,q)
);
},
{
closed = 1;
nodes = (
(992.141,1098.03,l),
(957.612,1137.16,o),
(877.044,1185.51,o),
(796.475,1210.83,o),
(718.209,1220.03,o),
(688.284,1220.03,qs),
(577.79,1220.03,o),
(405.144,1123.35,o),
(285.442,964.518,o),
(223.289,759.644,o),
(223.289,651.452,qs),
(223.289,619.225,o),
(232.497,520.241,o),
(260.121,409.747,o),
(306.16,299.254,o),
(340.689,257.819,q)
);
}
);
width = 1381;
}
);
unicode = 216;
},
{
glyphname = Ugrave;
layers = (
{
layerId = "89A090B5-805C-419F-B0F6-264861EF513B";
shapes = (
{
closed = 1;
nodes = (
(641.804,1335.312,l),
(377.664,1335.312,l),
(377.664,605.836,ls),
(377.664,524.908,o),
(391.152,343.944,o),
(427.12,268.636,qs),
(463.088,191.08,o),
(623.82,85.424,o),
(773.312,85.424,qs),
(926.176,85.424,o),
(1089.156,176.468,o),
(1125.124,248.404,q),
(1164.464,318.092,o),
(1176.828,491.188,o),
(1176.828,579.984,qs),
(1176.828,1335.312,l),
(913.812,1335.312,l),
(913.812,1456.704,l),
(1492.672,1456.704,l),
(1492.672,1335.312,l),
(1306.088,1335.312,l),
(1306.088,579.984,ls),
(1306.088,481.072,o),
(1293.724,343.944,o),
(1267.872,242.784,o),
(1234.152,173.096,o),
(1213.92,144.996,q),
(1192.564,113.524,o),
(1115.008,49.456,o),
(1003.732,-7.868,o),
(862.108,-43.836,o),
(776.684,-43.836,qs),
(729.476,-43.836,o),
(613.704,-28.1,o),
(494.56,17.984,o),
(379.912,95.54,o),
(336.076,157.36,qs),
(302.356,204.568,o),
(266.388,323.712,o),
(250.652,445.104,o),
(248.404,562,o),
(248.404,605.836,qs),
(248.404,1335.312,l),
(61.82,1335.312,l),
(61.82,1456.704,l),
(641.804,1456.704,l)
);
},
{
closed = 1;
nodes = (
(967.764,1607.592,l),
(832.884,1607.592,l),
(491.188,1905.452,l),
(768.816,1905.452,l)
);
}
);
width = 1381;
}
);
unicode = 217;
},
{
glyphname = Uacute;
layers = (
{
layerId = "89A090B5-805C-419F-B0F6-264861EF513B";
shapes = (
{
closed = 1;
nodes = (
(641.804,1335.312,l),
(377.664,1335.312,l),
(377.664,605.836,ls),
(377.664,524.908,o),
(391.152,343.944,o),
(427.12,268.636,qs),
(463.088,191.08,o),
(623.82,85.424,o),
(773.312,85.424,qs),
(926.176,85.424,o),
(1089.156,176.468,o),
(1125.124,248.404,q),
(1164.464,318.092,o),
(1176.828,491.188,o),
(1176.828,579.984,qs),
(1176.828,1335.312,l),
(913.812,1335.312,l),
(913.812,1456.704,l),
(1492.672,1456.704,l),
(1492.672,1335.312,l),
(1306.088,1335.312,l),
(1306.088,579.984,ls),
(1306.088,481.072,o),
(1293.724,343.944,o),
(1267.872,242.784,o),
(1234.152,173.096,o),
(1213.92,144.996,q),
(1192.564,113.524,o),
(1115.008,49.456,o),
(1003.732,-7.868,o),
(862.108,-43.836,o),
(776.684,-43.836,qs),
(729.476,-43.836,o),
(613.704,-28.1,o),
(494.56,17.984,o),
(379.912,95.54,o),
(336.076,157.36,qs),
(302.356,204.568,o),
(266.388,323.712,o),
(250.652,445.104,o),
(248.404,562,o),
(248.404,605.836,qs),
(248.404,1335.312,l),
(61.82,1335.312,l),
(61.82,1456.704,l),
(641.804,1456.704,l)
);
},
{
closed = 1;
nodes = (
(556.38,1607.592,l),
(786.8,1905.452,l),
(1063.304,1905.452,l),
(693.508,1607.592,l)
);
}
);
width = 1381;
}
);
unicode = 218;
},
{
glyphname = Ucircumflex;
layers = (
{
layerId = "89A090B5-805C-419F-B0F6-264861EF513B";
shapes = (
{
closed = 1;
nodes = (
(641.804,1335.312,l),
(377.664,1335.312,l),
(377.664,605.836,ls),
(377.664,524.908,o),
(391.152,343.944,o),
(427.12,268.636,qs),
(463.088,191.08,o),
(623.82,85.424,o),
(773.312,85.424,qs),
(926.176,85.424,o),
(1089.156,176.468,o),
(1125.124,248.404,q),
(1164.464,318.092,o),
(1176.828,491.188,o),
(1176.828,579.984,qs),
(1176.828,1335.312,l),
(913.812,1335.312,l),
(913.812,1456.704,l),
(1492.672,1456.704,l),
(1492.672,1335.312,l),
(1306.088,1335.312,l),
(1306.088,579.984,ls),
(1306.088,481.072,o),
(1293.724,343.944,o),
(1267.872,242.784,o),
(1234.152,173.096,o),
(1213.92,144.996,q),
(1192.564,113.524,o),
(1115.008,49.456,o),
(1003.732,-7.868,o),
(862.108,-43.836,o),
(776.684,-43.836,qs),
(729.476,-43.836,o),
(613.704,-28.1,o),
(494.56,17.984,o),
(379.912,95.54,o),
(336.076,157.36,qs),
(302.356,204.568,o),
(266.388,323.712,o),
(250.652,445.104,o),
(248.404,562,o),
(248.404,605.836,qs),
(248.404,1335.312,l),
(61.82,1335.312,l),
(61.82,1456.704,l),
(641.804,1456.704,l)
);
},
{
closed = 1;
nodes = (
(1107.14,1669.412,l),
(1025.088,1605.344,l),
(763.196,1776.192,l),
(528.28,1605.344,l),
(442.856,1667.164,l),
(669.904,1913.32,l),
(868.852,1913.32,l)
);
}
);
width = 1381;
}
);
unicode = 219;
},
{
glyphname = Udieresis;
layers = (
{
layerId = "89A090B5-805C-419F-B0F6-264861EF513B";
shapes = (
{
closed = 1;
nodes = (
(641.804,1335.312,l),
(377.664,1335.312,l),
(377.664,605.836,ls),
(377.664,524.908,o),
(391.152,343.944,o),
(427.12,268.636,qs),
(463.088,191.08,o),
(623.82,85.424,o),
(773.312,85.424,qs),
(926.176,85.424,o),
(1089.156,176.468,o),
(1125.124,248.404,q),
(1164.464,318.092,o),
(1176.828,491.188,o),
(1176.828,579.984,qs),
(1176.828,1335.312,l),
(913.812,1335.312,l),
(913.812,1456.704,l),
(1492.672,1456.704,l),
(1492.672,1335.312,l),
(1306.088,1335.312,l),
(1306.088,579.984,ls),
(1306.088,481.072,o),
(1293.724,343.944,o),
(1267.872,242.784,o),
(1234.152,173.096,o),
(1213.92,144.996,q),
(1192.564,113.524,o),
(1115.008,49.456,o),
(1003.732,-7.868,o),
(862.108,-43.836,o),
(776.684,-43.836,qs),
(729.476,-43.836,o),
(613.704,-28.1,o),
(494.56,17.984,o),
(379.912,95.54,o),
(336.076,157.36,qs),
(302.356,204.568,o),
(266.388,323.712,o),
(250.652,445.104,o),
(248.404,562,o),
(248.404,605.836,qs),
(248.404,1335.312,l),
(61.82,1335.312,l),
(61.82,1456.704,l),
(641.804,1456.704,l)
);
},
{
closed = 1;
nodes = (
(701.376,1913.32,l),
(701.376,1633.444,l),
(514.792,1633.444,l),
(514.792,1913.32,l)
);
},
{
closed = 1;
nodes = (
(1037.452,1913.32,l),
(1037.452,1633.444,l),
(850.868,1633.444,l),
(850.868,1913.32,l)
);
}
);
width = 1381;
}
);
unicode = 220;
},
{
glyphname = Yacute;
layers = (
{
layerId = "89A090B5-805C-419F-B0F6-264861EF513B";
shapes = (
{
closed = 1;
nodes = (
(590.1,1335.312,l),
(393.4,1335.312,l),
(783.428,693.508,l),
(1168.96,1335.312,l),
(967.764,1335.312,l),
(967.764,1456.704,l),
(1470.192,1456.704,l),
(1470.192,1335.312,l),
(1306.088,1335.312,l),
(843,564.248,l),
(843,121.392,l),
(1148.728,121.392,l),
(1148.728,0,l),
(405.764,0,l),
(405.764,121.392,l),
(713.74,121.392,l),
(713.74,564.248,l),
(246.156,1335.312,l),
(83.176,1335.312,l),
(83.176,1456.704,l),
(590.1,1456.704,l)
);
},
{
closed = 1;
nodes = (
(556.38,1607.592,l),
(786.8,1905.452,l),
(1063.304,1905.452,l),
(693.508,1607.592,l)
);
}
);
width = 1381;
}
);
unicode = 221;
},
{
glyphname = Thorn;
layers = (
{
layerId = "89A090B5-805C-419F-B0F6-264861EF513B";
shapes = (
{
closed = 1;
nodes = (
(725.115,0,l),
(163.439,0,l),
(163.439,108.192,l),
(349.897,108.192,l),
(349.897,1187.81,l),
(163.439,1187.81,l),
(163.439,1296,l),
(725.115,1296,l),
(725.115,1187.81,l),
(464.994,1187.81,l),
(464.994,1070.41,l),
(591.602,1070.41,ls),
(697.491,1070.41,o),
(842.514,1065.8,o),
(946.102,1049.69,o),
(1022.07,1022.07,o),
(1058.9,999.047,qs),
(1132.56,953.008,o),
(1229.24,784.966,o),
(1229.24,679.076,qs),
(1229.24,575.488,o),
(1132.56,393.634,o),
(1058.9,352.199,q),
(1017.46,326.877,o),
(939.196,299.254,o),
(835.609,285.442,o),
(695.19,283.14,o),
(591.602,283.14,qs),
(464.994,283.14,l),
(464.994,108.192,l),
(725.115,108.192,l)
);
},
{
closed = 1;
nodes = (
(464.994,391.332,l),
(596.206,391.332,ls),
(736.625,391.332,o),
(948.404,405.144,o),
(1008.25,453.485,qs),
(1040.48,478.806,o),
(1104.94,589.3,o),
(1104.94,672.17,qs),
(1104.94,766.55,o),
(1012.86,893.157,o),
(966.82,916.177,q),
(946.102,927.687,o),
(900.063,943.8,o),
(837.911,955.31,o),
(752.738,962.216,o),
(690.586,962.216,qs),
(464.994,962.216,l)
);
}
);
width = 1381;
}
);
unicode = 222;
},
{
glyphname = germandbls;
layers = (
{
layerId = "89A090B5-805C-419F-B0F6-264861EF513B";
shapes = (
{
closed = 1;
nodes = (
(324.575,1038.18,ls),
(324.575,1130.26,o),
(386.728,1279.89,o),
(490.316,1383.47,o),
(623.829,1438.72,o),
(697.491,1438.72,qs),
(773.456,1438.72,o),
(895.459,1385.78,o),
(978.33,1296,o),
(1024.37,1176.3,o),
(1024.37,1109.54,qs),
(1024.37,1005.95,o),
(913.875,849.42,o),
(833.307,817.193,q),
(865.534,805.683,o),
(982.934,757.342,o),
(1095.73,658.358,o),
(1180.9,494.92,o),
(1180.9,370.614,qs),
(1180.9,294.65,o),
(1132.56,154.231,o),
(1035.88,48.341,o),
(895.459,-16.114,o),
(803.381,-16.114,qs),
(690.586,-16.114,o),
(566.28,41.435,o),
(538.657,59.851,q),
(538.657,179.552,l),
(580.092,154.231,o),
(709,98.984,o),
(801.078,98.984,qs),
(842.513,98.984,o),
(932.29,128.909,o),
(1008.249,195.666,o),
(1056.599,303.858,o),
(1056.599,382.124,qs),
(1056.599,732.021,o),
(591.601,750.436,q),
(591.601,856.326,l),
(614.62,858.628,o),
(718.208,872.44,o),
(824.098,923.083,o),
(904.666,1019.76,o),
(904.666,1107.24,qs),
(904.666,1199.32,o),
(798.776,1323.62,o),
(692.887,1323.62,qs),
(649.149,1323.62,o),
(559.373,1293.7,o),
(485.711,1224.64,o),
(439.672,1107.24,o),
(439.672,1019.76,qs),
(439.672,0,l),
(149.626,0,l),
(149.626,108.192,l),
(324.574,108.192,l)
);
}
);
width = 1381;
}
);
unicode = 223;
},
{
glyphname = agrave;
layers = (
{
layerId = "89A090B5-805C-419F-B0F6-264861EF513B";
shapes = (
{
closed = 1;
nodes = (
(1422.984,121.392,l),
(1422.984,0,l),
(1063.304,0,l),
(1063.304,186.584,l),
(1025.088,150.616,o),
(918.308,69.688,o),
(794.668,5.62,o),
(649.672,-35.968,o),
(568.744,-35.968,qs),
(470.956,-35.968,o),
(318.092,28.1,o),
(209.064,131.508,o),
(152.864,260.768,o),
(152.864,328.208,qs),
(152.864,379.912,o),
(204.568,514.792,o),
(328.208,636.184,o),
(540.644,719.36,o),
(701.376,719.36,qs),
(709.244,719.36,o),
(781.18,717.112,o),
(882.34,709.244,o),
(1003.732,695.756,o),
(1063.304,685.64,q),
(1063.304,765.444,ls),
(1063.304,796.916,o),
(1053.188,890.208,o),
(995.864,977.88,o),
(866.604,1039.7,o),
(750.832,1039.7,qs),
(680.02,1039.7,o),
(463.088,999.236,o),
(307.976,931.796,q),
(258.52,1047.568,l),
(341.696,1084.66,o),
(597.968,1164.464,o),
(753.08,1164.464,qs),
(918.308,1164.464,o),
(1097.024,1068.924,o),
(1180.2,936.292,o),
(1192.564,804.784,o),
(1192.564,765.444,qs),
(1192.564,121.392,l)
);
},
{
closed = 1;
nodes = (
(1063.304,566.496,l),
(1019.468,574.364,o),
(836.256,594.596,o),
(727.228,594.596,qs),
(566.496,594.596,o),
(391.152,520.412,o),
(307.976,424.872,o),
(292.24,336.076,o),
(292.24,325.96,qs),
(292.24,276.504,o),
(336.076,191.08,o),
(413.632,127.012,o),
(512.544,87.672,o),
(566.496,87.672,qs),
(597.968,87.672,o),
(699.128,103.408,o),
(828.388,157.36,o),
(980.128,266.388,o),
(1063.304,359.68,q)
);
},
{
closed = 1;
nodes = (
(967.764,1301.592,l),
(832.884,1301.592,l),
(491.188,1599.452,l),
(768.816,1599.452,l)
);
}
);
width = 1381;
}
);
unicode = 224;
},
{
glyphname = aacute;
layers = (
{
layerId = "89A090B5-805C-419F-B0F6-264861EF513B";
shapes = (
{
closed = 1;
nodes = (
(1422.984,121.392,l),
(1422.984,0,l),
(1063.304,0,l),
(1063.304,186.584,l),
(1025.088,150.616,o),
(918.308,69.688,o),
(794.668,5.62,o),
(649.672,-35.968,o),
(568.744,-35.968,qs),
(470.956,-35.968,o),
(318.092,28.1,o),
(209.064,131.508,o),
(152.864,260.768,o),
(152.864,328.208,qs),
(152.864,379.912,o),
(204.568,514.792,o),
(328.208,636.184,o),
(540.644,719.36,o),
(701.376,719.36,qs),
(709.244,719.36,o),
(781.18,717.112,o),
(882.34,709.244,o),
(1003.732,695.756,o),
(1063.304,685.64,q),
(1063.304,765.444,ls),
(1063.304,796.916,o),
(1053.188,890.208,o),
(995.864,977.88,o),
(866.604,1039.7,o),
(750.832,1039.7,qs),
(680.02,1039.7,o),
(463.088,999.236,o),
(307.976,931.796,q),
(258.52,1047.568,l),
(341.696,1084.66,o),
(597.968,1164.464,o),
(753.08,1164.464,qs),
(918.308,1164.464,o),
(1097.024,1068.924,o),
(1180.2,936.292,o),
(1192.564,804.784,o),
(1192.564,765.444,qs),
(1192.564,121.392,l)
);
},
{
closed = 1;
nodes = (
(1063.304,566.496,l),
(1019.468,574.364,o),
(836.256,594.596,o),
(727.228,594.596,qs),
(566.496,594.596,o),
(391.152,520.412,o),
(307.976,424.872,o),
(292.24,336.076,o),
(292.24,325.96,qs),
(292.24,276.504,o),
(336.076,191.08,o),
(413.632,127.012,o),
(512.544,87.672,o),
(566.496,87.672,qs),
(597.968,87.672,o),
(699.128,103.408,o),
(828.388,157.36,o),
(980.128,266.388,o),
(1063.304,359.68,q)
);
},
{
closed = 1;
nodes = (
(556.38,1301.592,l),
(786.8,1599.452,l),
(1063.304,1599.452,l),
(693.508,1301.592,l)
);
}
);
width = 1381;
}
);
unicode = 225;
},
{
glyphname = acircumflex;
layers = (
{
layerId = "89A090B5-805C-419F-B0F6-264861EF513B";
shapes = (
{
closed = 1;
nodes = (
(1422.984,121.392,l),
(1422.984,0,l),
(1063.304,0,l),
(1063.304,186.584,l),
(1025.088,150.616,o),
(918.308,69.688,o),
(794.668,5.62,o),
(649.672,-35.968,o),
(568.744,-35.968,qs),
(470.956,-35.968,o),
(318.092,28.1,o),
(209.064,131.508,o),
(152.864,260.768,o),
(152.864,328.208,qs),
(152.864,379.912,o),
(204.568,514.792,o),
(328.208,636.184,o),
(540.644,719.36,o),
(701.376,719.36,qs),
(709.244,719.36,o),
(781.18,717.112,o),
(882.34,709.244,o),
(1003.732,695.756,o),
(1063.304,685.64,q),
(1063.304,765.444,ls),
(1063.304,796.916,o),
(1053.188,890.208,o),
(995.864,977.88,o),
(866.604,1039.7,o),
(750.832,1039.7,qs),
(680.02,1039.7,o),
(463.088,999.236,o),
(307.976,931.796,q),
(258.52,1047.568,l),
(341.696,1084.66,o),
(597.968,1164.464,o),
(753.08,1164.464,qs),
(918.308,1164.464,o),
(1097.024,1068.924,o),
(1180.2,936.292,o),
(1192.564,804.784,o),
(1192.564,765.444,qs),
(1192.564,121.392,l)
);
},
{
closed = 1;
nodes = (
(1063.304,566.496,l),
(1019.468,574.364,o),
(836.256,594.596,o),
(727.228,594.596,qs),
(566.496,594.596,o),
(391.152,520.412,o),
(307.976,424.872,o),
(292.24,336.076,o),
(292.24,325.96,qs),
(292.24,276.504,o),
(336.076,191.08,o),
(413.632,127.012,o),
(512.544,87.672,o),
(566.496,87.672,qs),
(597.968,87.672,o),
(699.128,103.408,o),
(828.388,157.36,o),
(980.128,266.388,o),
(1063.304,359.68,q)
);
},
{
closed = 1;
nodes = (
(1066.14,1363.412,l),
(984.088,1299.344,l),
(722.196,1470.192,l),
(487.28,1299.344,l),
(401.856,1361.164,l),
(628.904,1607.32,l),
(827.852,1607.32,l)
);
}
);
width = 1381;
}
);
unicode = 226;
},
{
glyphname = atilde;
layers = (
{
layerId = "89A090B5-805C-419F-B0F6-264861EF513B";
shapes = (
{
closed = 1;
nodes = (
(1422.984,121.392,l),
(1422.984,0,l),
(1063.304,0,l),
(1063.304,186.584,l),
(1025.088,150.616,o),
(918.308,69.688,o),
(794.668,5.62,o),
(649.672,-35.968,o),
(568.744,-35.968,qs),
(470.956,-35.968,o),
(318.092,28.1,o),
(209.064,131.508,o),
(152.864,260.768,o),
(152.864,328.208,qs),
(152.864,379.912,o),
(204.568,514.792,o),
(328.208,636.184,o),
(540.644,719.36,o),
(701.376,719.36,qs),
(709.244,719.36,o),
(781.18,717.112,o),
(882.34,709.244,o),
(1003.732,695.756,o),
(1063.304,685.64,q),
(1063.304,765.444,ls),
(1063.304,796.916,o),
(1053.188,890.208,o),
(995.864,977.88,o),
(866.604,1039.7,o),
(750.832,1039.7,qs),
(680.02,1039.7,o),
(463.088,999.236,o),
(307.976,931.796,q),
(258.52,1047.568,l),
(341.696,1084.66,o),
(597.968,1164.464,o),
(753.08,1164.464,qs),
(918.308,1164.464,o),
(1097.024,1068.924,o),
(1180.2,936.292,o),
(1192.564,804.784,o),
(1192.564,765.444,qs),
(1192.564,121.392,l)
);
},
{
closed = 1;
nodes = (
(1063.304,566.496,l),
(1019.468,574.364,o),
(836.256,594.596,o),
(727.228,594.596,qs),
(566.496,594.596,o),
(391.152,520.412,o),
(307.976,424.872,o),
(292.24,336.076,o),
(292.24,325.96,qs),
(292.24,276.504,o),
(336.076,191.08,o),
(413.632,127.012,o),
(512.544,87.672,o),
(566.496,87.672,qs),
(597.968,87.672,o),
(699.128,103.408,o),
(828.388,157.36,o),
(980.128,266.388,o),
(1063.304,359.68,q)
);
},
{
closed = 1;
nodes = (
(1190.316,1567.98,l),
(1184.696,1562.36,o),
(1184.696,1549.996,q),
(1154.348,1440.968,o),
(1013.848,1329.692,o),
(931.796,1329.692,qs),
(887.96,1329.692,o),
(807.032,1365.66,o),
(747.46,1412.868,q),
(685.64,1458.952,o),
(633.936,1488.176,o),
(605.836,1488.176,qs),
(554.132,1488.176,o),
(491.188,1405,o),
(470.956,1353.296,q),
(470.956,1351.048,o),
(468.708,1345.428,q),
(465.336,1337.56,l),
(361.928,1373.528,l),
(399.02,1472.44,o),
(509.172,1603.948,o),
(605.836,1603.948,qs),
(667.656,1603.948,o),
(755.328,1552.244,o),
(796.916,1516.276,q),
(846.372,1480.308,o),
(910.44,1446.588,o),
(939.664,1446.588,qs),
(973.384,1446.588,o),
(1021.716,1480.308,o),
(1057.684,1528.64,o),
(1079.04,1580.344,o),
(1086.908,1601.7,q)
);
}
);
width = 1381;
}
);
unicode = 227;
},
{
glyphname = adieresis;
layers = (
{
layerId = "89A090B5-805C-419F-B0F6-264861EF513B";
shapes = (
{
closed = 1;
nodes = (
(1422.984,121.392,l),
(1422.984,0,l),
(1063.304,0,l),
(1063.304,186.584,l),
(1025.088,150.616,o),
(918.308,69.688,o),
(794.668,5.62,o),
(649.672,-35.968,o),
(568.744,-35.968,qs),
(470.956,-35.968,o),
(318.092,28.1,o),
(209.064,131.508,o),
(152.864,260.768,o),
(152.864,328.208,qs),
(152.864,379.912,o),
(204.568,514.792,o),
(328.208,636.184,o),
(540.644,719.36,o),
(701.376,719.36,qs),
(709.244,719.36,o),
(781.18,717.112,o),
(882.34,709.244,o),
(1003.732,695.756,o),
(1063.304,685.64,q),
(1063.304,765.444,ls),
(1063.304,796.916,o),
(1053.188,890.208,o),
(995.864,977.88,o),
(866.604,1039.7,o),
(750.832,1039.7,qs),
(680.02,1039.7,o),
(463.088,999.236,o),
(307.976,931.796,q),
(258.52,1047.568,l),
(341.696,1084.66,o),
(597.968,1164.464,o),
(753.08,1164.464,qs),
(918.308,1164.464,o),
(1097.024,1068.924,o),
(1180.2,936.292,o),
(1192.564,804.784,o),
(1192.564,765.444,qs),
(1192.564,121.392,l)
);
},
{
closed = 1;
nodes = (
(1063.304,566.496,l),
(1019.468,574.364,o),
(836.256,594.596,o),
(727.228,594.596,qs),
(566.496,594.596,o),
(391.152,520.412,o),
(307.976,424.872,o),
(292.24,336.076,o),
(292.24,325.96,qs),
(292.24,276.504,o),
(336.076,191.08,o),
(413.632,127.012,o),
(512.544,87.672,o),
(566.496,87.672,qs),
(597.968,87.672,o),
(699.128,103.408,o),
(828.388,157.36,o),
(980.128,266.388,o),
(1063.304,359.68,q)
);
},
{
closed = 1;
nodes = (
(660.376,1607.32,l),
(660.376,1327.444,l),
(473.792,1327.444,l),
(473.792,1607.32,l)
);
},
{
closed = 1;
nodes = (
(996.452,1607.32,l),
(996.452,1327.444,l),
(809.868,1327.444,l),
(809.868,1607.32,l)
);
}
);
width = 1381;
}
);
unicode = 228;
},
{
glyphname = aring;
layers = (
{
layerId = "89A090B5-805C-419F-B0F6-264861EF513B";
shapes = (
{
closed = 1;
nodes = (
(1266.07,108.192,l),
(1266.07,0,l),
(946.102,0,l),
(946.102,165.741,l),
(911.573,133.513,o),
(817.193,62.153,o),
(706.699,4.604,o),
(577.79,-32.227,o),
(506.429,-32.227,qs),
(418.955,-32.227,o),
(283.14,25.322,o),
(186.458,117.4,o),
(135.815,232.497,o),
(135.815,292.348,qs),
(135.815,338.387,o),
(181.854,458.088,o),
(292.348,566.28,o),
(481.108,639.943,o),
(623.829,639.943,qs),
(630.735,639.943,o),
(695.19,637.641,o),
(784.966,630.735,o),
(893.157,619.225,o),
(946.102,610.017,q),
(946.102,681.378,ls),
(946.102,709,o),
(936.894,791.87,o),
(886.252,870.137,o),
(771.154,925.384,o),
(667.566,925.384,qs),
(605.413,925.384,o),
(412.049,888.552,o),
(273.932,828.702,q),
(230.195,932.29,l),
(303.858,964.517,o),
(531.751,1035.879,o),
(669.868,1035.879,qs),
(817.193,1035.879,o),
(976.028,950.705,o),
(1049.69,833.306,o),
(1061.2,715.906,o),
(1061.2,681.377,qs),
(1061.2,108.191,l)
);
},
{
closed = 1;
nodes = (
(946.102,504.127,l),
(906.969,511.033,o),
(743.53,529.449,o),
(646.849,529.449,qs),
(504.127,529.449,o),
(347.595,462.692,o),
(273.932,377.52,o),
(260.121,299.254,o),
(260.121,290.046,qs),
(260.121,246.309,o),
(299.254,170.344,o),
(368.312,112.796,o),
(455.786,78.266,o),
(504.127,78.266,qs),
(531.751,78.266,o),
(621.527,92.078,o),
(736.625,140.419,o),
(872.44,237.101,o),
(946.102,319.971,q)
);
},
{
closed = 1;
nodes = (
(764.248,1477.85,o),
(865.534,1376.57,o),
(865.534,1302.9,qs),
(865.534,1229.24,o),
(764.248,1127.96,o),
(690.586,1127.96,qs),
(616.923,1127.96,o),
(515.637,1229.24,o),
(515.637,1302.9,qs),
(515.637,1376.57,o),
(616.923,1477.85,o),
(690.586,1477.85,qs)
);
},
{
closed = 1;
nodes = (
(656.056,1390.38,o),
(603.111,1344.34,o),
(603.111,1302.9,qs),
(603.111,1266.07,o),
(656.056,1215.43,o),
(692.888,1215.43,qs),
(729.719,1215.43,o),
(778.06,1266.07,o),
(778.06,1302.9,qs),
(778.06,1339.74,o),
(729.719,1390.38,o),
(692.888,1390.38,qs)
);
}
);
width = 1381;
}
);
unicode = 229;
},
{
glyphname = ae;
layers = (
{
layerId = "89A090B5-805C-419F-B0F6-264861EF513B";
shapes = (
{
closed = 1;
nodes = (
(736.625,467.296,l),
(741.229,368.312,o),
(764.248,234.799,o),
(810.287,174.948,qs),
(863.232,105.89,o),
(973.726,78.266,o),
(1005.95,78.266,qs),
(1075.01,78.266,o),
(1208.52,110.494,o),
(1266.07,128.909,q),
(1307.51,29.925,l),
(1183.2,-13.812,o),
(1031.27,-32.227,o),
(1001.35,-32.227,qs),
(932.291,-32.227,o),
(831.005,9.208,o),
(759.644,64.455,o),
(715.907,122.003,o),
(704.397,138.117,q),
(651.452,85.172,o),
(552.468,16.114,o),
(464.994,-20.718,o),
(391.332,-34.529,o),
(361.406,-34.529,qs),
(292.348,-34.529,o),
(186.458,16.114,o),
(112.796,101.286,o),
(75.964,209.478,o),
(75.964,267.026,qs),
(75.964,324.575,o),
(122.003,448.881,o),
(211.78,547.865,o),
(349.897,612.319,o),
(444.277,612.319,qs),
(483.41,612.319,o),
(557.072,600.809,o),
(621.527,591.602,q),
(621.527,672.17,ls),
(621.527,732.021,o),
(607.715,826.401,o),
(570.884,890.855,o),
(506.429,925.385,o),
(453.485,925.385,qs),
(393.634,925.385,o),
(273.932,897.761,o),
(177.25,863.232,q),
(145.023,964.518,l),
(241.705,1001.35,o),
(384.426,1035.88,o),
(455.786,1035.88,qs),
(517.939,1035.88,o),
(603.111,1008.25,o),
(658.358,959.914,o),
(692.888,897.761,o),
(704.397,863.232,q),
(722.813,886.252,o),
(771.154,948.404,o),
(837.911,999.047,o),
(923.083,1035.88,o),
(978.33,1035.88,qs),
(987.537,1035.88,o),
(1045.09,1028.97,o),
(1121.05,996.745,o),
(1201.62,927.687,o),
(1266.07,801.079,o),
(1302.9,607.715,o),
(1296,467.296,q)
);
},
{
closed = 1;
nodes = (
(621.527,481.108,l),
(561.676,492.618,o),
(485.712,501.826,o),
(446.579,501.826,qs),
(368.312,501.826,o),
(269.328,451.183,o),
(211.78,379.822,o),
(191.062,296.952,o),
(191.062,267.026,qs),
(191.062,232.497,o),
(211.78,165.741,o),
(253.215,110.494,o),
(315.367,75.964,o),
(359.105,75.964,qs),
(400.54,75.964,o),
(481.108,103.588,o),
(547.865,145.023,o),
(603.111,188.76,o),
(621.527,204.874,q)
);
},
{
closed = 1;
nodes = (
(1180.9,575.488,l),
(1176.3,748.134,o),
(1072.71,925.385,o),
(976.028,925.385,qs),
(916.177,925.385,o),
(833.307,863.232,o),
(807.985,833.307,qs),
(757.342,771.154,o),
(738.927,649.15,o),
(736.625,575.488,q)
);
}
);
width = 1381;
}
);
unicode = 230;
},
{
glyphname = ccedilla;
layers = (
{
layerId = "89A090B5-805C-419F-B0F6-264861EF513B";
shapes = (
{
closed = 1;
nodes = (
(759.644,-59.851,l),
(807.985,-71.361,o),
(854.024,-147.325,o),
(854.024,-186.458,qs),
(854.024,-204.874,o),
(840.212,-255.517,o),
(810.287,-301.556,o),
(757.342,-331.481,o),
(715.907,-331.481,qs),
(669.868,-331.481,o),
(610.017,-299.254,o),
(582.394,-280.838,q),
(633.037,-195.666,l),
(669.868,-220.987,o),
(690.586,-230.195,o),
(706.699,-230.195,qs),
(734.323,-230.195,o),
(750.436,-200.27,o),
(750.436,-188.76,qs),
(750.436,-158.835,o),
(711.303,-149.627,o),
(702.095,-149.627,qs),
(683.68,-149.627,o),
(660.66,-151.929,o),
(649.15,-154.231,q),
(658.358,-29.925,l),
(568.582,-27.623,o),
(391.332,46.039,o),
(250.913,181.854,o),
(163.439,375.218,o),
(163.439,497.222,qs),
(163.439,589.3,o),
(230.195,775.758,o),
(363.708,927.687,o),
(570.884,1024.37,o),
(713.605,1024.37,qs),
(803.381,1024.37,o),
(941.498,980.632,o),
(1012.86,929.989,q),
(1015.16,927.687,o),
(1031.27,916.177,o),
(1047.39,904.667,o),
(1054.29,900.063,q),
(1058.9,897.761,o),
(1061.2,895.459,q),
(1068.11,895.459,o),
(1077.31,920.781,o),
(1079.62,925.385,q),
(1098.03,1019.76,l),
(1203.92,1008.25,l),
(1199.32,973.726,o),
(1183.2,856.326,o),
(1183.2,796.475,qs),
(1183.2,734.323,o),
(1190.11,644.547,q),
(1084.22,628.433,l),
(1065.8,706.699,o),
(1033.58,796.475,o),
(989.839,833.307,q),
(957.612,858.628,o),
(883.95,888.553,o),
(812.589,904.667,o),
(748.134,909.271,o),
(725.115,909.271,qs),
(614.621,909.271,o),
(451.183,837.911,o),
(340.689,720.511,o),
(287.744,575.488,o),
(287.744,499.524,qs),
(287.744,425.861,o),
(338.387,278.536,o),
(441.975,158.835,o),
(603.111,82.87,o),
(715.907,82.87,qs),
(840.212,82.87,o),
(1077.31,191.062,o),
(1203.92,278.536,q),
(1263.77,191.062,l),
(1199.32,142.721,o),
(1079.62,69.059,o),
(959.914,13.812,o),
(833.307,-23.02,o),
(759.644,-29.925,q)
);
}
);
width = 1381;
}
);
unicode = 231;
},
{
glyphname = egrave;
layers = (
{
layerId = "89A090B5-805C-419F-B0F6-264861EF513B";
shapes = (
{
closed = 1;
nodes = (
(1446.588,147.244,l),
(1394.884,119.144,o),
(1254.384,53.952,o),
(1091.404,0,o),
(910.44,-35.968,o),
(820.52,-35.968,qs),
(662.036,-35.968,o),
(427.12,61.82,o),
(268.636,224.8,o),
(191.08,439.484,o),
(191.08,554.132,qs),
(191.08,673.276,o),
(276.504,890.208,o),
(434.988,1055.436,o),
(662.036,1150.976,o),
(804.784,1150.976,qs),
(952.028,1150.976,o),
(1172.332,1057.684,o),
(1319.576,908.192,o),
(1391.512,724.98,o),
(1391.512,636.184,qs),
(1391.512,605.836,o),
(1387.016,532.776,o),
(1387.016,520.412,q),
(331.58,520.412,l),
(333.828,468.708,o),
(375.416,320.34,o),
(483.32,186.584,o),
(673.276,87.672,o),
(822.768,87.672,qs),
(902.572,87.672,o),
(1071.172,127.012,o),
(1221.788,180.964,o),
(1345.428,240.536,o),
(1387.016,260.768,q)
);
},
{
closed = 1;
nodes = (
(1252.136,641.804,l),
(1252.136,703.624,o),
(1198.184,840.752,o),
(1089.156,954.276,o),
(920.556,1027.336,o),
(804.784,1027.336,qs),
(675.524,1027.336,o),
(502.428,939.664,o),
(393.4,817.148,o),
(339.448,685.64,o),
(331.58,641.804,q)
);
},
{
closed = 1;
nodes = (
(1006.764,1301.592,l),
(871.884,1301.592,l),
(530.188,1599.452,l),
(807.816,1599.452,l)
);
}
);
width = 1381;
}
);
unicode = 232;
},
{
glyphname = eacute;
layers = (
{
layerId = "89A090B5-805C-419F-B0F6-264861EF513B";
shapes = (
{
closed = 1;
nodes = (
(1446.588,147.244,l),
(1394.884,119.144,o),
(1254.384,53.952,o),
(1091.404,0,o),
(910.44,-35.968,o),
(820.52,-35.968,qs),
(662.036,-35.968,o),
(427.12,61.82,o),
(268.636,224.8,o),
(191.08,439.484,o),
(191.08,554.132,qs),
(191.08,673.276,o),
(276.504,890.208,o),
(434.988,1055.436,o),
(662.036,1150.976,o),
(804.784,1150.976,qs),
(952.028,1150.976,o),
(1172.332,1057.684,o),
(1319.576,908.192,o),
(1391.512,724.98,o),
(1391.512,636.184,qs),
(1391.512,605.836,o),
(1387.016,532.776,o),
(1387.016,520.412,q),
(331.58,520.412,l),
(333.828,468.708,o),
(375.416,320.34,o),
(483.32,186.584,o),
(673.276,87.672,o),
(822.768,87.672,qs),
(902.572,87.672,o),
(1071.172,127.012,o),
(1221.788,180.964,o),
(1345.428,240.536,o),
(1387.016,260.768,q)
);
},
{
closed = 1;
nodes = (
(1252.136,641.804,l),
(1252.136,703.624,o),
(1198.184,840.752,o),
(1089.156,954.276,o),
(920.556,1027.336,o),
(804.784,1027.336,qs),
(675.524,1027.336,o),
(502.428,939.664,o),
(393.4,817.148,o),
(339.448,685.64,o),
(331.58,641.804,q)
);
},
{
closed = 1;
nodes = (
(556.38,1301.592,l),
(786.8,1599.452,l),
(1063.304,1599.452,l),
(693.508,1301.592,l)
);
}
);
width = 1381;
}
);
unicode = 233;
},
{
glyphname = ecircumflex;
layers = (
{
layerId = "89A090B5-805C-419F-B0F6-264861EF513B";
shapes = (
{
closed = 1;
nodes = (
(1446.588,147.244,l),
(1394.884,119.144,o),
(1254.384,53.952,o),
(1091.404,0,o),
(910.44,-35.968,o),
(820.52,-35.968,qs),
(662.036,-35.968,o),
(427.12,61.82,o),
(268.636,224.8,o),
(191.08,439.484,o),
(191.08,554.132,qs),
(191.08,673.276,o),
(276.504,890.208,o),
(434.988,1055.436,o),
(662.036,1150.976,o),
(804.784,1150.976,qs),
(952.028,1150.976,o),
(1172.332,1057.684,o),
(1319.576,908.192,o),
(1391.512,724.98,o),
(1391.512,636.184,qs),
(1391.512,605.836,o),
(1387.016,532.776,o),
(1387.016,520.412,q),
(331.58,520.412,l),
(333.828,468.708,o),
(375.416,320.34,o),
(483.32,186.584,o),
(673.276,87.672,o),
(822.768,87.672,qs),
(902.572,87.672,o),
(1071.172,127.012,o),
(1221.788,180.964,o),
(1345.428,240.536,o),
(1387.016,260.768,q)
);
},
{
closed = 1;
nodes = (
(1252.136,641.804,l),
(1252.136,703.624,o),
(1198.184,840.752,o),
(1089.156,954.276,o),
(920.556,1027.336,o),
(804.784,1027.336,qs),
(675.524,1027.336,o),
(502.428,939.664,o),
(393.4,817.148,o),
(339.448,685.64,o),
(331.58,641.804,q)
);
},
{
closed = 1;
nodes = (
(1107.14,1363.412,l),
(1025.088,1299.344,l),
(763.196,1470.192,l),
(528.28,1299.344,l),
(442.856,1361.164,l),
(669.904,1607.32,l),
(868.852,1607.32,l)
);
}
);
width = 1381;
}
);
unicode = 234;
},
{
glyphname = edieresis;
layers = (
{
layerId = "89A090B5-805C-419F-B0F6-264861EF513B";
shapes = (
{
closed = 1;
nodes = (
(1446.588,147.244,l),
(1394.884,119.144,o),
(1254.384,53.952,o),
(1091.404,0,o),
(910.44,-35.968,o),
(820.52,-35.968,qs),
(662.036,-35.968,o),
(427.12,61.82,o),
(268.636,224.8,o),
(191.08,439.484,o),
(191.08,554.132,qs),
(191.08,673.276,o),
(276.504,890.208,o),
(434.988,1055.436,o),
(662.036,1150.976,o),
(804.784,1150.976,qs),
(952.028,1150.976,o),
(1172.332,1057.684,o),
(1319.576,908.192,o),
(1391.512,724.98,o),
(1391.512,636.184,qs),
(1391.512,605.836,o),
(1387.016,532.776,o),
(1387.016,520.412,q),
(331.58,520.412,l),
(333.828,468.708,o),
(375.416,320.34,o),
(483.32,186.584,o),
(673.276,87.672,o),
(822.768,87.672,qs),
(902.572,87.672,o),
(1071.172,127.012,o),
(1221.788,180.964,o),
(1345.428,240.536,o),
(1387.016,260.768,q)
);
},
{
closed = 1;
nodes = (
(1252.136,641.804,l),
(1252.136,703.624,o),
(1198.184,840.752,o),
(1089.156,954.276,o),
(920.556,1027.336,o),
(804.784,1027.336,qs),
(675.524,1027.336,o),
(502.428,939.664,o),
(393.4,817.148,o),
(339.448,685.64,o),
(331.58,641.804,q)
);
},
{
closed = 1;
nodes = (
(701.376,1607.32,l),
(701.376,1327.444,l),
(514.792,1327.444,l),
(514.792,1607.32,l)
);
},
{
closed = 1;
nodes = (
(1037.452,1607.32,l),
(1037.452,1327.444,l),
(850.868,1327.444,l),
(850.868,1607.32,l)
);
}
);
width = 1381;
}
);
unicode = 235;
},
{
glyphname = igrave;
layers = (
{
layerId = "89A090B5-805C-419F-B0F6-264861EF513B";
shapes = (
{
closed = 1;
nodes = (
(860.93,1157.88,l),
(741.229,1157.88,l),
(437.371,1422.61,l),
(683.68,1422.61,l)
);
},
{
closed = 1;
nodes = (
(752.738,108.192,l),
(1150.98,108.192,l),
(1150.98,0,l),
(232.497,0,l),
(232.497,108.192,l),
(637.641,108.192,l),
(637.641,881.648,l),
(299.254,881.648,l),
(299.254,989.839,l),
(752.738,989.839,l)
);
}
);
width = 1381;
}
);
unicode = 236;
},
{
glyphname = iacute;
layers = (
{
layerId = "89A090B5-805C-419F-B0F6-264861EF513B";
shapes = (
{
closed = 1;
nodes = (
(494.92,1157.88,l),
(699.793,1422.61,l),
(946.102,1422.61,l),
(616.923,1157.88,l)
);
},
{
closed = 1;
nodes = (
(752.738,108.192,l),
(1150.98,108.192,l),
(1150.98,0,l),
(232.497,0,l),
(232.497,108.192,l),
(637.641,108.192,l),
(637.641,881.648,l),
(299.254,881.648,l),
(299.254,989.839,l),
(752.738,989.839,l)
);
}
);
width = 1381;
}
);
unicode = 237;
},
{
glyphname = icircumflex;
layers = (
{
layerId = "89A090B5-805C-419F-B0F6-264861EF513B";
shapes = (
{
closed = 1;
nodes = (
(985.235,1213.13,l),
(911.573,1155.58,l),
(679.076,1307.51,l),
(469.598,1155.58,l),
(393.634,1210.83,l),
(596.206,1429.51,l),
(773.456,1429.51,l)
);
},
{
closed = 1;
nodes = (
(752.738,108.192,l),
(1150.98,108.192,l),
(1150.98,0,l),
(232.497,0,l),
(232.497,108.192,l),
(637.641,108.192,l),
(637.641,881.648,l),
(299.254,881.648,l),
(299.254,989.839,l),
(752.738,989.839,l)
);
}
);
width = 1381;
}
);
unicode = 238;
},
{
glyphname = idieresis;
layers = (
{
layerId = "89A090B5-805C-419F-B0F6-264861EF513B";
shapes = (
{
closed = 1;
nodes = (
(623.829,1429.51,l),
(623.829,1180.9,l),
(458.088,1180.9,l),
(458.088,1429.51,l)
);
},
{
closed = 1;
nodes = (
(923.083,1429.51,l),
(923.083,1180.9,l),
(757.342,1180.9,l),
(757.342,1429.51,l)
);
},
{
closed = 1;
nodes = (
(752.738,108.192,l),
(1150.98,108.192,l),
(1150.98,0,l),
(232.497,0,l),
(232.497,108.192,l),
(637.641,108.192,l),
(637.641,881.648,l),
(299.254,881.648,l),
(299.254,989.839,l),
(752.738,989.839,l)
);
}
);
width = 1381;
}
);
unicode = 239;
},
{
glyphname = eth;
layers = (
{
layerId = "89A090B5-805C-419F-B0F6-264861EF513B";
shapes = (
{
closed = 1;
nodes = (
(391.332,1187.81,l),
(506.429,1362.76,l),
(462.692,1383.47,o),
(398.238,1413.4,o),
(340.689,1436.42,o),
(285.442,1454.83,o),
(250.913,1466.34,q),
(290.046,1579.14,l),
(333.783,1565.33,o),
(400.54,1542.31,o),
(462.692,1516.99,o),
(529.449,1487.06,o),
(570.884,1466.34,q),
(665.264,1620.57,l),
(764.248,1556.12,l),
(674.472,1413.4,l),
(709.001,1392.68,o),
(824.099,1316.72,o),
(955.31,1208.52,o),
(1086.52,1063.5,o),
(1194.71,879.346,o),
(1261.47,656.056,o),
(1261.47,522.543,qs),
(1261.47,389.03,o),
(1174,181.854,o),
(1019.76,41.435,o),
(810.287,-32.227,o),
(690.586,-32.227,qs),
(547.865,-32.227,o),
(333.783,59.851,o),
(191.062,209.478,o),
(119.702,400.54,o),
(119.702,501.826,qs),
(119.702,628.433,o),
(211.78,826.401,o),
(366.01,964.518,o),
(563.978,1035.88,o),
(669.868,1035.88,qs),
(759.644,1035.88,o),
(934.593,999.047,o),
(985.235,973.726,q),
(989.839,978.33,l),
(957.612,1019.76,o),
(893.157,1095.73,o),
(807.985,1176.3,o),
(692.888,1259.17,o),
(610.017,1307.51,q),
(490.316,1118.75,l)
);
},
{
closed = 1;
nodes = (
(244.007,418.955,o),
(301.556,267.026,o),
(416.653,147.325,o),
(582.394,75.964,o),
(690.586,75.964,qs),
(801.079,75.964,o),
(969.122,149.627,o),
(1079.62,269.328,o),
(1137.16,421.257,o),
(1137.16,501.826,qs),
(1137.16,580.092,o),
(1079.62,734.323,o),
(966.82,854.024,o),
(801.079,927.687,o),
(690.586,927.687,qs),
(582.394,927.687,o),
(416.653,856.326,o),
(303.858,738.927,o),
(244.007,584.696,o),
(244.007,501.826,qs)
);
}
);
width = 1381;
}
);
unicode = 240;
},
{
glyphname = ntilde;
layers = (
{
layerId = "89A090B5-805C-419F-B0F6-264861EF513B";
shapes = (
{
closed = 1;
nodes = (
(429.368,967.764,l),
(470.956,999.236,o),
(568.744,1063.304,o),
(680.02,1117.256,o),
(804.784,1150.976,o),
(874.472,1150.976,qs),
(962.144,1150.976,o),
(1104.892,1089.156,o),
(1206.052,975.632,o),
(1260.004,817.148,o),
(1260.004,724.98,qs),
(1260.004,121.392,l),
(1466.82,121.392,l),
(1466.82,0,l),
(908.192,0,l),
(908.192,121.392,l),
(1130.744,121.392,l),
(1130.744,713.74,ls),
(1130.744,856.488,o),
(993.616,1021.716,o),
(876.72,1021.716,qs),
(846.372,1021.716,o),
(763.196,1009.352,o),
(654.168,965.516,o),
(517.04,884.588,o),
(429.368,814.9,q),
(429.368,121.392,l),
(646.3,121.392,l),
(646.3,0,l),
(87.672,0,l),
(87.672,121.392,l),
(300.108,121.392,l),
(300.108,991.368,l),
(87.672,991.368,l),
(87.672,1112.76,l),
(429.368,1112.76,l)
);
},
{
closed = 1;
nodes = (
(1190.316,1567.98,l),
(1184.696,1562.36,o),
(1184.696,1549.996,q),
(1154.348,1440.968,o),
(1013.848,1329.692,o),
(931.796,1329.692,qs),
(887.96,1329.692,o),
(807.032,1365.66,o),
(747.46,1412.868,q),
(685.64,1458.952,o),
(633.936,1488.176,o),
(605.836,1488.176,qs),
(554.132,1488.176,o),
(491.188,1405,o),
(470.956,1353.296,q),
(470.956,1351.048,o),
(468.708,1345.428,q),
(465.336,1337.56,l),
(361.928,1373.528,l),
(399.02,1472.44,o),
(509.172,1603.948,o),
(605.836,1603.948,qs),
(667.656,1603.948,o),
(755.328,1552.244,o),
(796.916,1516.276,q),
(846.372,1480.308,o),
(910.44,1446.588,o),
(939.664,1446.588,qs),
(973.384,1446.588,o),
(1021.716,1480.308,o),
(1057.684,1528.64,o),
(1079.04,1580.344,o),
(1086.908,1601.7,q)
);
}
);
width = 1381;
}
);
unicode = 241;
},
{
glyphname = ograve;
layers = (
{
layerId = "89A090B5-805C-419F-B0F6-264861EF513B";
shapes = (
{
closed = 1;
nodes = (
(134.88,680.02,o),
(216.932,898.076,o),
(377.664,1063.304,o),
(618.2,1164.464,o),
(776.684,1164.464,qs),
(939.664,1164.464,o),
(1180.2,1061.056,o),
(1337.56,890.208,o),
(1417.364,675.524,o),
(1417.364,564.248,qs),
(1417.364,452.972,o),
(1337.56,238.288,o),
(1180.2,67.44,o),
(939.664,-35.968,o),
(776.684,-35.968,qs),
(618.2,-35.968,o),
(377.664,65.192,o),
(216.932,232.668,o),
(134.88,447.352,o),
(134.88,564.248,qs)
);
},
{
closed = 1;
nodes = (
(274.256,473.204,o),
(339.448,302.356,o),
(465.336,170.848,o),
(654.168,93.292,o),
(776.684,93.292,qs),
(900.324,93.292,o),
(1089.156,173.096,o),
(1213.92,305.728,o),
(1277.988,473.204,o),
(1277.988,564.248,qs),
(1277.988,651.92,o),
(1213.92,822.768,o),
(1089.156,954.276,o),
(900.324,1035.204,o),
(776.684,1035.204,qs),
(654.168,1035.204,o),
(468.708,957.648,o),
(339.448,825.016,o),
(274.256,657.54,o),
(274.256,564.248,qs)
);
},
{
closed = 1;
nodes = (
(967.764,1301.592,l),
(832.884,1301.592,l),
(491.188,1599.452,l),
(768.816,1599.452,l)
);
}
);
width = 1381;
}
);
unicode = 242;
},
{
glyphname = oacute;
layers = (
{
layerId = "89A090B5-805C-419F-B0F6-264861EF513B";
shapes = (
{
closed = 1;
nodes = (
(134.88,680.02,o),
(216.932,898.076,o),
(377.664,1063.304,o),
(618.2,1164.464,o),
(776.684,1164.464,qs),
(939.664,1164.464,o),
(1180.2,1061.056,o),
(1337.56,890.208,o),
(1417.364,675.524,o),
(1417.364,564.248,qs),
(1417.364,452.972,o),
(1337.56,238.288,o),
(1180.2,67.44,o),
(939.664,-35.968,o),
(776.684,-35.968,qs),
(618.2,-35.968,o),
(377.664,65.192,o),
(216.932,232.668,o),
(134.88,447.352,o),
(134.88,564.248,qs)
);
},
{
closed = 1;
nodes = (
(274.256,473.204,o),
(339.448,302.356,o),
(465.336,170.848,o),
(654.168,93.292,o),
(776.684,93.292,qs),
(900.324,93.292,o),
(1089.156,173.096,o),
(1213.92,305.728,o),
(1277.988,473.204,o),
(1277.988,564.248,qs),
(1277.988,651.92,o),
(1213.92,822.768,o),
(1089.156,954.276,o),
(900.324,1035.204,o),
(776.684,1035.204,qs),
(654.168,1035.204,o),
(468.708,957.648,o),
(339.448,825.016,o),
(274.256,657.54,o),
(274.256,564.248,qs)
);
},
{
closed = 1;
nodes = (
(556.38,1301.592,l),
(786.8,1599.452,l),
(1063.304,1599.452,l),
(693.508,1301.592,l)
);
}
);
width = 1381;
}
);
unicode = 243;
},
{
glyphname = ocircumflex;
layers = (
{
layerId = "89A090B5-805C-419F-B0F6-264861EF513B";
shapes = (
{
closed = 1;
nodes = (
(134.88,680.02,o),
(216.932,898.076,o),
(377.664,1063.304,o),
(618.2,1164.464,o),
(776.684,1164.464,qs),
(939.664,1164.464,o),
(1180.2,1061.056,o),
(1337.56,890.208,o),
(1417.364,675.524,o),
(1417.364,564.248,qs),
(1417.364,452.972,o),
(1337.56,238.288,o),
(1180.2,67.44,o),
(939.664,-35.968,o),
(776.684,-35.968,qs),
(618.2,-35.968,o),
(377.664,65.192,o),
(216.932,232.668,o),
(134.88,447.352,o),
(134.88,564.248,qs)
);
},
{
closed = 1;
nodes = (
(274.256,473.204,o),
(339.448,302.356,o),
(465.336,170.848,o),
(654.168,93.292,o),
(776.684,93.292,qs),
(900.324,93.292,o),
(1089.156,173.096,o),
(1213.92,305.728,o),
(1277.988,473.204,o),
(1277.988,564.248,qs),
(1277.988,651.92,o),
(1213.92,822.768,o),
(1089.156,954.276,o),
(900.324,1035.204,o),
(776.684,1035.204,qs),
(654.168,1035.204,o),
(468.708,957.648,o),
(339.448,825.016,o),
(274.256,657.54,o),
(274.256,564.248,qs)
);
},
{
closed = 1;
nodes = (
(1107.14,1363.412,l),
(1025.088,1299.344,l),
(763.196,1470.192,l),
(528.28,1299.344,l),
(442.856,1361.164,l),
(669.904,1607.32,l),
(868.852,1607.32,l)
);
}
);
width = 1381;
}
);
unicode = 244;
},
{
glyphname = otilde;
layers = (
{
layerId = "89A090B5-805C-419F-B0F6-264861EF513B";
shapes = (
{
closed = 1;
nodes = (
(134.88,680.02,o),
(216.932,898.076,o),
(377.664,1063.304,o),
(618.2,1164.464,o),
(776.684,1164.464,qs),
(939.664,1164.464,o),
(1180.2,1061.056,o),
(1337.56,890.208,o),
(1417.364,675.524,o),
(1417.364,564.248,qs),
(1417.364,452.972,o),
(1337.56,238.288,o),
(1180.2,67.44,o),
(939.664,-35.968,o),
(776.684,-35.968,qs),
(618.2,-35.968,o),
(377.664,65.192,o),
(216.932,232.668,o),
(134.88,447.352,o),
(134.88,564.248,qs)
);
},
{
closed = 1;
nodes = (
(274.256,473.204,o),
(339.448,302.356,o),
(465.336,170.848,o),
(654.168,93.292,o),
(776.684,93.292,qs),
(900.324,93.292,o),
(1089.156,173.096,o),
(1213.92,305.728,o),
(1277.988,473.204,o),
(1277.988,564.248,qs),
(1277.988,651.92,o),
(1213.92,822.768,o),
(1089.156,954.276,o),
(900.324,1035.204,o),
(776.684,1035.204,qs),
(654.168,1035.204,o),
(468.708,957.648,o),
(339.448,825.016,o),
(274.256,657.54,o),
(274.256,564.248,qs)
);
},
{
closed = 1;
nodes = (
(1190.316,1567.98,l),
(1184.696,1562.36,o),
(1184.696,1549.996,q),
(1154.348,1440.968,o),
(1013.848,1329.692,o),
(931.796,1329.692,qs),
(887.96,1329.692,o),
(807.032,1365.66,o),
(747.46,1412.868,q),
(685.64,1458.952,o),
(633.936,1488.176,o),
(605.836,1488.176,qs),
(554.132,1488.176,o),
(491.188,1405,o),
(470.956,1353.296,q),
(470.956,1351.048,o),
(468.708,1345.428,q),
(465.336,1337.56,l),
(361.928,1373.528,l),
(399.02,1472.44,o),
(509.172,1603.948,o),
(605.836,1603.948,qs),
(667.656,1603.948,o),
(755.328,1552.244,o),
(796.916,1516.276,q),
(846.372,1480.308,o),
(910.44,1446.588,o),
(939.664,1446.588,qs),
(973.384,1446.588,o),
(1021.716,1480.308,o),
(1057.684,1528.64,o),
(1079.04,1580.344,o),
(1086.908,1601.7,q)
);
}
);
width = 1381;
}
);
unicode = 245;
},
{
glyphname = odieresis;
layers = (
{
layerId = "89A090B5-805C-419F-B0F6-264861EF513B";
shapes = (
{
closed = 1;
nodes = (
(134.88,680.02,o),
(216.932,898.076,o),
(377.664,1063.304,o),
(618.2,1164.464,o),
(776.684,1164.464,qs),
(939.664,1164.464,o),
(1180.2,1061.056,o),
(1337.56,890.208,o),
(1417.364,675.524,o),
(1417.364,564.248,qs),
(1417.364,452.972,o),
(1337.56,238.288,o),
(1180.2,67.44,o),
(939.664,-35.968,o),
(776.684,-35.968,qs),
(618.2,-35.968,o),
(377.664,65.192,o),
(216.932,232.668,o),
(134.88,447.352,o),
(134.88,564.248,qs)
);
},
{
closed = 1;
nodes = (
(274.256,473.204,o),
(339.448,302.356,o),
(465.336,170.848,o),
(654.168,93.292,o),
(776.684,93.292,qs),
(900.324,93.292,o),
(1089.156,173.096,o),
(1213.92,305.728,o),
(1277.988,473.204,o),
(1277.988,564.248,qs),
(1277.988,651.92,o),
(1213.92,822.768,o),
(1089.156,954.276,o),
(900.324,1035.204,o),
(776.684,1035.204,qs),
(654.168,1035.204,o),
(468.708,957.648,o),
(339.448,825.016,o),
(274.256,657.54,o),
(274.256,564.248,qs)
);
},
{
closed = 1;
nodes = (
(701.376,1607.32,l),
(701.376,1327.444,l),
(514.792,1327.444,l),
(514.792,1607.32,l)
);
},
{
closed = 1;
nodes = (
(1037.452,1607.32,l),
(1037.452,1327.444,l),
(850.868,1327.444,l),
(850.868,1607.32,l)
);
}
);
width = 1381;
}
);
unicode = 246;
},
{
glyphname = divide;
layers = (
{
layerId = "89A090B5-805C-419F-B0F6-264861EF513B";
shapes = (
{
closed = 1;
nodes = (
(732.021,1215.43,o),
(794.173,1157.88,o),
(794.173,1111.84,qs),
(794.173,1070.41,o),
(736.625,1008.25,o),
(690.586,1008.25,qs),
(646.849,1008.25,o),
(586.998,1070.41,o),
(586.998,1111.84,qs),
(586.998,1157.88,o),
(651.452,1215.43,o),
(690.586,1215.43,qs)
);
},
{
closed = 1;
nodes = (
(1229.24,639.943,l),
(151.929,639.943,l),
(151.929,755.04,l),
(1229.24,755.04,l)
);
},
{
closed = 1;
nodes = (
(729.719,386.728,o),
(794.173,329.179,o),
(794.173,283.14,qs),
(794.173,237.101,o),
(729.719,179.552,o),
(690.586,179.552,qs),
(649.15,179.552,o),
(586.998,239.403,o),
(586.998,283.14,qs),
(586.998,329.179,o),
(649.15,386.728,o),
(690.586,386.728,qs)
);
}
);
width = 1381;
}
);
unicode = 247;
},
{
glyphname = oslash;
layers = (
{
layerId = "89A090B5-805C-419F-B0F6-264861EF513B";
shapes = (
{
closed = 1;
nodes = (
(138.117,52.945,l),
(244.007,158.835,l),
(204.874,207.176,o),
(156.533,306.16,o),
(128.909,398.238,o),
(119.702,476.504,o),
(119.702,504.127,qs),
(119.702,603.111,o),
(191.062,796.475,o),
(336.085,943.8,o),
(547.865,1035.88,o),
(690.586,1035.88,qs),
(771.154,1035.88,o),
(966.82,992.141,o),
(1040.48,932.291,q),
(1153.28,1047.39,l),
(1240.75,959.914,l),
(1134.86,854.024,l),
(1176.3,805.683,o),
(1226.94,702.095,o),
(1252.26,607.715,o),
(1261.47,527.147,o),
(1261.47,501.826,qs),
(1261.47,398.238,o),
(1187.81,204.874,o),
(1042.78,55.247,o),
(831.005,-32.227,o),
(695.19,-32.227,qs),
(683.68,-32.227,o),
(610.017,-29.925,o),
(508.731,-9.208,o),
(389.03,34.529,o),
(333.783,73.662,q),
(227.893,-32.227,l)
);
},
{
closed = 1;
nodes = (
(423.559,156.533,l),
(444.277,142.721,o),
(488.014,117.4,o),
(547.865,96.682,o),
(630.735,82.87,o),
(690.586,82.87,qs),
(801.079,82.87,o),
(969.122,154.231,o),
(1079.62,271.63,o),
(1137.16,421.257,o),
(1137.16,501.826,qs),
(1137.16,651.452,o),
(1045.09,764.248,q)
);
},
{
closed = 1;
nodes = (
(955.31,849.42,l),
(927.687,863.232,o),
(877.044,888.553,o),
(819.495,909.271,o),
(743.53,920.781,o),
(690.586,920.781,qs),
(580.092,920.781,o),
(412.049,847.118,o),
(299.254,729.719,o),
(244.007,580.092,o),
(244.007,501.826,qs),
(244.007,455.786,o),
(278.536,308.462,o),
(331.481,241.705,q)
);
}
);
width = 1381;
}
);
unicode = 248;
},
{
glyphname = ugrave;
layers = (
{
layerId = "89A090B5-805C-419F-B0F6-264861EF513B";
shapes = (
{
closed = 1;
nodes = (
(424.872,427.12,ls),
(424.872,401.268,o),
(431.616,289.992,o),
(481.072,178.716,o),
(584.48,93.292,o),
(683.392,93.292,qs),
(791.296,93.292,o),
(991.368,202.32,o),
(1099.272,318.092,q),
(1099.272,991.368,l),
(876.72,991.368,l),
(876.72,1112.76,l),
(1228.532,1112.76,l),
(1228.532,121.392,l),
(1438.72,121.392,l),
(1438.72,0,l),
(1099.272,0,l),
(1099.272,142.748,l),
(1071.172,119.144,o),
(993.616,57.324,o),
(892.456,2.248,o),
(768.816,-35.968,o),
(693.508,-35.968,qs),
(572.116,-35.968,o),
(417.004,51.704,o),
(328.208,186.584,o),
(294.488,349.564,o),
(294.488,427.12,qs),
(294.488,991.368,l),
(83.176,991.368,l),
(83.176,1112.76,l),
(424.872,1112.76,l)
);
},
{
closed = 1;
nodes = (
(967.764,1301.592,l),
(832.884,1301.592,l),
(491.188,1599.452,l),
(768.816,1599.452,l)
);
}
);
width = 1381;
}
);
unicode = 249;
},
{
glyphname = uacute;
layers = (
{
layerId = "89A090B5-805C-419F-B0F6-264861EF513B";
shapes = (
{
closed = 1;
nodes = (
(424.872,427.12,ls),
(424.872,401.268,o),
(431.616,289.992,o),
(481.072,178.716,o),
(584.48,93.292,o),
(683.392,93.292,qs),
(791.296,93.292,o),
(991.368,202.32,o),
(1099.272,318.092,q),
(1099.272,991.368,l),
(876.72,991.368,l),
(876.72,1112.76,l),
(1228.532,1112.76,l),
(1228.532,121.392,l),
(1438.72,121.392,l),
(1438.72,0,l),
(1099.272,0,l),
(1099.272,142.748,l),
(1071.172,119.144,o),
(993.616,57.324,o),
(892.456,2.248,o),
(768.816,-35.968,o),
(693.508,-35.968,qs),
(572.116,-35.968,o),
(417.004,51.704,o),
(328.208,186.584,o),
(294.488,349.564,o),
(294.488,427.12,qs),
(294.488,991.368,l),
(83.176,991.368,l),
(83.176,1112.76,l),
(424.872,1112.76,l)
);
},
{
closed = 1;
nodes = (
(556.38,1301.592,l),
(786.8,1599.452,l),
(1063.304,1599.452,l),
(693.508,1301.592,l)
);
}
);
width = 1381;
}
);
unicode = 250;
},
{
glyphname = ucircumflex;
layers = (
{
layerId = "89A090B5-805C-419F-B0F6-264861EF513B";
shapes = (
{
closed = 1;
nodes = (
(424.872,427.12,ls),
(424.872,401.268,o),
(431.616,289.992,o),
(481.072,178.716,o),
(584.48,93.292,o),
(683.392,93.292,qs),
(791.296,93.292,o),
(991.368,202.32,o),
(1099.272,318.092,q),
(1099.272,991.368,l),
(876.72,991.368,l),
(876.72,1112.76,l),
(1228.532,1112.76,l),
(1228.532,121.392,l),
(1438.72,121.392,l),
(1438.72,0,l),
(1099.272,0,l),
(1099.272,142.748,l),
(1071.172,119.144,o),
(993.616,57.324,o),
(892.456,2.248,o),
(768.816,-35.968,o),
(693.508,-35.968,qs),
(572.116,-35.968,o),
(417.004,51.704,o),
(328.208,186.584,o),
(294.488,349.564,o),
(294.488,427.12,qs),
(294.488,991.368,l),
(83.176,991.368,l),
(83.176,1112.76,l),
(424.872,1112.76,l)
);
},
{
closed = 1;
nodes = (
(1107.14,1363.412,l),
(1025.088,1299.344,l),
(763.196,1470.192,l),
(528.28,1299.344,l),
(442.856,1361.164,l),
(669.904,1607.32,l),
(868.852,1607.32,l)
);
}
);
width = 1381;
}
);
unicode = 251;
},
{
glyphname = udieresis;
layers = (
{
layerId = "89A090B5-805C-419F-B0F6-264861EF513B";
shapes = (
{
closed = 1;
nodes = (
(424.872,427.12,ls),
(424.872,401.268,o),
(431.616,289.992,o),
(481.072,178.716,o),
(584.48,93.292,o),
(683.392,93.292,qs),
(791.296,93.292,o),
(991.368,202.32,o),
(1099.272,318.092,q),
(1099.272,991.368,l),
(876.72,991.368,l),
(876.72,1112.76,l),
(1228.532,1112.76,l),
(1228.532,121.392,l),
(1438.72,121.392,l),
(1438.72,0,l),
(1099.272,0,l),
(1099.272,142.748,l),
(1071.172,119.144,o),
(993.616,57.324,o),
(892.456,2.248,o),
(768.816,-35.968,o),
(693.508,-35.968,qs),
(572.116,-35.968,o),
(417.004,51.704,o),
(328.208,186.584,o),
(294.488,349.564,o),
(294.488,427.12,qs),
(294.488,991.368,l),
(83.176,991.368,l),
(83.176,1112.76,l),
(424.872,1112.76,l)
);
},
{
closed = 1;
nodes = (
(701.376,1607.32,l),
(701.376,1327.444,l),
(514.792,1327.444,l),
(514.792,1607.32,l)
);
},
{
closed = 1;
nodes = (
(1037.452,1607.32,l),
(1037.452,1327.444,l),
(850.868,1327.444,l),
(850.868,1607.32,l)
);
}
);
width = 1381;
}
);
unicode = 252;
},
{
glyphname = yacute;
layers = (
{
layerId = "89A090B5-805C-419F-B0F6-264861EF513B";
shapes = (
{
closed = 1;
nodes = (
(546.264,991.368,l),
(367.548,991.368,l),
(776.684,204.568,l),
(1226.284,991.368,l),
(1050.94,991.368,l),
(1050.94,1112.76,l),
(1524.144,1112.76,l),
(1524.144,991.368,l),
(1373.528,991.368,l),
(649.672,-274.256,l),
(880.092,-274.256,l),
(880.092,-395.648,l),
(103.408,-395.648,l),
(103.408,-274.256,l),
(502.428,-274.256,l),
(701.376,69.688,l),
(220.304,991.368,l),
(61.82,991.368,l),
(61.82,1112.76,l),
(546.264,1112.76,l)
);
},
{
closed = 1;
nodes = (
(556.38,1301.592,l),
(786.8,1599.452,l),
(1063.304,1599.452,l),
(693.508,1301.592,l)
);
}
);
width = 1381;
}
);
unicode = 253;
},
{
glyphname = thorn;
layers = (
{
layerId = "89A090B5-805C-419F-B0F6-264861EF513B";
shapes = (
{
closed = 1;
nodes = (
(352.199,826.401,l),
(366.01,847.118,o),
(423.559,911.573,o),
(520.241,973.726,o),
(656.056,1019.76,o),
(748.134,1019.76,qs),
(865.534,1019.76,o),
(1054.29,932.291,o),
(1187.81,789.57,o),
(1261.47,603.111,o),
(1261.47,504.127,qs),
(1261.47,386.728,o),
(1171.69,195.666,o),
(1028.97,59.851,o),
(844.816,-16.114,o),
(752.738,-16.114,qs),
(738.927,-16.114,o),
(656.056,-9.208,o),
(540.959,27.623,o),
(412.049,108.192,o),
(352.199,181.854,q),
(347.595,181.854,l),
(347.595,-253.215,l),
(690.586,-253.215,l),
(690.586,-361.406,l),
(43.737,-361.406,l),
(43.737,-253.215,l),
(232.497,-253.215,l),
(232.497,1328.23,l),
(27.623,1319.02,l),
(27.623,1427.21,l),
(347.595,1447.93,l),
(347.595,826.401,l)
);
},
{
closed = 1;
nodes = (
(338.387,409.747,o),
(416.653,255.517,o),
(536.355,151.929,o),
(681.378,98.984,o),
(748.134,98.984,qs),
(826.401,98.984,o),
(966.82,161.137,o),
(1072.71,269.328,o),
(1137.16,418.955,o),
(1137.16,506.429,qs),
(1137.16,577.79,o),
(1088.82,720.511,o),
(992.141,833.307,o),
(847.118,904.667,o),
(750.436,904.667,qs),
(660.66,904.667,o),
(508.731,840.212,o),
(400.54,734.323,o),
(338.387,589.3,o),
(338.387,511.033,qs)
);
}
);
width = 1381;
}
);
unicode = 254;
},
{
glyphname = ydieresis;
layers = (
{
layerId = "89A090B5-805C-419F-B0F6-264861EF513B";
shapes = (
{
closed = 1;
nodes = (
(55.247,989.839,l),
(55.247,881.648,l),
(195.666,881.648,l),
(623.829,62.153,l),
(446.579,-244.007,l),
(92.078,-244.007,l),
(92.078,-352.199,l),
(782.664,-352.199,l),
(782.664,-244.007,l),
(577.79,-244.007,l),
(1222.34,881.648,l),
(1355.85,881.648,l),
(1355.85,989.839,l),
(934.593,989.839,l),
(934.593,881.648,l),
(1091.13,881.648,l),
(690.586,181.854,l),
(326.877,881.648,l),
(485.712,881.648,l),
(485.712,989.839,l)
);
},
{
closed = 1;
nodes = (
(458.088,1180.9,l),
(623.829,1180.9,l),
(623.829,1429.51,l),
(458.088,1429.51,l)
);
},
{
closed = 1;
nodes = (
(757.342,1180.9,l),
(923.083,1180.9,l),
(923.083,1429.51,l),
(757.342,1429.51,l)
);
}
);
width = 1381;
}
);
unicode = 255;
},
{
glyphname = OE;
layers = (
{
layerId = "89A090B5-805C-419F-B0F6-264861EF513B";
shapes = (
{
closed = 1;
nodes = (
(1236.15,881.648,l),
(1134.86,881.648,l),
(1114.14,1187.81,l),
(810.287,1187.81,l),
(810.287,741.229,l),
(959.914,741.229,l),
(959.914,909.271,l),
(1065.8,909.271,l),
(1065.8,464.994,l),
(959.914,464.994,l),
(959.914,633.037,l),
(810.287,633.037,l),
(810.287,108.192,l),
(1146.37,108.192,l),
(1160.18,425.861,l),
(1266.07,425.861,l),
(1266.07,0,l),
(557.072,0,ls),
(421.257,0,o),
(225.591,124.305,o),
(98.984,313.065,o),
(36.831,536.355,o),
(36.831,637.641,qs),
(36.831,775.758,o),
(124.305,1015.16,o),
(283.14,1194.71,o),
(506.429,1296,o),
(642.245,1296,qs),
(1236.15,1296,l)
);
},
{
closed = 1;
nodes = (
(635.339,1187.81,ls),
(520.241,1187.81,o),
(342.991,1100.33,o),
(223.289,950.706,o),
(161.137,752.738,o),
(161.137,644.547,qs),
(161.137,559.374,o),
(209.478,370.614,o),
(313.065,211.78,o),
(476.504,108.192,o),
(593.904,108.192,qs),
(695.19,108.192,l),
(695.19,1187.81,l)
);
}
);
width = 1381;
}
);
unicode = 338;
},
{
glyphname = oe;
layers = (
{
layerId = "89A090B5-805C-419F-B0F6-264861EF513B";
shapes = (
{
closed = 1;
nodes = (
(736.625,471.9,l),
(734.323,352.199,o),
(787.268,197.968,o),
(870.138,110.494,o),
(962.216,75.964,o),
(1001.35,75.964,qs),
(1075.01,75.964,o),
(1220.03,112.796,o),
(1266.07,126.607,q),
(1307.51,27.623,l),
(1183.2,-13.812,o),
(1038.18,-34.529,o),
(1005.95,-34.529,qs),
(985.235,-34.529,o),
(906.969,-23.02,o),
(817.193,18.416,o),
(725.115,103.588,o),
(690.586,179.552,q),
(681.378,158.835,o),
(642.245,87.474,o),
(568.582,16.114,o),
(458.088,-34.529,o),
(375.218,-34.529,qs),
(285.442,-34.529,o),
(165.741,27.623,o),
(87.474,122.003,o),
(46.039,237.101,o),
(25.322,345.293,o),
(23.02,432.767,o),
(23.02,453.485,qs),
(23.02,563.978,o),
(64.455,773.456,o),
(154.231,939.196,o),
(299.254,1038.18,o),
(405.144,1038.18,qs),
(474.202,1038.18,o),
(575.488,989.839,o),
(644.547,927.687,o),
(683.68,863.232,o),
(690.586,847.118,q),
(743.53,943.8,o),
(900.063,1035.88,o),
(976.028,1035.88,qs),
(1065.8,1035.88,o),
(1187.81,941.498,o),
(1263.77,801.079,o),
(1298.3,642.245,o),
(1298.3,577.79,qs),
(1298.3,550.167,o),
(1296,488.014,o),
(1293.7,471.9,q)
);
},
{
closed = 1;
nodes = (
(621.527,630.735,o),
(584.696,805.683,o),
(522.543,900.063,o),
(446.579,927.687,o),
(405.144,927.687,qs),
(333.783,927.687,o),
(237.101,842.514,o),
(174.948,706.699,o),
(147.325,540.959,o),
(147.325,460.39,qs),
(147.325,395.936,o),
(168.042,260.121,o),
(218.685,147.325,o),
(306.16,75.964,o),
(372.916,75.964,qs),
(435.069,75.964,o),
(520.241,124.305,o),
(575.488,202.572,o),
(605.413,296.952,o),
(619.225,389.03,o),
(621.527,464.994,o),
(621.527,485.712,qs)
);
},
{
closed = 1;
nodes = (
(1183.2,573.186,l),
(1183.2,637.641,o),
(1160.18,764.248,o),
(1109.54,865.534,o),
(1031.27,925.385,o),
(976.028,925.385,qs),
(957.612,925.385,o),
(881.648,902.365,o),
(801.079,831.005,o),
(738.927,690.586,o),
(736.625,573.186,q)
);
}
);
width = 1381;
}
);
unicode = 339;
},
{
glyphname = Scaron;
layers = (
{
layerId = "89A090B5-805C-419F-B0F6-264861EF513B";
shapes = (
{
closed = 1;
nodes = (
(1167.09,1321.32,l),
(1155.58,1268.38,o),
(1146.37,1199.32,o),
(1146.37,1155.58,qs),
(1146.37,1116.45,o),
(1155.58,980.632,o),
(1167.09,881.648,q),
(1063.5,863.232,l),
(1058.9,900.063,o),
(1031.27,1019.76,o),
(992.141,1079.62,qs),
(978.33,1100.33,o),
(934.593,1148.67,o),
(865.534,1190.11,o),
(768.852,1220.03,o),
(699.793,1220.03,qs),
(610.017,1220.03,o),
(478.806,1167.09,o),
(393.634,1086.52,o),
(352.199,992.141,o),
(352.199,948.404,qs),
(352.199,867.836,o),
(430.465,775.758,o),
(540.959,725.115,o),
(660.66,706.699,o),
(702.095,702.095,qs),
(831.005,688.284,o),
(978.33,658.358,o),
(1098.03,580.092,o),
(1180.9,451.183,o),
(1180.9,352.199,qs),
(1180.9,250.913,o),
(1095.73,103.588,o),
(962.216,6.906,o),
(794.173,-39.133,o),
(709,-39.133,qs),
(639.942,-39.133,o),
(536.354,-16.114,o),
(460.389,18.416,o),
(409.746,52.945,o),
(393.633,66.757,q),
(391.331,69.059,o),
(379.821,75.964,o),
(375.217,75.964,qs),
(368.311,75.964,o),
(356.802,62.153,o),
(352.198,57.549,q),
(347.594,41.435,o),
(340.688,11.51,o),
(331.48,-46.039,q),
(227.892,-46.039,l),
(239.402,9.208,o),
(248.61,110.494,o),
(248.61,135.815,qs),
(248.61,158.835,ls),
(248.61,177.25,o),
(244.006,239.403,o),
(237.1,310.764,o),
(230.194,377.52,o),
(227.892,402.842,q),
(331.48,402.842,l),
(340.688,359.105,o),
(370.613,248.611,o),
(409.746,197.968,qs),
(441.974,156.533,o),
(568.581,75.964,o),
(692.887,75.964,qs),
(798.776,75.964,o),
(939.195,126.607,o),
(1022.069,204.874,o),
(1056.599,299.254,o),
(1056.599,342.991,qs),
(1056.599,418.955,o),
(989.838,508.731,o),
(893.156,557.072,o),
(780.361,575.488,o),
(736.624,580.092,qs),
(669.867,586.998,o),
(492.617,614.621,o),
(336.084,688.284,o),
(227.892,824.099,o),
(227.892,939.196,qs),
(227.892,1017.46,o),
(296.951,1160.18,o),
(418.954,1270.68,o),
(586.997,1335.13,o),
(685.981,1335.13,qs),
(748.133,1335.13,o),
(844.815,1312.11,o),
(913.874,1282.19,o),
(959.913,1249.96,o),
(971.423,1240.75,q),
(999.046,1220.03,o),
(1017.459,1208.52,o),
(1024.369,1208.52,qs),
(1040.479,1208.52,o),
(1047.389,1236.15,o),
(1058.899,1291.4,qs),
(1063.499,1314.41,o),
(1063.499,1321.32,q)
);
},
{
closed = 1;
nodes = (
(393.634,1694.24,l),
(467.296,1749.48,l),
(699.793,1599.86,l),
(911.573,1751.79,l),
(985.235,1694.24,l),
(782.664,1477.85,l),
(607.715,1477.85,l)
);
}
);
width = 1381;
}
);
unicode = 352;
},
{
glyphname = scaron;
layers = (
{
layerId = "89A090B5-805C-419F-B0F6-264861EF513B";
shapes = (
{
closed = 1;
nodes = (
(1109.54,1019.76,l),
(1102.64,982.934,o),
(1088.82,888.553,o),
(1088.82,821.797,qs),
(1088.82,773.456,o),
(1095.73,706.699,o),
(1100.33,676.774,q),
(999.047,665.264,l),
(992.141,699.793,o),
(966.82,782.664,o),
(895.459,854.024,o),
(757.342,904.667,o),
(637.641,904.667,qs),
(499.524,904.667,o),
(352.199,805.683,o),
(352.199,734.323,qs),
(352.199,672.17,o),
(423.559,600.809,o),
(552.468,561.676,o),
(725.115,547.865,o),
(826.401,543.261,q),
(847.118,543.261,o),
(955.31,529.449,o),
(1070.41,478.806,o),
(1160.18,375.218,o),
(1160.18,285.442,qs),
(1160.18,202.572,o),
(1079.62,80.568,o),
(950.706,2.302,o),
(796.475,-34.529,o),
(720.511,-34.529,qs),
(658.358,-34.529,o),
(552.468,-13.812,o),
(464.994,18.416,o),
(402.842,50.643,o),
(382.124,62.153,q),
(382.124,62.153,o),
(377.52,64.455,q),
(375.218,66.757,o),
(370.614,66.757,qs),
(354.501,66.757,o),
(336.085,9.208,o),
(324.575,-29.925,q),
(223.289,-29.925,l),
(227.893,0,o),
(237.101,57.549,o),
(237.101,115.098,qs),
(237.101,188.76,o),
(227.893,303.858,o),
(223.289,342.991,q),
(324.575,354.501,l),
(329.179,324.575,o),
(356.803,232.497,o),
(432.767,145.023,o),
(575.488,80.568,o),
(695.19,80.568,qs),
(729.719,80.568,o),
(844.816,94.38,o),
(955.31,135.815,o),
(1035.88,214.082,o),
(1035.88,280.838,qs),
(1035.88,331.481,o),
(987.537,391.332,o),
(900.063,421.257,o),
(778.06,430.465,o),
(706.699,432.767,qs),
(660.66,435.069,o),
(499.524,451.183,o),
(342.991,508.731,o),
(227.893,626.131,o),
(227.893,729.719,qs),
(227.893,791.871,o),
(287.744,897.761,o),
(393.634,976.028,o),
(545.563,1019.76,o),
(635.339,1019.76,qs),
(738.927,1019.76,o),
(867.836,971.424,o),
(900.063,953.008,q),
(904.667,948.404,o),
(936.894,932.291,o),
(950.706,932.291,qs),
(969.122,932.291,o),
(987.537,976.028,o),
(992.141,987.537,q),
(996.745,1010.56,o),
(1001.35,1024.37,o),
(1005.95,1035.88,q)
);
},
{
closed = 1;
nodes = (
(393.634,1388.08,l),
(467.296,1443.32,l),
(699.793,1293.7,l),
(911.573,1445.63,l),
(985.235,1388.08,l),
(782.664,1171.69,l),
(607.715,1171.69,l)
);
}
);
width = 1381;
}
);
unicode = 353;
},
{
glyphname = Ydieresis;
layers = (
{
layerId = "89A090B5-805C-419F-B0F6-264861EF513B";
shapes = (
{
closed = 1;
nodes = (
(590.1,1335.312,l),
(393.4,1335.312,l),
(783.428,693.508,l),
(1168.96,1335.312,l),
(967.764,1335.312,l),
(967.764,1456.704,l),
(1470.192,1456.704,l),
(1470.192,1335.312,l),
(1306.088,1335.312,l),
(843,564.248,l),
(843,121.392,l),
(1148.728,121.392,l),
(1148.728,0,l),
(405.764,0,l),
(405.764,121.392,l),
(713.74,121.392,l),
(713.74,564.248,l),
(246.156,1335.312,l),
(83.176,1335.312,l),
(83.176,1456.704,l),
(590.1,1456.704,l)
);
},
{
closed = 1;
nodes = (
(701.376,1913.32,l),
(701.376,1633.444,l),
(514.792,1633.444,l),
(514.792,1913.32,l)
);
},
{
closed = 1;
nodes = (
(1037.452,1913.32,l),
(1037.452,1633.444,l),
(850.868,1633.444,l),
(850.868,1913.32,l)
);
}
);
width = 1381;
}
);
unicode = 376;
},
{
glyphname = Zcaron;
layers = (
{
layerId = "89A090B5-805C-419F-B0F6-264861EF513B";
shapes = (
{
closed = 1;
nodes = (
(1134.86,1201.62,l),
(331.481,108.192,l),
(1079.62,108.192,l),
(1079.62,481.108,l),
(1187.81,481.108,l),
(1187.81,0,l),
(193.364,0,l),
(193.364,108.192,l),
(987.537,1187.81,l),
(317.669,1187.81,l),
(317.669,851.722,l),
(209.478,851.722,l),
(209.478,1296,l),
(1134.86,1296,l)
);
},
{
closed = 1;
nodes = (
(393.634,1694.24,l),
(467.296,1749.48,l),
(699.793,1599.86,l),
(911.573,1751.79,l),
(985.235,1694.24,l),
(782.664,1477.85,l),
(607.715,1477.85,l)
);
}
);
width = 1381;
}
);
unicode = 381;
},
{
glyphname = zcaron;
layers = (
{
layerId = "89A090B5-805C-419F-B0F6-264861EF513B";
shapes = (
{
closed = 1;
nodes = (
(1141.77,890.855,l),
(395.936,108.192,l),
(1033.58,108.192,l),
(1033.58,319.971,l),
(1141.77,319.971,l),
(1141.77,0,l),
(239.403,0,l),
(239.403,108.192,l),
(978.33,881.648,l),
(370.614,881.648,l),
(370.614,676.774,l),
(262.423,676.774,l),
(262.423,989.839,l),
(1141.77,989.839,l)
);
},
{
closed = 1;
nodes = (
(393.634,1388.08,l),
(467.296,1443.32,l),
(699.793,1293.7,l),
(911.573,1445.63,l),
(985.235,1388.08,l),
(782.664,1171.69,l),
(607.715,1171.69,l)
);
}
);
width = 1381;
}
);
unicode = 382;
},
{
glyphname = florin;
layers = (
{
layerId = "89A090B5-805C-419F-B0F6-264861EF513B";
shapes = (
{
closed = 1;
nodes = (
(1160.18,1401.89,l),
(1130.26,1408.79,o),
(1049.69,1420.3,o),
(994.443,1420.3,qs),
(863.232,1420.3,o),
(722.813,1353.55,o),
(656.056,1256.87,o),
(644.547,1148.67,o),
(644.547,1104.94,qs),
(644.547,978.33,l),
(1049.69,978.33,l),
(1049.69,881.648,l),
(644.547,881.648,l),
(644.547,117.4,ls),
(644.547,36.831,o),
(607.715,-80.568,o),
(543.261,-128.909,qs),
(467.296,-186.458,o),
(269.328,-227.893,o),
(170.344,-227.893,qs),
(140.419,-227.893,o),
(80.568,-223.289,o),
(55.247,-218.685,q),
(64.455,-103.588,l),
(98.984,-108.192,o),
(181.854,-117.4,o),
(220.987,-117.4,qs),
(296.952,-117.4,o),
(458.088,-75.964,o),
(494.92,-32.227,q),
(520.241,0,o),
(529.449,87.474,o),
(529.449,133.513,qs),
(529.449,881.648,l),
(283.14,881.648,l),
(283.14,978.33,l),
(529.449,978.33,l),
(529.449,1116.45,ls),
(529.449,1167.09,o),
(552.468,1309.81,o),
(651.452,1438.72,o),
(849.42,1528.5,o),
(1024.37,1528.5,qs),
(1125.65,1528.5,o),
(1171.69,1519.29,q)
);
}
);
width = 1381;
}
);
unicode = 402;
},
{
glyphname = circumflex;
layers = (
{
layerId = "89A090B5-805C-419F-B0F6-264861EF513B";
shapes = (
{
closed = 1;
nodes = (
(985,1213,l),
(912,1156,l),
(679,1308,l),
(470,1156,l),
(394,1211,l),
(596,1430,l),
(773,1430,l)
);
}
);
width = 1381;
}
);
unicode = 710;
},
{
glyphname = tilde;
layers = (
{
layerId = "89A090B5-805C-419F-B0F6-264861EF513B";
shapes = (
{
closed = 1;
nodes = (
(1059,1395,l),
(1054,1390,o),
(1054,1379,q),
(1027,1282,o),
(902,1183,o),
(829,1183,qs),
(790,1183,o),
(718,1215,o),
(665,1257,q),
(610,1298,o),
(564,1324,o),
(539,1324,qs),
(493,1324,o),
(437,1250,o),
(419,1204,q),
(419,1202,o),
(417,1197,q),
(414,1190,l),
(322,1222,l),
(355,1310,o),
(453,1427,o),
(539,1427,qs),
(594,1427,o),
(672,1381,o),
(709,1349,q),
(753,1317,o),
(810,1287,o),
(836,1287,qs),
(866,1287,o),
(909,1317,o),
(941,1360,o),
(960,1406,o),
(967,1425,q)
);
}
);
width = 1381;
}
);
unicode = 732;
},
{
glyphname = uni1200;
layers = (
{
layerId = "89A090B5-805C-419F-B0F6-264861EF513B";
shapes = (
{
closed = 1;
nodes = (
(619,1206,ls),
(619,1270,o),
(657,1344,o),
(703,1344,qs),
(723,1344,o),
(756,1325,o),
(758,1309,q),
(765,1312,l),
(761,1333,o),
(730,1360,o),
(694,1360,qs),
(641,1360,o),
(589,1280,o),
(589,1210,qs),
(589,216,l),
(469,176,l),
(405,220,l),
(405,1051,ls),
(405,1139,o),
(311,1232,o),
(223,1232,qs),
(190,1232,o),
(132,1212,o),
(86,1173,o),
(59,1120,o),
(59,1089,qs),
(59,1078,o),
(68,1051,o),
(77,1051,q),
(77,1054,l),
(71,1056,o),
(70,1071,o),
(70,1073,q),
(70,1093,o),
(92,1115,q),
(103,1128,o),
(146,1139,o),
(168,1139,qs),
(201,1139,o),
(247,1082,o),
(247,1042,qs),
(247,859,l),
(240,868,o),
(212,879,o),
(198,879,qs),
(73,879,o),
(73,765,qs),
(73,725,o),
(86,708,q),
(90,712,l),
(86,716,o),
(86,723,qs),
(86,738,o),
(97,749,q),
(104,760,o),
(139,774,o),
(157,774,qs),
(194,774,o),
(247,743,o),
(247,721,qs),
(247,481,l),
(232,496,o),
(181,505,o),
(170,505,qs),
(123,505,o),
(55,443,o),
(55,397,qs),
(55,373,o),
(64,326,o),
(73,317,q),
(77,320,l),
(77,351,o),
(124,392,o),
(157,392,qs),
(194,392,o),
(247,344,o),
(247,309,qs),
(247,192,l),
(386,115,l),
(589,189,l),
(589,22,l),
(556,33,o),
(492,70,o),
(465,95,q),
(434,13,o),
(342,-77,o),
(260,-77,qs),
(245,-77,o),
(205,-62,o),
(190,-51,q),
(181,-59,l),
(181,-79,o),
(231,-124,o),
(267,-139,qs),
(280,-145,o),
(337,-152,o),
(364,-152,qs),
(397,-152,o),
(476,-130,o),
(549,-92,o),
(604,-44,o),
(615,-16,q),
(635,-20,o),
(725,-35,o),
(767,-35,q),
(800,-27,o),
(851,-11,o),
(897,18,o),
(941,64,o),
(967,97,q),
(957,104,l),
(915,57,o),
(822,-5,o),
(767,-9,q),
(734,-9,o),
(643,4,o),
(619,13,q),
(619,201,l),
(727,247,l),
(727,229,ls),
(727,207,o),
(749,165,o),
(783,134,o),
(827,113,o),
(851,113,qs),
(891,113,o),
(957,145,o),
(1005,194,o),
(1032,254,o),
(1032,282,qs),
(1032,306,o),
(1016,353,o),
(1005,364,q),
(990,364,l),
(999,351,o),
(1010,315,o),
(1010,306,qs),
(1010,293,o),
(996,262,o),
(976,236,o),
(950,220,o),
(939,220,qs),
(910,220,o),
(884,273,o),
(884,300,qs),
(884,952,l),
(941,954,o),
(1021,1029,o),
(1021,1080,qs),
(1021,1117,o),
(981,1155,o),
(954,1164,q),
(945,1151,l),
(965,1148,o),
(994,1118,o),
(994,1102,qs),
(994,1080,o),
(954,1049,o),
(926,1049,q),
(924,1049,l),
(875,1049,o),
(789,1150,o),
(774,1219,q),
(745,1219,l),
(741,1199,o),
(718,1153,o),
(681,1113,o),
(639,1078,o),
(619,1067,q)
);
},
{
closed = 1;
nodes = (
(619,229,l),
(619,1045,l),
(635,1045,o),
(672,1034,o),
(705,1018,o),
(727,994,o),
(727,983,qs),
(727,278,l)
);
},
{
closed = 1;
nodes = (
(485,29,o),
(551,2,o),
(588,-9,q),
(584,-20,o),
(544,-60,o),
(478,-101,o),
(392,-130,o),
(342,-130,qs),
(306,-130,o),
(232,-106,o),
(198,-73,q),
(201,-70,l),
(216,-81,o),
(258,-97,o),
(273,-97,qs),
(355,-97,o),
(443,-22,o),
(474,49,q)
);
}
);
width = 1088;
}
);
unicode = 4608;
},
